%TF.GenerationSoftware,KiCad,Pcbnew,7.0.7*%
%TF.CreationDate,2024-01-25T14:39:41+01:00*%
%TF.ProjectId,rotor,726f746f-722e-46b6-9963-61645f706362,rev?*%
%TF.SameCoordinates,Original*%
%TF.FileFunction,Drillmap*%
%TF.FilePolarity,Positive*%
%FSLAX45Y45*%
G04 Gerber Fmt 4.5, Leading zero omitted, Abs format (unit mm)*
G04 Created by KiCad (PCBNEW 7.0.7) date 2024-01-25 14:39:41*
%MOMM*%
%LPD*%
G01*
G04 APERTURE LIST*
%ADD10C,0.150000*%
%ADD11C,0.200000*%
%ADD12C,0.040000*%
%ADD13C,0.100000*%
%ADD14C,0.119000*%
%ADD15C,0.270000*%
%ADD16C,0.350000*%
G04 APERTURE END LIST*
D10*
X11000000Y2500000D02*
X21000000Y2500000D01*
X21000000Y-11000000D01*
X11000000Y-11000000D01*
X11000000Y2500000D01*
D11*
D12*
X12680000Y-3080000D02*
X12720000Y-3120000D01*
X12720000Y-3080000D02*
X12680000Y-3120000D01*
X13080000Y-3080000D02*
X13120000Y-3120000D01*
X13120000Y-3080000D02*
X13080000Y-3120000D01*
X13480000Y-3080000D02*
X13520000Y-3120000D01*
X13520000Y-3080000D02*
X13480000Y-3120000D01*
X13730000Y-5730000D02*
X13770000Y-5770000D01*
X13770000Y-5730000D02*
X13730000Y-5770000D01*
X13730000Y-5980000D02*
X13770000Y-6020000D01*
X13770000Y-5980000D02*
X13730000Y-6020000D01*
X13730000Y-6230000D02*
X13770000Y-6270000D01*
X13770000Y-6230000D02*
X13730000Y-6270000D01*
X13730000Y-6480000D02*
X13770000Y-6520000D01*
X13770000Y-6480000D02*
X13730000Y-6520000D01*
X13730000Y-6730000D02*
X13770000Y-6770000D01*
X13770000Y-6730000D02*
X13730000Y-6770000D01*
X13880000Y-3080000D02*
X13920000Y-3120000D01*
X13920000Y-3080000D02*
X13880000Y-3120000D01*
X13980000Y-5730000D02*
X14020000Y-5770000D01*
X14020000Y-5730000D02*
X13980000Y-5770000D01*
X13980000Y-5980000D02*
X14020000Y-6020000D01*
X14020000Y-5980000D02*
X13980000Y-6020000D01*
X13980000Y-6230000D02*
X14020000Y-6270000D01*
X14020000Y-6230000D02*
X13980000Y-6270000D01*
X13980000Y-6480000D02*
X14020000Y-6520000D01*
X14020000Y-6480000D02*
X13980000Y-6520000D01*
X13980000Y-6730000D02*
X14020000Y-6770000D01*
X14020000Y-6730000D02*
X13980000Y-6770000D01*
X14230000Y-5730000D02*
X14270000Y-5770000D01*
X14270000Y-5730000D02*
X14230000Y-5770000D01*
X14230000Y-5980000D02*
X14270000Y-6020000D01*
X14270000Y-5980000D02*
X14230000Y-6020000D01*
X14230000Y-6230000D02*
X14270000Y-6270000D01*
X14270000Y-6230000D02*
X14230000Y-6270000D01*
X14230000Y-6480000D02*
X14270000Y-6520000D01*
X14270000Y-6480000D02*
X14230000Y-6520000D01*
X14230000Y-6730000D02*
X14270000Y-6770000D01*
X14270000Y-6730000D02*
X14230000Y-6770000D01*
X14480000Y-5730000D02*
X14520000Y-5770000D01*
X14520000Y-5730000D02*
X14480000Y-5770000D01*
X14480000Y-5980000D02*
X14520000Y-6020000D01*
X14520000Y-5980000D02*
X14480000Y-6020000D01*
X14480000Y-6230000D02*
X14520000Y-6270000D01*
X14520000Y-6230000D02*
X14480000Y-6270000D01*
X14480000Y-6480000D02*
X14520000Y-6520000D01*
X14520000Y-6480000D02*
X14480000Y-6520000D01*
X14480000Y-6730000D02*
X14520000Y-6770000D01*
X14520000Y-6730000D02*
X14480000Y-6770000D01*
X15670000Y-5300000D02*
X15710000Y-5340000D01*
X15710000Y-5300000D02*
X15670000Y-5340000D01*
X15890000Y-5300000D02*
X15930000Y-5340000D01*
X15930000Y-5300000D02*
X15890000Y-5340000D01*
X16180000Y-5300000D02*
X16220000Y-5340000D01*
X16220000Y-5300000D02*
X16180000Y-5340000D01*
X16580000Y-4280000D02*
X16620000Y-4320000D01*
X16620000Y-4280000D02*
X16580000Y-4320000D01*
X16580000Y-4670000D02*
X16620000Y-4710000D01*
X16620000Y-4670000D02*
X16580000Y-4710000D01*
X16590000Y-4930000D02*
X16630000Y-4970000D01*
X16630000Y-4930000D02*
X16590000Y-4970000D01*
D13*
X11929600Y-4920000D02*
G75*
G03*
X11929600Y-4920000I-50000J0D01*
G01*
X11934000Y-4400000D02*
G75*
G03*
X11934000Y-4400000I-50000J0D01*
G01*
X12183600Y-4920000D02*
G75*
G03*
X12183600Y-4920000I-50000J0D01*
G01*
X12188000Y-4400000D02*
G75*
G03*
X12188000Y-4400000I-50000J0D01*
G01*
X12437600Y-4920000D02*
G75*
G03*
X12437600Y-4920000I-50000J0D01*
G01*
X12442000Y-4400000D02*
G75*
G03*
X12442000Y-4400000I-50000J0D01*
G01*
X12450000Y-3505000D02*
G75*
G03*
X12450000Y-3505000I-50000J0D01*
G01*
X12691600Y-4920000D02*
G75*
G03*
X12691600Y-4920000I-50000J0D01*
G01*
X12696000Y-4400000D02*
G75*
G03*
X12696000Y-4400000I-50000J0D01*
G01*
X12704000Y-3505000D02*
G75*
G03*
X12704000Y-3505000I-50000J0D01*
G01*
X12843000Y-10300000D02*
G75*
G03*
X12843000Y-10300000I-50000J0D01*
G01*
X12844000Y-9746000D02*
G75*
G03*
X12844000Y-9746000I-50000J0D01*
G01*
X12945600Y-4920000D02*
G75*
G03*
X12945600Y-4920000I-50000J0D01*
G01*
X12950000Y-4400000D02*
G75*
G03*
X12950000Y-4400000I-50000J0D01*
G01*
X12958000Y-3505000D02*
G75*
G03*
X12958000Y-3505000I-50000J0D01*
G01*
X13097000Y-10300000D02*
G75*
G03*
X13097000Y-10300000I-50000J0D01*
G01*
X13098000Y-9746000D02*
G75*
G03*
X13098000Y-9746000I-50000J0D01*
G01*
X13199600Y-4920000D02*
G75*
G03*
X13199600Y-4920000I-50000J0D01*
G01*
X13204000Y-4400000D02*
G75*
G03*
X13204000Y-4400000I-50000J0D01*
G01*
X13212000Y-3505000D02*
G75*
G03*
X13212000Y-3505000I-50000J0D01*
G01*
X13351000Y-10300000D02*
G75*
G03*
X13351000Y-10300000I-50000J0D01*
G01*
X13352000Y-9746000D02*
G75*
G03*
X13352000Y-9746000I-50000J0D01*
G01*
X13453600Y-4920000D02*
G75*
G03*
X13453600Y-4920000I-50000J0D01*
G01*
X13458000Y-4400000D02*
G75*
G03*
X13458000Y-4400000I-50000J0D01*
G01*
X13466000Y-3505000D02*
G75*
G03*
X13466000Y-3505000I-50000J0D01*
G01*
X13605000Y-10300000D02*
G75*
G03*
X13605000Y-10300000I-50000J0D01*
G01*
X13606000Y-9746000D02*
G75*
G03*
X13606000Y-9746000I-50000J0D01*
G01*
X13707600Y-4920000D02*
G75*
G03*
X13707600Y-4920000I-50000J0D01*
G01*
X13712000Y-4400000D02*
G75*
G03*
X13712000Y-4400000I-50000J0D01*
G01*
X13720000Y-3505000D02*
G75*
G03*
X13720000Y-3505000I-50000J0D01*
G01*
X13859000Y-10300000D02*
G75*
G03*
X13859000Y-10300000I-50000J0D01*
G01*
X13860000Y-9746000D02*
G75*
G03*
X13860000Y-9746000I-50000J0D01*
G01*
X13961600Y-4920000D02*
G75*
G03*
X13961600Y-4920000I-50000J0D01*
G01*
X13966000Y-4400000D02*
G75*
G03*
X13966000Y-4400000I-50000J0D01*
G01*
X14113000Y-10300000D02*
G75*
G03*
X14113000Y-10300000I-50000J0D01*
G01*
X14114000Y-9746000D02*
G75*
G03*
X14114000Y-9746000I-50000J0D01*
G01*
X14215600Y-4920000D02*
G75*
G03*
X14215600Y-4920000I-50000J0D01*
G01*
X14220000Y-4400000D02*
G75*
G03*
X14220000Y-4400000I-50000J0D01*
G01*
X14367000Y-10300000D02*
G75*
G03*
X14367000Y-10300000I-50000J0D01*
G01*
X14368000Y-9746000D02*
G75*
G03*
X14368000Y-9746000I-50000J0D01*
G01*
X14620000Y-4400000D02*
G75*
G03*
X14620000Y-4400000I-50000J0D01*
G01*
X14621000Y-10300000D02*
G75*
G03*
X14621000Y-10300000I-50000J0D01*
G01*
X14622000Y-4920000D02*
G75*
G03*
X14622000Y-4920000I-50000J0D01*
G01*
X14622000Y-9746000D02*
G75*
G03*
X14622000Y-9746000I-50000J0D01*
G01*
X14874000Y-4400000D02*
G75*
G03*
X14874000Y-4400000I-50000J0D01*
G01*
X14876000Y-4920000D02*
G75*
G03*
X14876000Y-4920000I-50000J0D01*
G01*
X15126000Y-10300000D02*
G75*
G03*
X15126000Y-10300000I-50000J0D01*
G01*
X15128000Y-4400000D02*
G75*
G03*
X15128000Y-4400000I-50000J0D01*
G01*
X15130000Y-4920000D02*
G75*
G03*
X15130000Y-4920000I-50000J0D01*
G01*
X15130000Y-9745000D02*
G75*
G03*
X15130000Y-9745000I-50000J0D01*
G01*
X15380000Y-10300000D02*
G75*
G03*
X15380000Y-10300000I-50000J0D01*
G01*
X15382000Y-4400000D02*
G75*
G03*
X15382000Y-4400000I-50000J0D01*
G01*
X15384000Y-4920000D02*
G75*
G03*
X15384000Y-4920000I-50000J0D01*
G01*
X15384000Y-9745000D02*
G75*
G03*
X15384000Y-9745000I-50000J0D01*
G01*
X15634000Y-10300000D02*
G75*
G03*
X15634000Y-10300000I-50000J0D01*
G01*
X15636000Y-4400000D02*
G75*
G03*
X15636000Y-4400000I-50000J0D01*
G01*
X15638000Y-4920000D02*
G75*
G03*
X15638000Y-4920000I-50000J0D01*
G01*
X15638000Y-9745000D02*
G75*
G03*
X15638000Y-9745000I-50000J0D01*
G01*
X15888000Y-10300000D02*
G75*
G03*
X15888000Y-10300000I-50000J0D01*
G01*
X15890000Y-4400000D02*
G75*
G03*
X15890000Y-4400000I-50000J0D01*
G01*
X15892000Y-4920000D02*
G75*
G03*
X15892000Y-4920000I-50000J0D01*
G01*
X15892000Y-9745000D02*
G75*
G03*
X15892000Y-9745000I-50000J0D01*
G01*
X16142000Y-10300000D02*
G75*
G03*
X16142000Y-10300000I-50000J0D01*
G01*
X16144000Y-4400000D02*
G75*
G03*
X16144000Y-4400000I-50000J0D01*
G01*
X16146000Y-4920000D02*
G75*
G03*
X16146000Y-4920000I-50000J0D01*
G01*
X16146000Y-9745000D02*
G75*
G03*
X16146000Y-9745000I-50000J0D01*
G01*
X16396000Y-10300000D02*
G75*
G03*
X16396000Y-10300000I-50000J0D01*
G01*
X16398000Y-4400000D02*
G75*
G03*
X16398000Y-4400000I-50000J0D01*
G01*
X16400000Y-4920000D02*
G75*
G03*
X16400000Y-4920000I-50000J0D01*
G01*
X16400000Y-9745000D02*
G75*
G03*
X16400000Y-9745000I-50000J0D01*
G01*
X16650000Y-10300000D02*
G75*
G03*
X16650000Y-10300000I-50000J0D01*
G01*
X16654000Y-9745000D02*
G75*
G03*
X16654000Y-9745000I-50000J0D01*
G01*
X16780000Y-3500000D02*
G75*
G03*
X16780000Y-3500000I-50000J0D01*
G01*
X16904000Y-10300000D02*
G75*
G03*
X16904000Y-10300000I-50000J0D01*
G01*
X16908000Y-4920000D02*
G75*
G03*
X16908000Y-4920000I-50000J0D01*
G01*
X16908000Y-9745000D02*
G75*
G03*
X16908000Y-9745000I-50000J0D01*
G01*
X16912000Y-4400000D02*
G75*
G03*
X16912000Y-4400000I-50000J0D01*
G01*
X17034000Y-3500000D02*
G75*
G03*
X17034000Y-3500000I-50000J0D01*
G01*
X17162000Y-4920000D02*
G75*
G03*
X17162000Y-4920000I-50000J0D01*
G01*
X17166000Y-4400000D02*
G75*
G03*
X17166000Y-4400000I-50000J0D01*
G01*
X17288000Y-3500000D02*
G75*
G03*
X17288000Y-3500000I-50000J0D01*
G01*
X17414000Y-10300000D02*
G75*
G03*
X17414000Y-10300000I-50000J0D01*
G01*
X17416000Y-4920000D02*
G75*
G03*
X17416000Y-4920000I-50000J0D01*
G01*
X17416000Y-9746000D02*
G75*
G03*
X17416000Y-9746000I-50000J0D01*
G01*
X17420000Y-4400000D02*
G75*
G03*
X17420000Y-4400000I-50000J0D01*
G01*
X17542000Y-3500000D02*
G75*
G03*
X17542000Y-3500000I-50000J0D01*
G01*
X17668000Y-10300000D02*
G75*
G03*
X17668000Y-10300000I-50000J0D01*
G01*
X17670000Y-4920000D02*
G75*
G03*
X17670000Y-4920000I-50000J0D01*
G01*
X17670000Y-9746000D02*
G75*
G03*
X17670000Y-9746000I-50000J0D01*
G01*
X17674000Y-4400000D02*
G75*
G03*
X17674000Y-4400000I-50000J0D01*
G01*
X17796000Y-3500000D02*
G75*
G03*
X17796000Y-3500000I-50000J0D01*
G01*
X17922000Y-10300000D02*
G75*
G03*
X17922000Y-10300000I-50000J0D01*
G01*
X17924000Y-4920000D02*
G75*
G03*
X17924000Y-4920000I-50000J0D01*
G01*
X17924000Y-9746000D02*
G75*
G03*
X17924000Y-9746000I-50000J0D01*
G01*
X17928000Y-4400000D02*
G75*
G03*
X17928000Y-4400000I-50000J0D01*
G01*
X18050000Y-3500000D02*
G75*
G03*
X18050000Y-3500000I-50000J0D01*
G01*
X18176000Y-10300000D02*
G75*
G03*
X18176000Y-10300000I-50000J0D01*
G01*
X18178000Y-4920000D02*
G75*
G03*
X18178000Y-4920000I-50000J0D01*
G01*
X18178000Y-9746000D02*
G75*
G03*
X18178000Y-9746000I-50000J0D01*
G01*
X18182000Y-4400000D02*
G75*
G03*
X18182000Y-4400000I-50000J0D01*
G01*
X18430000Y-10300000D02*
G75*
G03*
X18430000Y-10300000I-50000J0D01*
G01*
X18432000Y-4920000D02*
G75*
G03*
X18432000Y-4920000I-50000J0D01*
G01*
X18432000Y-9746000D02*
G75*
G03*
X18432000Y-9746000I-50000J0D01*
G01*
X18436000Y-4400000D02*
G75*
G03*
X18436000Y-4400000I-50000J0D01*
G01*
X18684000Y-10300000D02*
G75*
G03*
X18684000Y-10300000I-50000J0D01*
G01*
X18686000Y-4920000D02*
G75*
G03*
X18686000Y-4920000I-50000J0D01*
G01*
X18686000Y-9746000D02*
G75*
G03*
X18686000Y-9746000I-50000J0D01*
G01*
X18690000Y-4400000D02*
G75*
G03*
X18690000Y-4400000I-50000J0D01*
G01*
X18750000Y-5395000D02*
G75*
G03*
X18750000Y-5395000I-50000J0D01*
G01*
X18750000Y-5649000D02*
G75*
G03*
X18750000Y-5649000I-50000J0D01*
G01*
X18750000Y-5903000D02*
G75*
G03*
X18750000Y-5903000I-50000J0D01*
G01*
X18750000Y-6157000D02*
G75*
G03*
X18750000Y-6157000I-50000J0D01*
G01*
X18750000Y-6411000D02*
G75*
G03*
X18750000Y-6411000I-50000J0D01*
G01*
X18750000Y-6665000D02*
G75*
G03*
X18750000Y-6665000I-50000J0D01*
G01*
X18750000Y-6919000D02*
G75*
G03*
X18750000Y-6919000I-50000J0D01*
G01*
X18750000Y-7173000D02*
G75*
G03*
X18750000Y-7173000I-50000J0D01*
G01*
X18750000Y-7427000D02*
G75*
G03*
X18750000Y-7427000I-50000J0D01*
G01*
X18750000Y-7681000D02*
G75*
G03*
X18750000Y-7681000I-50000J0D01*
G01*
X18750000Y-7935000D02*
G75*
G03*
X18750000Y-7935000I-50000J0D01*
G01*
X18750000Y-8189000D02*
G75*
G03*
X18750000Y-8189000I-50000J0D01*
G01*
X18750000Y-8443000D02*
G75*
G03*
X18750000Y-8443000I-50000J0D01*
G01*
X18750000Y-8697000D02*
G75*
G03*
X18750000Y-8697000I-50000J0D01*
G01*
X18750000Y-8951000D02*
G75*
G03*
X18750000Y-8951000I-50000J0D01*
G01*
X18750000Y-9205000D02*
G75*
G03*
X18750000Y-9205000I-50000J0D01*
G01*
X18938000Y-10300000D02*
G75*
G03*
X18938000Y-10300000I-50000J0D01*
G01*
X18940000Y-9746000D02*
G75*
G03*
X18940000Y-9746000I-50000J0D01*
G01*
X19192000Y-10300000D02*
G75*
G03*
X19192000Y-10300000I-50000J0D01*
G01*
X19194000Y-9746000D02*
G75*
G03*
X19194000Y-9746000I-50000J0D01*
G01*
X19449000Y-4920000D02*
G75*
G03*
X19449000Y-4920000I-50000J0D01*
G01*
X19449000Y-5174000D02*
G75*
G03*
X19449000Y-5174000I-50000J0D01*
G01*
X19449000Y-5428000D02*
G75*
G03*
X19449000Y-5428000I-50000J0D01*
G01*
X19449000Y-5682000D02*
G75*
G03*
X19449000Y-5682000I-50000J0D01*
G01*
X19449000Y-5936000D02*
G75*
G03*
X19449000Y-5936000I-50000J0D01*
G01*
X19449000Y-6190000D02*
G75*
G03*
X19449000Y-6190000I-50000J0D01*
G01*
X19449000Y-6444000D02*
G75*
G03*
X19449000Y-6444000I-50000J0D01*
G01*
X19449000Y-6698000D02*
G75*
G03*
X19449000Y-6698000I-50000J0D01*
G01*
X19449000Y-6952000D02*
G75*
G03*
X19449000Y-6952000I-50000J0D01*
G01*
X19449000Y-7206000D02*
G75*
G03*
X19449000Y-7206000I-50000J0D01*
G01*
X19449000Y-7460000D02*
G75*
G03*
X19449000Y-7460000I-50000J0D01*
G01*
X19449000Y-7714000D02*
G75*
G03*
X19449000Y-7714000I-50000J0D01*
G01*
X19449000Y-7968000D02*
G75*
G03*
X19449000Y-7968000I-50000J0D01*
G01*
X19449000Y-8222000D02*
G75*
G03*
X19449000Y-8222000I-50000J0D01*
G01*
X19449000Y-8476000D02*
G75*
G03*
X19449000Y-8476000I-50000J0D01*
G01*
X19449000Y-8730000D02*
G75*
G03*
X19449000Y-8730000I-50000J0D01*
G01*
X19449000Y-8984000D02*
G75*
G03*
X19449000Y-8984000I-50000J0D01*
G01*
X19449000Y-9238000D02*
G75*
G03*
X19449000Y-9238000I-50000J0D01*
G01*
X19703000Y-4920000D02*
G75*
G03*
X19703000Y-4920000I-50000J0D01*
G01*
X19703000Y-5174000D02*
G75*
G03*
X19703000Y-5174000I-50000J0D01*
G01*
X19703000Y-5428000D02*
G75*
G03*
X19703000Y-5428000I-50000J0D01*
G01*
X19703000Y-5682000D02*
G75*
G03*
X19703000Y-5682000I-50000J0D01*
G01*
X19703000Y-5936000D02*
G75*
G03*
X19703000Y-5936000I-50000J0D01*
G01*
X19703000Y-6190000D02*
G75*
G03*
X19703000Y-6190000I-50000J0D01*
G01*
X19703000Y-6444000D02*
G75*
G03*
X19703000Y-6444000I-50000J0D01*
G01*
X19703000Y-6698000D02*
G75*
G03*
X19703000Y-6698000I-50000J0D01*
G01*
X19703000Y-6952000D02*
G75*
G03*
X19703000Y-6952000I-50000J0D01*
G01*
X19703000Y-7206000D02*
G75*
G03*
X19703000Y-7206000I-50000J0D01*
G01*
X19703000Y-7460000D02*
G75*
G03*
X19703000Y-7460000I-50000J0D01*
G01*
X19703000Y-7714000D02*
G75*
G03*
X19703000Y-7714000I-50000J0D01*
G01*
X19703000Y-7968000D02*
G75*
G03*
X19703000Y-7968000I-50000J0D01*
G01*
X19703000Y-8222000D02*
G75*
G03*
X19703000Y-8222000I-50000J0D01*
G01*
X19703000Y-8476000D02*
G75*
G03*
X19703000Y-8476000I-50000J0D01*
G01*
X19703000Y-8730000D02*
G75*
G03*
X19703000Y-8730000I-50000J0D01*
G01*
X19703000Y-8984000D02*
G75*
G03*
X19703000Y-8984000I-50000J0D01*
G01*
X19703000Y-9238000D02*
G75*
G03*
X19703000Y-9238000I-50000J0D01*
G01*
X20450000Y-5414000D02*
G75*
G03*
X20450000Y-5414000I-50000J0D01*
G01*
X20450000Y-5668000D02*
G75*
G03*
X20450000Y-5668000I-50000J0D01*
G01*
X20450000Y-5922000D02*
G75*
G03*
X20450000Y-5922000I-50000J0D01*
G01*
X20450000Y-6176000D02*
G75*
G03*
X20450000Y-6176000I-50000J0D01*
G01*
X20450000Y-6430000D02*
G75*
G03*
X20450000Y-6430000I-50000J0D01*
G01*
X20450000Y-6684000D02*
G75*
G03*
X20450000Y-6684000I-50000J0D01*
G01*
X20450000Y-6938000D02*
G75*
G03*
X20450000Y-6938000I-50000J0D01*
G01*
X20450000Y-7192000D02*
G75*
G03*
X20450000Y-7192000I-50000J0D01*
G01*
X20450000Y-7446000D02*
G75*
G03*
X20450000Y-7446000I-50000J0D01*
G01*
X20450000Y-7700000D02*
G75*
G03*
X20450000Y-7700000I-50000J0D01*
G01*
X20450000Y-7954000D02*
G75*
G03*
X20450000Y-7954000I-50000J0D01*
G01*
X20450000Y-8208000D02*
G75*
G03*
X20450000Y-8208000I-50000J0D01*
G01*
X20450000Y-8462000D02*
G75*
G03*
X20450000Y-8462000I-50000J0D01*
G01*
X20450000Y-8716000D02*
G75*
G03*
X20450000Y-8716000I-50000J0D01*
G01*
X20450000Y-8970000D02*
G75*
G03*
X20450000Y-8970000I-50000J0D01*
G01*
X20450000Y-9224000D02*
G75*
G03*
X20450000Y-9224000I-50000J0D01*
G01*
D14*
X11320000Y-7470500D02*
X11320000Y-7589500D01*
X11260500Y-7530000D02*
X11379500Y-7530000D01*
X11320000Y-7724500D02*
X11320000Y-7843500D01*
X11260500Y-7784000D02*
X11379500Y-7784000D01*
X11320000Y-7978500D02*
X11320000Y-8097500D01*
X11260500Y-8038000D02*
X11379500Y-8038000D01*
X11320000Y-8232500D02*
X11320000Y-8351500D01*
X11260500Y-8292000D02*
X11379500Y-8292000D01*
X12150000Y-8440500D02*
X12150000Y-8559500D01*
X12090500Y-8500000D02*
X12209500Y-8500000D01*
X12404000Y-8440500D02*
X12404000Y-8559500D01*
X12344500Y-8500000D02*
X12463500Y-8500000D01*
X12471000Y-7615500D02*
X12471000Y-7734500D01*
X12411500Y-7675000D02*
X12530500Y-7675000D01*
X12725000Y-7615500D02*
X12725000Y-7734500D01*
X12665500Y-7675000D02*
X12784500Y-7675000D01*
X13026000Y-8454500D02*
X13026000Y-8573500D01*
X12966500Y-8514000D02*
X13085500Y-8514000D01*
X13280000Y-8454500D02*
X13280000Y-8573500D01*
X13220500Y-8514000D02*
X13339500Y-8514000D01*
X13421000Y-7640500D02*
X13421000Y-7759500D01*
X13361500Y-7700000D02*
X13480500Y-7700000D01*
X13675000Y-7640500D02*
X13675000Y-7759500D01*
X13615500Y-7700000D02*
X13734500Y-7700000D01*
X14119000Y-7613500D02*
X14119000Y-7732500D01*
X14059500Y-7673000D02*
X14178500Y-7673000D01*
X14373000Y-7613500D02*
X14373000Y-7732500D01*
X14313500Y-7673000D02*
X14432500Y-7673000D01*
X14627000Y-7613500D02*
X14627000Y-7732500D01*
X14567500Y-7673000D02*
X14686500Y-7673000D01*
X14881000Y-7613500D02*
X14881000Y-7732500D01*
X14821500Y-7673000D02*
X14940500Y-7673000D01*
X15296000Y-7613500D02*
X15296000Y-7732500D01*
X15236500Y-7673000D02*
X15355500Y-7673000D01*
X15550000Y-7613500D02*
X15550000Y-7732500D01*
X15490500Y-7673000D02*
X15609500Y-7673000D01*
X15971000Y-7615500D02*
X15971000Y-7734500D01*
X15911500Y-7675000D02*
X16030500Y-7675000D01*
X16225000Y-7615500D02*
X16225000Y-7734500D01*
X16165500Y-7675000D02*
X16284500Y-7675000D01*
X16346000Y-8540500D02*
X16346000Y-8659500D01*
X16286500Y-8600000D02*
X16405500Y-8600000D01*
X16600000Y-8540500D02*
X16600000Y-8659500D01*
X16540500Y-8600000D02*
X16659500Y-8600000D01*
X16621000Y-7615500D02*
X16621000Y-7734500D01*
X16561500Y-7675000D02*
X16680500Y-7675000D01*
X16854000Y-8540500D02*
X16854000Y-8659500D01*
X16794500Y-8600000D02*
X16913500Y-8600000D01*
X16875000Y-7615500D02*
X16875000Y-7734500D01*
X16815500Y-7675000D02*
X16934500Y-7675000D01*
X17108000Y-8540500D02*
X17108000Y-8659500D01*
X17048500Y-8600000D02*
X17167500Y-8600000D01*
X17296000Y-7590500D02*
X17296000Y-7709500D01*
X17236500Y-7650000D02*
X17355500Y-7650000D01*
X17550000Y-7590500D02*
X17550000Y-7709500D01*
X17490500Y-7650000D02*
X17609500Y-7650000D01*
X17971000Y-7590500D02*
X17971000Y-7709500D01*
X17911500Y-7650000D02*
X18030500Y-7650000D01*
X17971000Y-8540500D02*
X17971000Y-8659500D01*
X17911500Y-8600000D02*
X18030500Y-8600000D01*
X18225000Y-7590500D02*
X18225000Y-7709500D01*
X18165500Y-7650000D02*
X18284500Y-7650000D01*
X18225000Y-8540500D02*
X18225000Y-8659500D01*
X18165500Y-8600000D02*
X18284500Y-8600000D01*
X20600000Y899500D02*
X20600000Y780500D01*
X20540500Y840000D02*
X20659500Y840000D01*
X20600000Y645500D02*
X20600000Y526500D01*
X20540500Y586000D02*
X20659500Y586000D01*
X20600000Y391500D02*
X20600000Y272500D01*
X20540500Y332000D02*
X20659500Y332000D01*
X20600000Y137500D02*
X20600000Y18500D01*
X20540500Y78000D02*
X20659500Y78000D01*
X20600000Y-116500D02*
X20600000Y-235500D01*
X20540500Y-176000D02*
X20659500Y-176000D01*
X20600000Y-370500D02*
X20600000Y-489500D01*
X20540500Y-430000D02*
X20659500Y-430000D01*
X20600000Y-624500D02*
X20600000Y-743500D01*
X20540500Y-684000D02*
X20659500Y-684000D01*
X20600000Y-878500D02*
X20600000Y-997500D01*
X20540500Y-938000D02*
X20659500Y-938000D01*
X20600000Y-1132500D02*
X20600000Y-1251500D01*
X20540500Y-1192000D02*
X20659500Y-1192000D01*
X20600000Y-1386500D02*
X20600000Y-1505500D01*
X20540500Y-1446000D02*
X20659500Y-1446000D01*
X20600000Y-1640500D02*
X20600000Y-1759500D01*
X20540500Y-1700000D02*
X20659500Y-1700000D01*
X20600000Y-1894500D02*
X20600000Y-2013500D01*
X20540500Y-1954000D02*
X20659500Y-1954000D01*
X20600000Y-2148500D02*
X20600000Y-2267500D01*
X20540500Y-2208000D02*
X20659500Y-2208000D01*
X20600000Y-2402500D02*
X20600000Y-2521500D01*
X20540500Y-2462000D02*
X20659500Y-2462000D01*
X20600000Y-2656500D02*
X20600000Y-2775500D01*
X20540500Y-2716000D02*
X20659500Y-2716000D01*
X20600000Y-2910500D02*
X20600000Y-3029500D01*
X20540500Y-2970000D02*
X20659500Y-2970000D01*
X20600000Y-3386500D02*
X20600000Y-3505500D01*
X20540500Y-3446000D02*
X20659500Y-3446000D01*
X20600000Y-3640500D02*
X20600000Y-3759500D01*
X20540500Y-3700000D02*
X20659500Y-3700000D01*
X20600000Y-3894500D02*
X20600000Y-4013500D01*
X20540500Y-3954000D02*
X20659500Y-3954000D01*
X20600000Y-4148500D02*
X20600000Y-4267500D01*
X20540500Y-4208000D02*
X20659500Y-4208000D01*
D15*
X11920460Y-6170460D02*
X11920460Y-5979540D01*
X11729540Y-5979540D01*
X11729540Y-6170460D01*
X11920460Y-6170460D01*
X11920460Y-6670460D02*
X11920460Y-6479540D01*
X11729540Y-6479540D01*
X11729540Y-6670460D01*
X11920460Y-6670460D01*
D16*
X11800000Y925000D02*
X11975000Y1100000D01*
X11800000Y1275000D01*
X11625000Y1100000D01*
X11800000Y925000D01*
X11800000Y920000D02*
X11975000Y1095000D01*
X11800000Y1270000D01*
X11625000Y1095000D01*
X11800000Y920000D01*
X11800000Y-3875000D02*
X11975000Y-3700000D01*
X11800000Y-3525000D01*
X11625000Y-3700000D01*
X11800000Y-3875000D01*
X11800000Y-3880000D02*
X11975000Y-3705000D01*
X11800000Y-3530000D01*
X11625000Y-3705000D01*
X11800000Y-3880000D01*
X18600000Y925000D02*
X18775000Y1100000D01*
X18600000Y1275000D01*
X18425000Y1100000D01*
X18600000Y925000D01*
X18600000Y920000D02*
X18775000Y1095000D01*
X18600000Y1270000D01*
X18425000Y1095000D01*
X18600000Y920000D01*
X18600000Y-3875000D02*
X18775000Y-3700000D01*
X18600000Y-3525000D01*
X18425000Y-3700000D01*
X18600000Y-3875000D01*
X18600000Y-3880000D02*
X18775000Y-3705000D01*
X18600000Y-3530000D01*
X18425000Y-3705000D01*
X18600000Y-3880000D01*
X11325000Y2175000D02*
X11675000Y1825000D01*
X11675000Y2175000D02*
X11325000Y1825000D01*
X11675000Y2000000D02*
G75*
G03*
X11675000Y2000000I-175000J0D01*
G01*
X11325000Y-10325000D02*
X11675000Y-10675000D01*
X11675000Y-10325000D02*
X11325000Y-10675000D01*
X11675000Y-10500000D02*
G75*
G03*
X11675000Y-10500000I-175000J0D01*
G01*
X20325000Y2175000D02*
X20675000Y1825000D01*
X20675000Y2175000D02*
X20325000Y1825000D01*
X20675000Y2000000D02*
G75*
G03*
X20675000Y2000000I-175000J0D01*
G01*
X20325000Y-10325000D02*
X20675000Y-10675000D01*
X20675000Y-10325000D02*
X20325000Y-10675000D01*
X20675000Y-10500000D02*
G75*
G03*
X20675000Y-10500000I-175000J0D01*
G01*
D11*
X11253277Y-11318984D02*
X11253277Y-11118984D01*
X11253277Y-11118984D02*
X11300896Y-11118984D01*
X11300896Y-11118984D02*
X11329467Y-11128508D01*
X11329467Y-11128508D02*
X11348515Y-11147555D01*
X11348515Y-11147555D02*
X11358039Y-11166603D01*
X11358039Y-11166603D02*
X11367562Y-11204698D01*
X11367562Y-11204698D02*
X11367562Y-11233269D01*
X11367562Y-11233269D02*
X11358039Y-11271365D01*
X11358039Y-11271365D02*
X11348515Y-11290412D01*
X11348515Y-11290412D02*
X11329467Y-11309460D01*
X11329467Y-11309460D02*
X11300896Y-11318984D01*
X11300896Y-11318984D02*
X11253277Y-11318984D01*
X11453277Y-11318984D02*
X11453277Y-11185650D01*
X11453277Y-11223746D02*
X11462801Y-11204698D01*
X11462801Y-11204698D02*
X11472324Y-11195174D01*
X11472324Y-11195174D02*
X11491372Y-11185650D01*
X11491372Y-11185650D02*
X11510420Y-11185650D01*
X11577086Y-11318984D02*
X11577086Y-11185650D01*
X11577086Y-11118984D02*
X11567562Y-11128508D01*
X11567562Y-11128508D02*
X11577086Y-11138031D01*
X11577086Y-11138031D02*
X11586610Y-11128508D01*
X11586610Y-11128508D02*
X11577086Y-11118984D01*
X11577086Y-11118984D02*
X11577086Y-11138031D01*
X11700896Y-11318984D02*
X11681848Y-11309460D01*
X11681848Y-11309460D02*
X11672324Y-11290412D01*
X11672324Y-11290412D02*
X11672324Y-11118984D01*
X11805658Y-11318984D02*
X11786610Y-11309460D01*
X11786610Y-11309460D02*
X11777086Y-11290412D01*
X11777086Y-11290412D02*
X11777086Y-11118984D01*
X12034229Y-11318984D02*
X12034229Y-11118984D01*
X12034229Y-11118984D02*
X12100896Y-11261841D01*
X12100896Y-11261841D02*
X12167562Y-11118984D01*
X12167562Y-11118984D02*
X12167562Y-11318984D01*
X12348515Y-11318984D02*
X12348515Y-11214222D01*
X12348515Y-11214222D02*
X12338991Y-11195174D01*
X12338991Y-11195174D02*
X12319943Y-11185650D01*
X12319943Y-11185650D02*
X12281848Y-11185650D01*
X12281848Y-11185650D02*
X12262801Y-11195174D01*
X12348515Y-11309460D02*
X12329467Y-11318984D01*
X12329467Y-11318984D02*
X12281848Y-11318984D01*
X12281848Y-11318984D02*
X12262801Y-11309460D01*
X12262801Y-11309460D02*
X12253277Y-11290412D01*
X12253277Y-11290412D02*
X12253277Y-11271365D01*
X12253277Y-11271365D02*
X12262801Y-11252317D01*
X12262801Y-11252317D02*
X12281848Y-11242793D01*
X12281848Y-11242793D02*
X12329467Y-11242793D01*
X12329467Y-11242793D02*
X12348515Y-11233269D01*
X12443753Y-11185650D02*
X12443753Y-11385650D01*
X12443753Y-11195174D02*
X12462801Y-11185650D01*
X12462801Y-11185650D02*
X12500896Y-11185650D01*
X12500896Y-11185650D02*
X12519943Y-11195174D01*
X12519943Y-11195174D02*
X12529467Y-11204698D01*
X12529467Y-11204698D02*
X12538991Y-11223746D01*
X12538991Y-11223746D02*
X12538991Y-11280888D01*
X12538991Y-11280888D02*
X12529467Y-11299936D01*
X12529467Y-11299936D02*
X12519943Y-11309460D01*
X12519943Y-11309460D02*
X12500896Y-11318984D01*
X12500896Y-11318984D02*
X12462801Y-11318984D01*
X12462801Y-11318984D02*
X12443753Y-11309460D01*
X12624705Y-11299936D02*
X12634229Y-11309460D01*
X12634229Y-11309460D02*
X12624705Y-11318984D01*
X12624705Y-11318984D02*
X12615182Y-11309460D01*
X12615182Y-11309460D02*
X12624705Y-11299936D01*
X12624705Y-11299936D02*
X12624705Y-11318984D01*
X12624705Y-11195174D02*
X12634229Y-11204698D01*
X12634229Y-11204698D02*
X12624705Y-11214222D01*
X12624705Y-11214222D02*
X12615182Y-11204698D01*
X12615182Y-11204698D02*
X12624705Y-11195174D01*
X12624705Y-11195174D02*
X12624705Y-11214222D01*
D12*
X10952500Y-11627500D02*
X10992500Y-11667500D01*
X10992500Y-11627500D02*
X10952500Y-11667500D01*
D11*
X11291372Y-11538984D02*
X11310420Y-11538984D01*
X11310420Y-11538984D02*
X11329467Y-11548508D01*
X11329467Y-11548508D02*
X11338991Y-11558031D01*
X11338991Y-11558031D02*
X11348515Y-11577079D01*
X11348515Y-11577079D02*
X11358039Y-11615174D01*
X11358039Y-11615174D02*
X11358039Y-11662793D01*
X11358039Y-11662793D02*
X11348515Y-11700888D01*
X11348515Y-11700888D02*
X11338991Y-11719936D01*
X11338991Y-11719936D02*
X11329467Y-11729460D01*
X11329467Y-11729460D02*
X11310420Y-11738984D01*
X11310420Y-11738984D02*
X11291372Y-11738984D01*
X11291372Y-11738984D02*
X11272324Y-11729460D01*
X11272324Y-11729460D02*
X11262801Y-11719936D01*
X11262801Y-11719936D02*
X11253277Y-11700888D01*
X11253277Y-11700888D02*
X11243753Y-11662793D01*
X11243753Y-11662793D02*
X11243753Y-11615174D01*
X11243753Y-11615174D02*
X11253277Y-11577079D01*
X11253277Y-11577079D02*
X11262801Y-11558031D01*
X11262801Y-11558031D02*
X11272324Y-11548508D01*
X11272324Y-11548508D02*
X11291372Y-11538984D01*
X11443753Y-11719936D02*
X11453277Y-11729460D01*
X11453277Y-11729460D02*
X11443753Y-11738984D01*
X11443753Y-11738984D02*
X11434229Y-11729460D01*
X11434229Y-11729460D02*
X11443753Y-11719936D01*
X11443753Y-11719936D02*
X11443753Y-11738984D01*
X11624705Y-11605650D02*
X11624705Y-11738984D01*
X11577086Y-11529460D02*
X11529467Y-11672317D01*
X11529467Y-11672317D02*
X11653277Y-11672317D01*
X11767562Y-11538984D02*
X11786610Y-11538984D01*
X11786610Y-11538984D02*
X11805658Y-11548508D01*
X11805658Y-11548508D02*
X11815182Y-11558031D01*
X11815182Y-11558031D02*
X11824705Y-11577079D01*
X11824705Y-11577079D02*
X11834229Y-11615174D01*
X11834229Y-11615174D02*
X11834229Y-11662793D01*
X11834229Y-11662793D02*
X11824705Y-11700888D01*
X11824705Y-11700888D02*
X11815182Y-11719936D01*
X11815182Y-11719936D02*
X11805658Y-11729460D01*
X11805658Y-11729460D02*
X11786610Y-11738984D01*
X11786610Y-11738984D02*
X11767562Y-11738984D01*
X11767562Y-11738984D02*
X11748515Y-11729460D01*
X11748515Y-11729460D02*
X11738991Y-11719936D01*
X11738991Y-11719936D02*
X11729467Y-11700888D01*
X11729467Y-11700888D02*
X11719943Y-11662793D01*
X11719943Y-11662793D02*
X11719943Y-11615174D01*
X11719943Y-11615174D02*
X11729467Y-11577079D01*
X11729467Y-11577079D02*
X11738991Y-11558031D01*
X11738991Y-11558031D02*
X11748515Y-11548508D01*
X11748515Y-11548508D02*
X11767562Y-11538984D01*
X11958039Y-11538984D02*
X11977086Y-11538984D01*
X11977086Y-11538984D02*
X11996134Y-11548508D01*
X11996134Y-11548508D02*
X12005658Y-11558031D01*
X12005658Y-11558031D02*
X12015182Y-11577079D01*
X12015182Y-11577079D02*
X12024705Y-11615174D01*
X12024705Y-11615174D02*
X12024705Y-11662793D01*
X12024705Y-11662793D02*
X12015182Y-11700888D01*
X12015182Y-11700888D02*
X12005658Y-11719936D01*
X12005658Y-11719936D02*
X11996134Y-11729460D01*
X11996134Y-11729460D02*
X11977086Y-11738984D01*
X11977086Y-11738984D02*
X11958039Y-11738984D01*
X11958039Y-11738984D02*
X11938991Y-11729460D01*
X11938991Y-11729460D02*
X11929467Y-11719936D01*
X11929467Y-11719936D02*
X11919943Y-11700888D01*
X11919943Y-11700888D02*
X11910420Y-11662793D01*
X11910420Y-11662793D02*
X11910420Y-11615174D01*
X11910420Y-11615174D02*
X11919943Y-11577079D01*
X11919943Y-11577079D02*
X11929467Y-11558031D01*
X11929467Y-11558031D02*
X11938991Y-11548508D01*
X11938991Y-11548508D02*
X11958039Y-11538984D01*
X12110420Y-11738984D02*
X12110420Y-11605650D01*
X12110420Y-11624698D02*
X12119943Y-11615174D01*
X12119943Y-11615174D02*
X12138991Y-11605650D01*
X12138991Y-11605650D02*
X12167563Y-11605650D01*
X12167563Y-11605650D02*
X12186610Y-11615174D01*
X12186610Y-11615174D02*
X12196134Y-11634222D01*
X12196134Y-11634222D02*
X12196134Y-11738984D01*
X12196134Y-11634222D02*
X12205658Y-11615174D01*
X12205658Y-11615174D02*
X12224705Y-11605650D01*
X12224705Y-11605650D02*
X12253277Y-11605650D01*
X12253277Y-11605650D02*
X12272324Y-11615174D01*
X12272324Y-11615174D02*
X12281848Y-11634222D01*
X12281848Y-11634222D02*
X12281848Y-11738984D01*
X12377086Y-11738984D02*
X12377086Y-11605650D01*
X12377086Y-11624698D02*
X12386610Y-11615174D01*
X12386610Y-11615174D02*
X12405658Y-11605650D01*
X12405658Y-11605650D02*
X12434229Y-11605650D01*
X12434229Y-11605650D02*
X12453277Y-11615174D01*
X12453277Y-11615174D02*
X12462801Y-11634222D01*
X12462801Y-11634222D02*
X12462801Y-11738984D01*
X12462801Y-11634222D02*
X12472324Y-11615174D01*
X12472324Y-11615174D02*
X12491372Y-11605650D01*
X12491372Y-11605650D02*
X12519943Y-11605650D01*
X12519943Y-11605650D02*
X12538991Y-11615174D01*
X12538991Y-11615174D02*
X12548515Y-11634222D01*
X12548515Y-11634222D02*
X12548515Y-11738984D01*
X12938991Y-11529460D02*
X12767563Y-11786603D01*
X13196134Y-11538984D02*
X13215182Y-11538984D01*
X13215182Y-11538984D02*
X13234229Y-11548508D01*
X13234229Y-11548508D02*
X13243753Y-11558031D01*
X13243753Y-11558031D02*
X13253277Y-11577079D01*
X13253277Y-11577079D02*
X13262801Y-11615174D01*
X13262801Y-11615174D02*
X13262801Y-11662793D01*
X13262801Y-11662793D02*
X13253277Y-11700888D01*
X13253277Y-11700888D02*
X13243753Y-11719936D01*
X13243753Y-11719936D02*
X13234229Y-11729460D01*
X13234229Y-11729460D02*
X13215182Y-11738984D01*
X13215182Y-11738984D02*
X13196134Y-11738984D01*
X13196134Y-11738984D02*
X13177086Y-11729460D01*
X13177086Y-11729460D02*
X13167563Y-11719936D01*
X13167563Y-11719936D02*
X13158039Y-11700888D01*
X13158039Y-11700888D02*
X13148515Y-11662793D01*
X13148515Y-11662793D02*
X13148515Y-11615174D01*
X13148515Y-11615174D02*
X13158039Y-11577079D01*
X13158039Y-11577079D02*
X13167563Y-11558031D01*
X13167563Y-11558031D02*
X13177086Y-11548508D01*
X13177086Y-11548508D02*
X13196134Y-11538984D01*
X13348515Y-11719936D02*
X13358039Y-11729460D01*
X13358039Y-11729460D02*
X13348515Y-11738984D01*
X13348515Y-11738984D02*
X13338991Y-11729460D01*
X13338991Y-11729460D02*
X13348515Y-11719936D01*
X13348515Y-11719936D02*
X13348515Y-11738984D01*
X13481848Y-11538984D02*
X13500896Y-11538984D01*
X13500896Y-11538984D02*
X13519944Y-11548508D01*
X13519944Y-11548508D02*
X13529467Y-11558031D01*
X13529467Y-11558031D02*
X13538991Y-11577079D01*
X13538991Y-11577079D02*
X13548515Y-11615174D01*
X13548515Y-11615174D02*
X13548515Y-11662793D01*
X13548515Y-11662793D02*
X13538991Y-11700888D01*
X13538991Y-11700888D02*
X13529467Y-11719936D01*
X13529467Y-11719936D02*
X13519944Y-11729460D01*
X13519944Y-11729460D02*
X13500896Y-11738984D01*
X13500896Y-11738984D02*
X13481848Y-11738984D01*
X13481848Y-11738984D02*
X13462801Y-11729460D01*
X13462801Y-11729460D02*
X13453277Y-11719936D01*
X13453277Y-11719936D02*
X13443753Y-11700888D01*
X13443753Y-11700888D02*
X13434229Y-11662793D01*
X13434229Y-11662793D02*
X13434229Y-11615174D01*
X13434229Y-11615174D02*
X13443753Y-11577079D01*
X13443753Y-11577079D02*
X13453277Y-11558031D01*
X13453277Y-11558031D02*
X13462801Y-11548508D01*
X13462801Y-11548508D02*
X13481848Y-11538984D01*
X13738991Y-11738984D02*
X13624706Y-11738984D01*
X13681848Y-11738984D02*
X13681848Y-11538984D01*
X13681848Y-11538984D02*
X13662801Y-11567555D01*
X13662801Y-11567555D02*
X13643753Y-11586603D01*
X13643753Y-11586603D02*
X13624706Y-11596127D01*
X13919944Y-11538984D02*
X13824706Y-11538984D01*
X13824706Y-11538984D02*
X13815182Y-11634222D01*
X13815182Y-11634222D02*
X13824706Y-11624698D01*
X13824706Y-11624698D02*
X13843753Y-11615174D01*
X13843753Y-11615174D02*
X13891372Y-11615174D01*
X13891372Y-11615174D02*
X13910420Y-11624698D01*
X13910420Y-11624698D02*
X13919944Y-11634222D01*
X13919944Y-11634222D02*
X13929467Y-11653269D01*
X13929467Y-11653269D02*
X13929467Y-11700888D01*
X13929467Y-11700888D02*
X13919944Y-11719936D01*
X13919944Y-11719936D02*
X13910420Y-11729460D01*
X13910420Y-11729460D02*
X13891372Y-11738984D01*
X13891372Y-11738984D02*
X13843753Y-11738984D01*
X13843753Y-11738984D02*
X13824706Y-11729460D01*
X13824706Y-11729460D02*
X13815182Y-11719936D01*
X13996134Y-11538984D02*
X14129467Y-11538984D01*
X14129467Y-11538984D02*
X14043753Y-11738984D01*
X14196134Y-11538984D02*
X14196134Y-11577079D01*
X14272325Y-11538984D02*
X14272325Y-11577079D01*
X14567563Y-11815174D02*
X14558039Y-11805650D01*
X14558039Y-11805650D02*
X14538991Y-11777079D01*
X14538991Y-11777079D02*
X14529468Y-11758031D01*
X14529468Y-11758031D02*
X14519944Y-11729460D01*
X14519944Y-11729460D02*
X14510420Y-11681841D01*
X14510420Y-11681841D02*
X14510420Y-11643746D01*
X14510420Y-11643746D02*
X14519944Y-11596127D01*
X14519944Y-11596127D02*
X14529468Y-11567555D01*
X14529468Y-11567555D02*
X14538991Y-11548508D01*
X14538991Y-11548508D02*
X14558039Y-11519936D01*
X14558039Y-11519936D02*
X14567563Y-11510412D01*
X14624706Y-11538984D02*
X14748515Y-11538984D01*
X14748515Y-11538984D02*
X14681848Y-11615174D01*
X14681848Y-11615174D02*
X14710420Y-11615174D01*
X14710420Y-11615174D02*
X14729468Y-11624698D01*
X14729468Y-11624698D02*
X14738991Y-11634222D01*
X14738991Y-11634222D02*
X14748515Y-11653269D01*
X14748515Y-11653269D02*
X14748515Y-11700888D01*
X14748515Y-11700888D02*
X14738991Y-11719936D01*
X14738991Y-11719936D02*
X14729468Y-11729460D01*
X14729468Y-11729460D02*
X14710420Y-11738984D01*
X14710420Y-11738984D02*
X14653277Y-11738984D01*
X14653277Y-11738984D02*
X14634229Y-11729460D01*
X14634229Y-11729460D02*
X14624706Y-11719936D01*
X14872325Y-11538984D02*
X14891372Y-11538984D01*
X14891372Y-11538984D02*
X14910420Y-11548508D01*
X14910420Y-11548508D02*
X14919944Y-11558031D01*
X14919944Y-11558031D02*
X14929468Y-11577079D01*
X14929468Y-11577079D02*
X14938991Y-11615174D01*
X14938991Y-11615174D02*
X14938991Y-11662793D01*
X14938991Y-11662793D02*
X14929468Y-11700888D01*
X14929468Y-11700888D02*
X14919944Y-11719936D01*
X14919944Y-11719936D02*
X14910420Y-11729460D01*
X14910420Y-11729460D02*
X14891372Y-11738984D01*
X14891372Y-11738984D02*
X14872325Y-11738984D01*
X14872325Y-11738984D02*
X14853277Y-11729460D01*
X14853277Y-11729460D02*
X14843753Y-11719936D01*
X14843753Y-11719936D02*
X14834229Y-11700888D01*
X14834229Y-11700888D02*
X14824706Y-11662793D01*
X14824706Y-11662793D02*
X14824706Y-11615174D01*
X14824706Y-11615174D02*
X14834229Y-11577079D01*
X14834229Y-11577079D02*
X14843753Y-11558031D01*
X14843753Y-11558031D02*
X14853277Y-11548508D01*
X14853277Y-11548508D02*
X14872325Y-11538984D01*
X15177087Y-11738984D02*
X15177087Y-11538984D01*
X15262801Y-11738984D02*
X15262801Y-11634222D01*
X15262801Y-11634222D02*
X15253277Y-11615174D01*
X15253277Y-11615174D02*
X15234230Y-11605650D01*
X15234230Y-11605650D02*
X15205658Y-11605650D01*
X15205658Y-11605650D02*
X15186610Y-11615174D01*
X15186610Y-11615174D02*
X15177087Y-11624698D01*
X15386610Y-11738984D02*
X15367563Y-11729460D01*
X15367563Y-11729460D02*
X15358039Y-11719936D01*
X15358039Y-11719936D02*
X15348515Y-11700888D01*
X15348515Y-11700888D02*
X15348515Y-11643746D01*
X15348515Y-11643746D02*
X15358039Y-11624698D01*
X15358039Y-11624698D02*
X15367563Y-11615174D01*
X15367563Y-11615174D02*
X15386610Y-11605650D01*
X15386610Y-11605650D02*
X15415182Y-11605650D01*
X15415182Y-11605650D02*
X15434230Y-11615174D01*
X15434230Y-11615174D02*
X15443753Y-11624698D01*
X15443753Y-11624698D02*
X15453277Y-11643746D01*
X15453277Y-11643746D02*
X15453277Y-11700888D01*
X15453277Y-11700888D02*
X15443753Y-11719936D01*
X15443753Y-11719936D02*
X15434230Y-11729460D01*
X15434230Y-11729460D02*
X15415182Y-11738984D01*
X15415182Y-11738984D02*
X15386610Y-11738984D01*
X15567563Y-11738984D02*
X15548515Y-11729460D01*
X15548515Y-11729460D02*
X15538991Y-11710412D01*
X15538991Y-11710412D02*
X15538991Y-11538984D01*
X15719944Y-11729460D02*
X15700896Y-11738984D01*
X15700896Y-11738984D02*
X15662801Y-11738984D01*
X15662801Y-11738984D02*
X15643753Y-11729460D01*
X15643753Y-11729460D02*
X15634230Y-11710412D01*
X15634230Y-11710412D02*
X15634230Y-11634222D01*
X15634230Y-11634222D02*
X15643753Y-11615174D01*
X15643753Y-11615174D02*
X15662801Y-11605650D01*
X15662801Y-11605650D02*
X15700896Y-11605650D01*
X15700896Y-11605650D02*
X15719944Y-11615174D01*
X15719944Y-11615174D02*
X15729468Y-11634222D01*
X15729468Y-11634222D02*
X15729468Y-11653269D01*
X15729468Y-11653269D02*
X15634230Y-11672317D01*
X15805658Y-11729460D02*
X15824706Y-11738984D01*
X15824706Y-11738984D02*
X15862801Y-11738984D01*
X15862801Y-11738984D02*
X15881849Y-11729460D01*
X15881849Y-11729460D02*
X15891372Y-11710412D01*
X15891372Y-11710412D02*
X15891372Y-11700888D01*
X15891372Y-11700888D02*
X15881849Y-11681841D01*
X15881849Y-11681841D02*
X15862801Y-11672317D01*
X15862801Y-11672317D02*
X15834230Y-11672317D01*
X15834230Y-11672317D02*
X15815182Y-11662793D01*
X15815182Y-11662793D02*
X15805658Y-11643746D01*
X15805658Y-11643746D02*
X15805658Y-11634222D01*
X15805658Y-11634222D02*
X15815182Y-11615174D01*
X15815182Y-11615174D02*
X15834230Y-11605650D01*
X15834230Y-11605650D02*
X15862801Y-11605650D01*
X15862801Y-11605650D02*
X15881849Y-11615174D01*
X15958039Y-11815174D02*
X15967563Y-11805650D01*
X15967563Y-11805650D02*
X15986611Y-11777079D01*
X15986611Y-11777079D02*
X15996134Y-11758031D01*
X15996134Y-11758031D02*
X16005658Y-11729460D01*
X16005658Y-11729460D02*
X16015182Y-11681841D01*
X16015182Y-11681841D02*
X16015182Y-11643746D01*
X16015182Y-11643746D02*
X16005658Y-11596127D01*
X16005658Y-11596127D02*
X15996134Y-11567555D01*
X15996134Y-11567555D02*
X15986611Y-11548508D01*
X15986611Y-11548508D02*
X15967563Y-11519936D01*
X15967563Y-11519936D02*
X15958039Y-11510412D01*
D13*
X10992500Y-11911500D02*
G75*
G03*
X10992500Y-11911500I-50000J0D01*
G01*
D11*
X11358039Y-12002984D02*
X11243753Y-12002984D01*
X11300896Y-12002984D02*
X11300896Y-11802984D01*
X11300896Y-11802984D02*
X11281848Y-11831555D01*
X11281848Y-11831555D02*
X11262801Y-11850603D01*
X11262801Y-11850603D02*
X11243753Y-11860127D01*
X11443753Y-11983936D02*
X11453277Y-11993460D01*
X11453277Y-11993460D02*
X11443753Y-12002984D01*
X11443753Y-12002984D02*
X11434229Y-11993460D01*
X11434229Y-11993460D02*
X11443753Y-11983936D01*
X11443753Y-11983936D02*
X11443753Y-12002984D01*
X11577086Y-11802984D02*
X11596134Y-11802984D01*
X11596134Y-11802984D02*
X11615182Y-11812508D01*
X11615182Y-11812508D02*
X11624705Y-11822031D01*
X11624705Y-11822031D02*
X11634229Y-11841079D01*
X11634229Y-11841079D02*
X11643753Y-11879174D01*
X11643753Y-11879174D02*
X11643753Y-11926793D01*
X11643753Y-11926793D02*
X11634229Y-11964888D01*
X11634229Y-11964888D02*
X11624705Y-11983936D01*
X11624705Y-11983936D02*
X11615182Y-11993460D01*
X11615182Y-11993460D02*
X11596134Y-12002984D01*
X11596134Y-12002984D02*
X11577086Y-12002984D01*
X11577086Y-12002984D02*
X11558039Y-11993460D01*
X11558039Y-11993460D02*
X11548515Y-11983936D01*
X11548515Y-11983936D02*
X11538991Y-11964888D01*
X11538991Y-11964888D02*
X11529467Y-11926793D01*
X11529467Y-11926793D02*
X11529467Y-11879174D01*
X11529467Y-11879174D02*
X11538991Y-11841079D01*
X11538991Y-11841079D02*
X11548515Y-11822031D01*
X11548515Y-11822031D02*
X11558039Y-11812508D01*
X11558039Y-11812508D02*
X11577086Y-11802984D01*
X11767562Y-11802984D02*
X11786610Y-11802984D01*
X11786610Y-11802984D02*
X11805658Y-11812508D01*
X11805658Y-11812508D02*
X11815182Y-11822031D01*
X11815182Y-11822031D02*
X11824705Y-11841079D01*
X11824705Y-11841079D02*
X11834229Y-11879174D01*
X11834229Y-11879174D02*
X11834229Y-11926793D01*
X11834229Y-11926793D02*
X11824705Y-11964888D01*
X11824705Y-11964888D02*
X11815182Y-11983936D01*
X11815182Y-11983936D02*
X11805658Y-11993460D01*
X11805658Y-11993460D02*
X11786610Y-12002984D01*
X11786610Y-12002984D02*
X11767562Y-12002984D01*
X11767562Y-12002984D02*
X11748515Y-11993460D01*
X11748515Y-11993460D02*
X11738991Y-11983936D01*
X11738991Y-11983936D02*
X11729467Y-11964888D01*
X11729467Y-11964888D02*
X11719943Y-11926793D01*
X11719943Y-11926793D02*
X11719943Y-11879174D01*
X11719943Y-11879174D02*
X11729467Y-11841079D01*
X11729467Y-11841079D02*
X11738991Y-11822031D01*
X11738991Y-11822031D02*
X11748515Y-11812508D01*
X11748515Y-11812508D02*
X11767562Y-11802984D01*
X11958039Y-11802984D02*
X11977086Y-11802984D01*
X11977086Y-11802984D02*
X11996134Y-11812508D01*
X11996134Y-11812508D02*
X12005658Y-11822031D01*
X12005658Y-11822031D02*
X12015182Y-11841079D01*
X12015182Y-11841079D02*
X12024705Y-11879174D01*
X12024705Y-11879174D02*
X12024705Y-11926793D01*
X12024705Y-11926793D02*
X12015182Y-11964888D01*
X12015182Y-11964888D02*
X12005658Y-11983936D01*
X12005658Y-11983936D02*
X11996134Y-11993460D01*
X11996134Y-11993460D02*
X11977086Y-12002984D01*
X11977086Y-12002984D02*
X11958039Y-12002984D01*
X11958039Y-12002984D02*
X11938991Y-11993460D01*
X11938991Y-11993460D02*
X11929467Y-11983936D01*
X11929467Y-11983936D02*
X11919943Y-11964888D01*
X11919943Y-11964888D02*
X11910420Y-11926793D01*
X11910420Y-11926793D02*
X11910420Y-11879174D01*
X11910420Y-11879174D02*
X11919943Y-11841079D01*
X11919943Y-11841079D02*
X11929467Y-11822031D01*
X11929467Y-11822031D02*
X11938991Y-11812508D01*
X11938991Y-11812508D02*
X11958039Y-11802984D01*
X12110420Y-12002984D02*
X12110420Y-11869650D01*
X12110420Y-11888698D02*
X12119943Y-11879174D01*
X12119943Y-11879174D02*
X12138991Y-11869650D01*
X12138991Y-11869650D02*
X12167563Y-11869650D01*
X12167563Y-11869650D02*
X12186610Y-11879174D01*
X12186610Y-11879174D02*
X12196134Y-11898222D01*
X12196134Y-11898222D02*
X12196134Y-12002984D01*
X12196134Y-11898222D02*
X12205658Y-11879174D01*
X12205658Y-11879174D02*
X12224705Y-11869650D01*
X12224705Y-11869650D02*
X12253277Y-11869650D01*
X12253277Y-11869650D02*
X12272324Y-11879174D01*
X12272324Y-11879174D02*
X12281848Y-11898222D01*
X12281848Y-11898222D02*
X12281848Y-12002984D01*
X12377086Y-12002984D02*
X12377086Y-11869650D01*
X12377086Y-11888698D02*
X12386610Y-11879174D01*
X12386610Y-11879174D02*
X12405658Y-11869650D01*
X12405658Y-11869650D02*
X12434229Y-11869650D01*
X12434229Y-11869650D02*
X12453277Y-11879174D01*
X12453277Y-11879174D02*
X12462801Y-11898222D01*
X12462801Y-11898222D02*
X12462801Y-12002984D01*
X12462801Y-11898222D02*
X12472324Y-11879174D01*
X12472324Y-11879174D02*
X12491372Y-11869650D01*
X12491372Y-11869650D02*
X12519943Y-11869650D01*
X12519943Y-11869650D02*
X12538991Y-11879174D01*
X12538991Y-11879174D02*
X12548515Y-11898222D01*
X12548515Y-11898222D02*
X12548515Y-12002984D01*
X12938991Y-11793460D02*
X12767563Y-12050603D01*
X13196134Y-11802984D02*
X13215182Y-11802984D01*
X13215182Y-11802984D02*
X13234229Y-11812508D01*
X13234229Y-11812508D02*
X13243753Y-11822031D01*
X13243753Y-11822031D02*
X13253277Y-11841079D01*
X13253277Y-11841079D02*
X13262801Y-11879174D01*
X13262801Y-11879174D02*
X13262801Y-11926793D01*
X13262801Y-11926793D02*
X13253277Y-11964888D01*
X13253277Y-11964888D02*
X13243753Y-11983936D01*
X13243753Y-11983936D02*
X13234229Y-11993460D01*
X13234229Y-11993460D02*
X13215182Y-12002984D01*
X13215182Y-12002984D02*
X13196134Y-12002984D01*
X13196134Y-12002984D02*
X13177086Y-11993460D01*
X13177086Y-11993460D02*
X13167563Y-11983936D01*
X13167563Y-11983936D02*
X13158039Y-11964888D01*
X13158039Y-11964888D02*
X13148515Y-11926793D01*
X13148515Y-11926793D02*
X13148515Y-11879174D01*
X13148515Y-11879174D02*
X13158039Y-11841079D01*
X13158039Y-11841079D02*
X13167563Y-11822031D01*
X13167563Y-11822031D02*
X13177086Y-11812508D01*
X13177086Y-11812508D02*
X13196134Y-11802984D01*
X13348515Y-11983936D02*
X13358039Y-11993460D01*
X13358039Y-11993460D02*
X13348515Y-12002984D01*
X13348515Y-12002984D02*
X13338991Y-11993460D01*
X13338991Y-11993460D02*
X13348515Y-11983936D01*
X13348515Y-11983936D02*
X13348515Y-12002984D01*
X13481848Y-11802984D02*
X13500896Y-11802984D01*
X13500896Y-11802984D02*
X13519944Y-11812508D01*
X13519944Y-11812508D02*
X13529467Y-11822031D01*
X13529467Y-11822031D02*
X13538991Y-11841079D01*
X13538991Y-11841079D02*
X13548515Y-11879174D01*
X13548515Y-11879174D02*
X13548515Y-11926793D01*
X13548515Y-11926793D02*
X13538991Y-11964888D01*
X13538991Y-11964888D02*
X13529467Y-11983936D01*
X13529467Y-11983936D02*
X13519944Y-11993460D01*
X13519944Y-11993460D02*
X13500896Y-12002984D01*
X13500896Y-12002984D02*
X13481848Y-12002984D01*
X13481848Y-12002984D02*
X13462801Y-11993460D01*
X13462801Y-11993460D02*
X13453277Y-11983936D01*
X13453277Y-11983936D02*
X13443753Y-11964888D01*
X13443753Y-11964888D02*
X13434229Y-11926793D01*
X13434229Y-11926793D02*
X13434229Y-11879174D01*
X13434229Y-11879174D02*
X13443753Y-11841079D01*
X13443753Y-11841079D02*
X13453277Y-11822031D01*
X13453277Y-11822031D02*
X13462801Y-11812508D01*
X13462801Y-11812508D02*
X13481848Y-11802984D01*
X13615182Y-11802984D02*
X13738991Y-11802984D01*
X13738991Y-11802984D02*
X13672325Y-11879174D01*
X13672325Y-11879174D02*
X13700896Y-11879174D01*
X13700896Y-11879174D02*
X13719944Y-11888698D01*
X13719944Y-11888698D02*
X13729467Y-11898222D01*
X13729467Y-11898222D02*
X13738991Y-11917269D01*
X13738991Y-11917269D02*
X13738991Y-11964888D01*
X13738991Y-11964888D02*
X13729467Y-11983936D01*
X13729467Y-11983936D02*
X13719944Y-11993460D01*
X13719944Y-11993460D02*
X13700896Y-12002984D01*
X13700896Y-12002984D02*
X13643753Y-12002984D01*
X13643753Y-12002984D02*
X13624706Y-11993460D01*
X13624706Y-11993460D02*
X13615182Y-11983936D01*
X13834229Y-12002984D02*
X13872325Y-12002984D01*
X13872325Y-12002984D02*
X13891372Y-11993460D01*
X13891372Y-11993460D02*
X13900896Y-11983936D01*
X13900896Y-11983936D02*
X13919944Y-11955365D01*
X13919944Y-11955365D02*
X13929467Y-11917269D01*
X13929467Y-11917269D02*
X13929467Y-11841079D01*
X13929467Y-11841079D02*
X13919944Y-11822031D01*
X13919944Y-11822031D02*
X13910420Y-11812508D01*
X13910420Y-11812508D02*
X13891372Y-11802984D01*
X13891372Y-11802984D02*
X13853277Y-11802984D01*
X13853277Y-11802984D02*
X13834229Y-11812508D01*
X13834229Y-11812508D02*
X13824706Y-11822031D01*
X13824706Y-11822031D02*
X13815182Y-11841079D01*
X13815182Y-11841079D02*
X13815182Y-11888698D01*
X13815182Y-11888698D02*
X13824706Y-11907746D01*
X13824706Y-11907746D02*
X13834229Y-11917269D01*
X13834229Y-11917269D02*
X13853277Y-11926793D01*
X13853277Y-11926793D02*
X13891372Y-11926793D01*
X13891372Y-11926793D02*
X13910420Y-11917269D01*
X13910420Y-11917269D02*
X13919944Y-11907746D01*
X13919944Y-11907746D02*
X13929467Y-11888698D01*
X14100896Y-11869650D02*
X14100896Y-12002984D01*
X14053277Y-11793460D02*
X14005658Y-11936317D01*
X14005658Y-11936317D02*
X14129467Y-11936317D01*
X14196134Y-11802984D02*
X14196134Y-11841079D01*
X14272325Y-11802984D02*
X14272325Y-11841079D01*
X14567563Y-12079174D02*
X14558039Y-12069650D01*
X14558039Y-12069650D02*
X14538991Y-12041079D01*
X14538991Y-12041079D02*
X14529468Y-12022031D01*
X14529468Y-12022031D02*
X14519944Y-11993460D01*
X14519944Y-11993460D02*
X14510420Y-11945841D01*
X14510420Y-11945841D02*
X14510420Y-11907746D01*
X14510420Y-11907746D02*
X14519944Y-11860127D01*
X14519944Y-11860127D02*
X14529468Y-11831555D01*
X14529468Y-11831555D02*
X14538991Y-11812508D01*
X14538991Y-11812508D02*
X14558039Y-11783936D01*
X14558039Y-11783936D02*
X14567563Y-11774412D01*
X14748515Y-12002984D02*
X14634229Y-12002984D01*
X14691372Y-12002984D02*
X14691372Y-11802984D01*
X14691372Y-11802984D02*
X14672325Y-11831555D01*
X14672325Y-11831555D02*
X14653277Y-11850603D01*
X14653277Y-11850603D02*
X14634229Y-11860127D01*
X14862801Y-11888698D02*
X14843753Y-11879174D01*
X14843753Y-11879174D02*
X14834229Y-11869650D01*
X14834229Y-11869650D02*
X14824706Y-11850603D01*
X14824706Y-11850603D02*
X14824706Y-11841079D01*
X14824706Y-11841079D02*
X14834229Y-11822031D01*
X14834229Y-11822031D02*
X14843753Y-11812508D01*
X14843753Y-11812508D02*
X14862801Y-11802984D01*
X14862801Y-11802984D02*
X14900896Y-11802984D01*
X14900896Y-11802984D02*
X14919944Y-11812508D01*
X14919944Y-11812508D02*
X14929468Y-11822031D01*
X14929468Y-11822031D02*
X14938991Y-11841079D01*
X14938991Y-11841079D02*
X14938991Y-11850603D01*
X14938991Y-11850603D02*
X14929468Y-11869650D01*
X14929468Y-11869650D02*
X14919944Y-11879174D01*
X14919944Y-11879174D02*
X14900896Y-11888698D01*
X14900896Y-11888698D02*
X14862801Y-11888698D01*
X14862801Y-11888698D02*
X14843753Y-11898222D01*
X14843753Y-11898222D02*
X14834229Y-11907746D01*
X14834229Y-11907746D02*
X14824706Y-11926793D01*
X14824706Y-11926793D02*
X14824706Y-11964888D01*
X14824706Y-11964888D02*
X14834229Y-11983936D01*
X14834229Y-11983936D02*
X14843753Y-11993460D01*
X14843753Y-11993460D02*
X14862801Y-12002984D01*
X14862801Y-12002984D02*
X14900896Y-12002984D01*
X14900896Y-12002984D02*
X14919944Y-11993460D01*
X14919944Y-11993460D02*
X14929468Y-11983936D01*
X14929468Y-11983936D02*
X14938991Y-11964888D01*
X14938991Y-11964888D02*
X14938991Y-11926793D01*
X14938991Y-11926793D02*
X14929468Y-11907746D01*
X14929468Y-11907746D02*
X14919944Y-11898222D01*
X14919944Y-11898222D02*
X14900896Y-11888698D01*
X15062801Y-11802984D02*
X15081849Y-11802984D01*
X15081849Y-11802984D02*
X15100896Y-11812508D01*
X15100896Y-11812508D02*
X15110420Y-11822031D01*
X15110420Y-11822031D02*
X15119944Y-11841079D01*
X15119944Y-11841079D02*
X15129468Y-11879174D01*
X15129468Y-11879174D02*
X15129468Y-11926793D01*
X15129468Y-11926793D02*
X15119944Y-11964888D01*
X15119944Y-11964888D02*
X15110420Y-11983936D01*
X15110420Y-11983936D02*
X15100896Y-11993460D01*
X15100896Y-11993460D02*
X15081849Y-12002984D01*
X15081849Y-12002984D02*
X15062801Y-12002984D01*
X15062801Y-12002984D02*
X15043753Y-11993460D01*
X15043753Y-11993460D02*
X15034229Y-11983936D01*
X15034229Y-11983936D02*
X15024706Y-11964888D01*
X15024706Y-11964888D02*
X15015182Y-11926793D01*
X15015182Y-11926793D02*
X15015182Y-11879174D01*
X15015182Y-11879174D02*
X15024706Y-11841079D01*
X15024706Y-11841079D02*
X15034229Y-11822031D01*
X15034229Y-11822031D02*
X15043753Y-11812508D01*
X15043753Y-11812508D02*
X15062801Y-11802984D01*
X15367563Y-12002984D02*
X15367563Y-11802984D01*
X15453277Y-12002984D02*
X15453277Y-11898222D01*
X15453277Y-11898222D02*
X15443753Y-11879174D01*
X15443753Y-11879174D02*
X15424706Y-11869650D01*
X15424706Y-11869650D02*
X15396134Y-11869650D01*
X15396134Y-11869650D02*
X15377087Y-11879174D01*
X15377087Y-11879174D02*
X15367563Y-11888698D01*
X15577087Y-12002984D02*
X15558039Y-11993460D01*
X15558039Y-11993460D02*
X15548515Y-11983936D01*
X15548515Y-11983936D02*
X15538991Y-11964888D01*
X15538991Y-11964888D02*
X15538991Y-11907746D01*
X15538991Y-11907746D02*
X15548515Y-11888698D01*
X15548515Y-11888698D02*
X15558039Y-11879174D01*
X15558039Y-11879174D02*
X15577087Y-11869650D01*
X15577087Y-11869650D02*
X15605658Y-11869650D01*
X15605658Y-11869650D02*
X15624706Y-11879174D01*
X15624706Y-11879174D02*
X15634230Y-11888698D01*
X15634230Y-11888698D02*
X15643753Y-11907746D01*
X15643753Y-11907746D02*
X15643753Y-11964888D01*
X15643753Y-11964888D02*
X15634230Y-11983936D01*
X15634230Y-11983936D02*
X15624706Y-11993460D01*
X15624706Y-11993460D02*
X15605658Y-12002984D01*
X15605658Y-12002984D02*
X15577087Y-12002984D01*
X15758039Y-12002984D02*
X15738991Y-11993460D01*
X15738991Y-11993460D02*
X15729468Y-11974412D01*
X15729468Y-11974412D02*
X15729468Y-11802984D01*
X15910420Y-11993460D02*
X15891372Y-12002984D01*
X15891372Y-12002984D02*
X15853277Y-12002984D01*
X15853277Y-12002984D02*
X15834230Y-11993460D01*
X15834230Y-11993460D02*
X15824706Y-11974412D01*
X15824706Y-11974412D02*
X15824706Y-11898222D01*
X15824706Y-11898222D02*
X15834230Y-11879174D01*
X15834230Y-11879174D02*
X15853277Y-11869650D01*
X15853277Y-11869650D02*
X15891372Y-11869650D01*
X15891372Y-11869650D02*
X15910420Y-11879174D01*
X15910420Y-11879174D02*
X15919944Y-11898222D01*
X15919944Y-11898222D02*
X15919944Y-11917269D01*
X15919944Y-11917269D02*
X15824706Y-11936317D01*
X15996134Y-11993460D02*
X16015182Y-12002984D01*
X16015182Y-12002984D02*
X16053277Y-12002984D01*
X16053277Y-12002984D02*
X16072325Y-11993460D01*
X16072325Y-11993460D02*
X16081849Y-11974412D01*
X16081849Y-11974412D02*
X16081849Y-11964888D01*
X16081849Y-11964888D02*
X16072325Y-11945841D01*
X16072325Y-11945841D02*
X16053277Y-11936317D01*
X16053277Y-11936317D02*
X16024706Y-11936317D01*
X16024706Y-11936317D02*
X16005658Y-11926793D01*
X16005658Y-11926793D02*
X15996134Y-11907746D01*
X15996134Y-11907746D02*
X15996134Y-11898222D01*
X15996134Y-11898222D02*
X16005658Y-11879174D01*
X16005658Y-11879174D02*
X16024706Y-11869650D01*
X16024706Y-11869650D02*
X16053277Y-11869650D01*
X16053277Y-11869650D02*
X16072325Y-11879174D01*
X16148515Y-12079174D02*
X16158039Y-12069650D01*
X16158039Y-12069650D02*
X16177087Y-12041079D01*
X16177087Y-12041079D02*
X16186611Y-12022031D01*
X16186611Y-12022031D02*
X16196134Y-11993460D01*
X16196134Y-11993460D02*
X16205658Y-11945841D01*
X16205658Y-11945841D02*
X16205658Y-11907746D01*
X16205658Y-11907746D02*
X16196134Y-11860127D01*
X16196134Y-11860127D02*
X16186611Y-11831555D01*
X16186611Y-11831555D02*
X16177087Y-11812508D01*
X16177087Y-11812508D02*
X16158039Y-11783936D01*
X16158039Y-11783936D02*
X16148515Y-11774412D01*
D14*
X10933000Y-12116000D02*
X10933000Y-12235000D01*
X10873500Y-12175500D02*
X10992500Y-12175500D01*
D11*
X11358039Y-12266984D02*
X11243753Y-12266984D01*
X11300896Y-12266984D02*
X11300896Y-12066984D01*
X11300896Y-12066984D02*
X11281848Y-12095555D01*
X11281848Y-12095555D02*
X11262801Y-12114603D01*
X11262801Y-12114603D02*
X11243753Y-12124127D01*
X11443753Y-12247936D02*
X11453277Y-12257460D01*
X11453277Y-12257460D02*
X11443753Y-12266984D01*
X11443753Y-12266984D02*
X11434229Y-12257460D01*
X11434229Y-12257460D02*
X11443753Y-12247936D01*
X11443753Y-12247936D02*
X11443753Y-12266984D01*
X11643753Y-12266984D02*
X11529467Y-12266984D01*
X11586610Y-12266984D02*
X11586610Y-12066984D01*
X11586610Y-12066984D02*
X11567562Y-12095555D01*
X11567562Y-12095555D02*
X11548515Y-12114603D01*
X11548515Y-12114603D02*
X11529467Y-12124127D01*
X11738991Y-12266984D02*
X11777086Y-12266984D01*
X11777086Y-12266984D02*
X11796134Y-12257460D01*
X11796134Y-12257460D02*
X11805658Y-12247936D01*
X11805658Y-12247936D02*
X11824705Y-12219365D01*
X11824705Y-12219365D02*
X11834229Y-12181269D01*
X11834229Y-12181269D02*
X11834229Y-12105079D01*
X11834229Y-12105079D02*
X11824705Y-12086031D01*
X11824705Y-12086031D02*
X11815182Y-12076508D01*
X11815182Y-12076508D02*
X11796134Y-12066984D01*
X11796134Y-12066984D02*
X11758039Y-12066984D01*
X11758039Y-12066984D02*
X11738991Y-12076508D01*
X11738991Y-12076508D02*
X11729467Y-12086031D01*
X11729467Y-12086031D02*
X11719943Y-12105079D01*
X11719943Y-12105079D02*
X11719943Y-12152698D01*
X11719943Y-12152698D02*
X11729467Y-12171746D01*
X11729467Y-12171746D02*
X11738991Y-12181269D01*
X11738991Y-12181269D02*
X11758039Y-12190793D01*
X11758039Y-12190793D02*
X11796134Y-12190793D01*
X11796134Y-12190793D02*
X11815182Y-12181269D01*
X11815182Y-12181269D02*
X11824705Y-12171746D01*
X11824705Y-12171746D02*
X11834229Y-12152698D01*
X11958039Y-12066984D02*
X11977086Y-12066984D01*
X11977086Y-12066984D02*
X11996134Y-12076508D01*
X11996134Y-12076508D02*
X12005658Y-12086031D01*
X12005658Y-12086031D02*
X12015182Y-12105079D01*
X12015182Y-12105079D02*
X12024705Y-12143174D01*
X12024705Y-12143174D02*
X12024705Y-12190793D01*
X12024705Y-12190793D02*
X12015182Y-12228888D01*
X12015182Y-12228888D02*
X12005658Y-12247936D01*
X12005658Y-12247936D02*
X11996134Y-12257460D01*
X11996134Y-12257460D02*
X11977086Y-12266984D01*
X11977086Y-12266984D02*
X11958039Y-12266984D01*
X11958039Y-12266984D02*
X11938991Y-12257460D01*
X11938991Y-12257460D02*
X11929467Y-12247936D01*
X11929467Y-12247936D02*
X11919943Y-12228888D01*
X11919943Y-12228888D02*
X11910420Y-12190793D01*
X11910420Y-12190793D02*
X11910420Y-12143174D01*
X11910420Y-12143174D02*
X11919943Y-12105079D01*
X11919943Y-12105079D02*
X11929467Y-12086031D01*
X11929467Y-12086031D02*
X11938991Y-12076508D01*
X11938991Y-12076508D02*
X11958039Y-12066984D01*
X12110420Y-12266984D02*
X12110420Y-12133650D01*
X12110420Y-12152698D02*
X12119943Y-12143174D01*
X12119943Y-12143174D02*
X12138991Y-12133650D01*
X12138991Y-12133650D02*
X12167563Y-12133650D01*
X12167563Y-12133650D02*
X12186610Y-12143174D01*
X12186610Y-12143174D02*
X12196134Y-12162222D01*
X12196134Y-12162222D02*
X12196134Y-12266984D01*
X12196134Y-12162222D02*
X12205658Y-12143174D01*
X12205658Y-12143174D02*
X12224705Y-12133650D01*
X12224705Y-12133650D02*
X12253277Y-12133650D01*
X12253277Y-12133650D02*
X12272324Y-12143174D01*
X12272324Y-12143174D02*
X12281848Y-12162222D01*
X12281848Y-12162222D02*
X12281848Y-12266984D01*
X12377086Y-12266984D02*
X12377086Y-12133650D01*
X12377086Y-12152698D02*
X12386610Y-12143174D01*
X12386610Y-12143174D02*
X12405658Y-12133650D01*
X12405658Y-12133650D02*
X12434229Y-12133650D01*
X12434229Y-12133650D02*
X12453277Y-12143174D01*
X12453277Y-12143174D02*
X12462801Y-12162222D01*
X12462801Y-12162222D02*
X12462801Y-12266984D01*
X12462801Y-12162222D02*
X12472324Y-12143174D01*
X12472324Y-12143174D02*
X12491372Y-12133650D01*
X12491372Y-12133650D02*
X12519943Y-12133650D01*
X12519943Y-12133650D02*
X12538991Y-12143174D01*
X12538991Y-12143174D02*
X12548515Y-12162222D01*
X12548515Y-12162222D02*
X12548515Y-12266984D01*
X12938991Y-12057460D02*
X12767563Y-12314603D01*
X13196134Y-12066984D02*
X13215182Y-12066984D01*
X13215182Y-12066984D02*
X13234229Y-12076508D01*
X13234229Y-12076508D02*
X13243753Y-12086031D01*
X13243753Y-12086031D02*
X13253277Y-12105079D01*
X13253277Y-12105079D02*
X13262801Y-12143174D01*
X13262801Y-12143174D02*
X13262801Y-12190793D01*
X13262801Y-12190793D02*
X13253277Y-12228888D01*
X13253277Y-12228888D02*
X13243753Y-12247936D01*
X13243753Y-12247936D02*
X13234229Y-12257460D01*
X13234229Y-12257460D02*
X13215182Y-12266984D01*
X13215182Y-12266984D02*
X13196134Y-12266984D01*
X13196134Y-12266984D02*
X13177086Y-12257460D01*
X13177086Y-12257460D02*
X13167563Y-12247936D01*
X13167563Y-12247936D02*
X13158039Y-12228888D01*
X13158039Y-12228888D02*
X13148515Y-12190793D01*
X13148515Y-12190793D02*
X13148515Y-12143174D01*
X13148515Y-12143174D02*
X13158039Y-12105079D01*
X13158039Y-12105079D02*
X13167563Y-12086031D01*
X13167563Y-12086031D02*
X13177086Y-12076508D01*
X13177086Y-12076508D02*
X13196134Y-12066984D01*
X13348515Y-12247936D02*
X13358039Y-12257460D01*
X13358039Y-12257460D02*
X13348515Y-12266984D01*
X13348515Y-12266984D02*
X13338991Y-12257460D01*
X13338991Y-12257460D02*
X13348515Y-12247936D01*
X13348515Y-12247936D02*
X13348515Y-12266984D01*
X13481848Y-12066984D02*
X13500896Y-12066984D01*
X13500896Y-12066984D02*
X13519944Y-12076508D01*
X13519944Y-12076508D02*
X13529467Y-12086031D01*
X13529467Y-12086031D02*
X13538991Y-12105079D01*
X13538991Y-12105079D02*
X13548515Y-12143174D01*
X13548515Y-12143174D02*
X13548515Y-12190793D01*
X13548515Y-12190793D02*
X13538991Y-12228888D01*
X13538991Y-12228888D02*
X13529467Y-12247936D01*
X13529467Y-12247936D02*
X13519944Y-12257460D01*
X13519944Y-12257460D02*
X13500896Y-12266984D01*
X13500896Y-12266984D02*
X13481848Y-12266984D01*
X13481848Y-12266984D02*
X13462801Y-12257460D01*
X13462801Y-12257460D02*
X13453277Y-12247936D01*
X13453277Y-12247936D02*
X13443753Y-12228888D01*
X13443753Y-12228888D02*
X13434229Y-12190793D01*
X13434229Y-12190793D02*
X13434229Y-12143174D01*
X13434229Y-12143174D02*
X13443753Y-12105079D01*
X13443753Y-12105079D02*
X13453277Y-12086031D01*
X13453277Y-12086031D02*
X13462801Y-12076508D01*
X13462801Y-12076508D02*
X13481848Y-12066984D01*
X13719944Y-12133650D02*
X13719944Y-12266984D01*
X13672325Y-12057460D02*
X13624706Y-12200317D01*
X13624706Y-12200317D02*
X13748515Y-12200317D01*
X13910420Y-12066984D02*
X13872325Y-12066984D01*
X13872325Y-12066984D02*
X13853277Y-12076508D01*
X13853277Y-12076508D02*
X13843753Y-12086031D01*
X13843753Y-12086031D02*
X13824706Y-12114603D01*
X13824706Y-12114603D02*
X13815182Y-12152698D01*
X13815182Y-12152698D02*
X13815182Y-12228888D01*
X13815182Y-12228888D02*
X13824706Y-12247936D01*
X13824706Y-12247936D02*
X13834229Y-12257460D01*
X13834229Y-12257460D02*
X13853277Y-12266984D01*
X13853277Y-12266984D02*
X13891372Y-12266984D01*
X13891372Y-12266984D02*
X13910420Y-12257460D01*
X13910420Y-12257460D02*
X13919944Y-12247936D01*
X13919944Y-12247936D02*
X13929467Y-12228888D01*
X13929467Y-12228888D02*
X13929467Y-12181269D01*
X13929467Y-12181269D02*
X13919944Y-12162222D01*
X13919944Y-12162222D02*
X13910420Y-12152698D01*
X13910420Y-12152698D02*
X13891372Y-12143174D01*
X13891372Y-12143174D02*
X13853277Y-12143174D01*
X13853277Y-12143174D02*
X13834229Y-12152698D01*
X13834229Y-12152698D02*
X13824706Y-12162222D01*
X13824706Y-12162222D02*
X13815182Y-12181269D01*
X14024706Y-12266984D02*
X14062801Y-12266984D01*
X14062801Y-12266984D02*
X14081848Y-12257460D01*
X14081848Y-12257460D02*
X14091372Y-12247936D01*
X14091372Y-12247936D02*
X14110420Y-12219365D01*
X14110420Y-12219365D02*
X14119944Y-12181269D01*
X14119944Y-12181269D02*
X14119944Y-12105079D01*
X14119944Y-12105079D02*
X14110420Y-12086031D01*
X14110420Y-12086031D02*
X14100896Y-12076508D01*
X14100896Y-12076508D02*
X14081848Y-12066984D01*
X14081848Y-12066984D02*
X14043753Y-12066984D01*
X14043753Y-12066984D02*
X14024706Y-12076508D01*
X14024706Y-12076508D02*
X14015182Y-12086031D01*
X14015182Y-12086031D02*
X14005658Y-12105079D01*
X14005658Y-12105079D02*
X14005658Y-12152698D01*
X14005658Y-12152698D02*
X14015182Y-12171746D01*
X14015182Y-12171746D02*
X14024706Y-12181269D01*
X14024706Y-12181269D02*
X14043753Y-12190793D01*
X14043753Y-12190793D02*
X14081848Y-12190793D01*
X14081848Y-12190793D02*
X14100896Y-12181269D01*
X14100896Y-12181269D02*
X14110420Y-12171746D01*
X14110420Y-12171746D02*
X14119944Y-12152698D01*
X14196134Y-12066984D02*
X14196134Y-12105079D01*
X14272325Y-12066984D02*
X14272325Y-12105079D01*
X14567563Y-12343174D02*
X14558039Y-12333650D01*
X14558039Y-12333650D02*
X14538991Y-12305079D01*
X14538991Y-12305079D02*
X14529468Y-12286031D01*
X14529468Y-12286031D02*
X14519944Y-12257460D01*
X14519944Y-12257460D02*
X14510420Y-12209841D01*
X14510420Y-12209841D02*
X14510420Y-12171746D01*
X14510420Y-12171746D02*
X14519944Y-12124127D01*
X14519944Y-12124127D02*
X14529468Y-12095555D01*
X14529468Y-12095555D02*
X14538991Y-12076508D01*
X14538991Y-12076508D02*
X14558039Y-12047936D01*
X14558039Y-12047936D02*
X14567563Y-12038412D01*
X14738991Y-12066984D02*
X14643753Y-12066984D01*
X14643753Y-12066984D02*
X14634229Y-12162222D01*
X14634229Y-12162222D02*
X14643753Y-12152698D01*
X14643753Y-12152698D02*
X14662801Y-12143174D01*
X14662801Y-12143174D02*
X14710420Y-12143174D01*
X14710420Y-12143174D02*
X14729468Y-12152698D01*
X14729468Y-12152698D02*
X14738991Y-12162222D01*
X14738991Y-12162222D02*
X14748515Y-12181269D01*
X14748515Y-12181269D02*
X14748515Y-12228888D01*
X14748515Y-12228888D02*
X14738991Y-12247936D01*
X14738991Y-12247936D02*
X14729468Y-12257460D01*
X14729468Y-12257460D02*
X14710420Y-12266984D01*
X14710420Y-12266984D02*
X14662801Y-12266984D01*
X14662801Y-12266984D02*
X14643753Y-12257460D01*
X14643753Y-12257460D02*
X14634229Y-12247936D01*
X14824706Y-12086031D02*
X14834229Y-12076508D01*
X14834229Y-12076508D02*
X14853277Y-12066984D01*
X14853277Y-12066984D02*
X14900896Y-12066984D01*
X14900896Y-12066984D02*
X14919944Y-12076508D01*
X14919944Y-12076508D02*
X14929468Y-12086031D01*
X14929468Y-12086031D02*
X14938991Y-12105079D01*
X14938991Y-12105079D02*
X14938991Y-12124127D01*
X14938991Y-12124127D02*
X14929468Y-12152698D01*
X14929468Y-12152698D02*
X14815182Y-12266984D01*
X14815182Y-12266984D02*
X14938991Y-12266984D01*
X15177087Y-12266984D02*
X15177087Y-12066984D01*
X15262801Y-12266984D02*
X15262801Y-12162222D01*
X15262801Y-12162222D02*
X15253277Y-12143174D01*
X15253277Y-12143174D02*
X15234230Y-12133650D01*
X15234230Y-12133650D02*
X15205658Y-12133650D01*
X15205658Y-12133650D02*
X15186610Y-12143174D01*
X15186610Y-12143174D02*
X15177087Y-12152698D01*
X15386610Y-12266984D02*
X15367563Y-12257460D01*
X15367563Y-12257460D02*
X15358039Y-12247936D01*
X15358039Y-12247936D02*
X15348515Y-12228888D01*
X15348515Y-12228888D02*
X15348515Y-12171746D01*
X15348515Y-12171746D02*
X15358039Y-12152698D01*
X15358039Y-12152698D02*
X15367563Y-12143174D01*
X15367563Y-12143174D02*
X15386610Y-12133650D01*
X15386610Y-12133650D02*
X15415182Y-12133650D01*
X15415182Y-12133650D02*
X15434230Y-12143174D01*
X15434230Y-12143174D02*
X15443753Y-12152698D01*
X15443753Y-12152698D02*
X15453277Y-12171746D01*
X15453277Y-12171746D02*
X15453277Y-12228888D01*
X15453277Y-12228888D02*
X15443753Y-12247936D01*
X15443753Y-12247936D02*
X15434230Y-12257460D01*
X15434230Y-12257460D02*
X15415182Y-12266984D01*
X15415182Y-12266984D02*
X15386610Y-12266984D01*
X15567563Y-12266984D02*
X15548515Y-12257460D01*
X15548515Y-12257460D02*
X15538991Y-12238412D01*
X15538991Y-12238412D02*
X15538991Y-12066984D01*
X15719944Y-12257460D02*
X15700896Y-12266984D01*
X15700896Y-12266984D02*
X15662801Y-12266984D01*
X15662801Y-12266984D02*
X15643753Y-12257460D01*
X15643753Y-12257460D02*
X15634230Y-12238412D01*
X15634230Y-12238412D02*
X15634230Y-12162222D01*
X15634230Y-12162222D02*
X15643753Y-12143174D01*
X15643753Y-12143174D02*
X15662801Y-12133650D01*
X15662801Y-12133650D02*
X15700896Y-12133650D01*
X15700896Y-12133650D02*
X15719944Y-12143174D01*
X15719944Y-12143174D02*
X15729468Y-12162222D01*
X15729468Y-12162222D02*
X15729468Y-12181269D01*
X15729468Y-12181269D02*
X15634230Y-12200317D01*
X15805658Y-12257460D02*
X15824706Y-12266984D01*
X15824706Y-12266984D02*
X15862801Y-12266984D01*
X15862801Y-12266984D02*
X15881849Y-12257460D01*
X15881849Y-12257460D02*
X15891372Y-12238412D01*
X15891372Y-12238412D02*
X15891372Y-12228888D01*
X15891372Y-12228888D02*
X15881849Y-12209841D01*
X15881849Y-12209841D02*
X15862801Y-12200317D01*
X15862801Y-12200317D02*
X15834230Y-12200317D01*
X15834230Y-12200317D02*
X15815182Y-12190793D01*
X15815182Y-12190793D02*
X15805658Y-12171746D01*
X15805658Y-12171746D02*
X15805658Y-12162222D01*
X15805658Y-12162222D02*
X15815182Y-12143174D01*
X15815182Y-12143174D02*
X15834230Y-12133650D01*
X15834230Y-12133650D02*
X15862801Y-12133650D01*
X15862801Y-12133650D02*
X15881849Y-12143174D01*
X15958039Y-12343174D02*
X15967563Y-12333650D01*
X15967563Y-12333650D02*
X15986611Y-12305079D01*
X15986611Y-12305079D02*
X15996134Y-12286031D01*
X15996134Y-12286031D02*
X16005658Y-12257460D01*
X16005658Y-12257460D02*
X16015182Y-12209841D01*
X16015182Y-12209841D02*
X16015182Y-12171746D01*
X16015182Y-12171746D02*
X16005658Y-12124127D01*
X16005658Y-12124127D02*
X15996134Y-12095555D01*
X15996134Y-12095555D02*
X15986611Y-12076508D01*
X15986611Y-12076508D02*
X15967563Y-12047936D01*
X15967563Y-12047936D02*
X15958039Y-12038412D01*
X10963211Y-12510211D02*
X10963211Y-12368789D01*
X10821789Y-12368789D01*
X10821789Y-12510211D01*
X10963211Y-12510211D01*
X11243753Y-12350031D02*
X11253277Y-12340508D01*
X11253277Y-12340508D02*
X11272324Y-12330984D01*
X11272324Y-12330984D02*
X11319943Y-12330984D01*
X11319943Y-12330984D02*
X11338991Y-12340508D01*
X11338991Y-12340508D02*
X11348515Y-12350031D01*
X11348515Y-12350031D02*
X11358039Y-12369079D01*
X11358039Y-12369079D02*
X11358039Y-12388127D01*
X11358039Y-12388127D02*
X11348515Y-12416698D01*
X11348515Y-12416698D02*
X11234229Y-12530984D01*
X11234229Y-12530984D02*
X11358039Y-12530984D01*
X11443753Y-12511936D02*
X11453277Y-12521460D01*
X11453277Y-12521460D02*
X11443753Y-12530984D01*
X11443753Y-12530984D02*
X11434229Y-12521460D01*
X11434229Y-12521460D02*
X11443753Y-12511936D01*
X11443753Y-12511936D02*
X11443753Y-12530984D01*
X11519943Y-12330984D02*
X11653277Y-12330984D01*
X11653277Y-12330984D02*
X11567562Y-12530984D01*
X11767562Y-12330984D02*
X11786610Y-12330984D01*
X11786610Y-12330984D02*
X11805658Y-12340508D01*
X11805658Y-12340508D02*
X11815182Y-12350031D01*
X11815182Y-12350031D02*
X11824705Y-12369079D01*
X11824705Y-12369079D02*
X11834229Y-12407174D01*
X11834229Y-12407174D02*
X11834229Y-12454793D01*
X11834229Y-12454793D02*
X11824705Y-12492888D01*
X11824705Y-12492888D02*
X11815182Y-12511936D01*
X11815182Y-12511936D02*
X11805658Y-12521460D01*
X11805658Y-12521460D02*
X11786610Y-12530984D01*
X11786610Y-12530984D02*
X11767562Y-12530984D01*
X11767562Y-12530984D02*
X11748515Y-12521460D01*
X11748515Y-12521460D02*
X11738991Y-12511936D01*
X11738991Y-12511936D02*
X11729467Y-12492888D01*
X11729467Y-12492888D02*
X11719943Y-12454793D01*
X11719943Y-12454793D02*
X11719943Y-12407174D01*
X11719943Y-12407174D02*
X11729467Y-12369079D01*
X11729467Y-12369079D02*
X11738991Y-12350031D01*
X11738991Y-12350031D02*
X11748515Y-12340508D01*
X11748515Y-12340508D02*
X11767562Y-12330984D01*
X11958039Y-12330984D02*
X11977086Y-12330984D01*
X11977086Y-12330984D02*
X11996134Y-12340508D01*
X11996134Y-12340508D02*
X12005658Y-12350031D01*
X12005658Y-12350031D02*
X12015182Y-12369079D01*
X12015182Y-12369079D02*
X12024705Y-12407174D01*
X12024705Y-12407174D02*
X12024705Y-12454793D01*
X12024705Y-12454793D02*
X12015182Y-12492888D01*
X12015182Y-12492888D02*
X12005658Y-12511936D01*
X12005658Y-12511936D02*
X11996134Y-12521460D01*
X11996134Y-12521460D02*
X11977086Y-12530984D01*
X11977086Y-12530984D02*
X11958039Y-12530984D01*
X11958039Y-12530984D02*
X11938991Y-12521460D01*
X11938991Y-12521460D02*
X11929467Y-12511936D01*
X11929467Y-12511936D02*
X11919943Y-12492888D01*
X11919943Y-12492888D02*
X11910420Y-12454793D01*
X11910420Y-12454793D02*
X11910420Y-12407174D01*
X11910420Y-12407174D02*
X11919943Y-12369079D01*
X11919943Y-12369079D02*
X11929467Y-12350031D01*
X11929467Y-12350031D02*
X11938991Y-12340508D01*
X11938991Y-12340508D02*
X11958039Y-12330984D01*
X12110420Y-12530984D02*
X12110420Y-12397650D01*
X12110420Y-12416698D02*
X12119943Y-12407174D01*
X12119943Y-12407174D02*
X12138991Y-12397650D01*
X12138991Y-12397650D02*
X12167563Y-12397650D01*
X12167563Y-12397650D02*
X12186610Y-12407174D01*
X12186610Y-12407174D02*
X12196134Y-12426222D01*
X12196134Y-12426222D02*
X12196134Y-12530984D01*
X12196134Y-12426222D02*
X12205658Y-12407174D01*
X12205658Y-12407174D02*
X12224705Y-12397650D01*
X12224705Y-12397650D02*
X12253277Y-12397650D01*
X12253277Y-12397650D02*
X12272324Y-12407174D01*
X12272324Y-12407174D02*
X12281848Y-12426222D01*
X12281848Y-12426222D02*
X12281848Y-12530984D01*
X12377086Y-12530984D02*
X12377086Y-12397650D01*
X12377086Y-12416698D02*
X12386610Y-12407174D01*
X12386610Y-12407174D02*
X12405658Y-12397650D01*
X12405658Y-12397650D02*
X12434229Y-12397650D01*
X12434229Y-12397650D02*
X12453277Y-12407174D01*
X12453277Y-12407174D02*
X12462801Y-12426222D01*
X12462801Y-12426222D02*
X12462801Y-12530984D01*
X12462801Y-12426222D02*
X12472324Y-12407174D01*
X12472324Y-12407174D02*
X12491372Y-12397650D01*
X12491372Y-12397650D02*
X12519943Y-12397650D01*
X12519943Y-12397650D02*
X12538991Y-12407174D01*
X12538991Y-12407174D02*
X12548515Y-12426222D01*
X12548515Y-12426222D02*
X12548515Y-12530984D01*
X12938991Y-12321460D02*
X12767563Y-12578603D01*
X13196134Y-12330984D02*
X13215182Y-12330984D01*
X13215182Y-12330984D02*
X13234229Y-12340508D01*
X13234229Y-12340508D02*
X13243753Y-12350031D01*
X13243753Y-12350031D02*
X13253277Y-12369079D01*
X13253277Y-12369079D02*
X13262801Y-12407174D01*
X13262801Y-12407174D02*
X13262801Y-12454793D01*
X13262801Y-12454793D02*
X13253277Y-12492888D01*
X13253277Y-12492888D02*
X13243753Y-12511936D01*
X13243753Y-12511936D02*
X13234229Y-12521460D01*
X13234229Y-12521460D02*
X13215182Y-12530984D01*
X13215182Y-12530984D02*
X13196134Y-12530984D01*
X13196134Y-12530984D02*
X13177086Y-12521460D01*
X13177086Y-12521460D02*
X13167563Y-12511936D01*
X13167563Y-12511936D02*
X13158039Y-12492888D01*
X13158039Y-12492888D02*
X13148515Y-12454793D01*
X13148515Y-12454793D02*
X13148515Y-12407174D01*
X13148515Y-12407174D02*
X13158039Y-12369079D01*
X13158039Y-12369079D02*
X13167563Y-12350031D01*
X13167563Y-12350031D02*
X13177086Y-12340508D01*
X13177086Y-12340508D02*
X13196134Y-12330984D01*
X13348515Y-12511936D02*
X13358039Y-12521460D01*
X13358039Y-12521460D02*
X13348515Y-12530984D01*
X13348515Y-12530984D02*
X13338991Y-12521460D01*
X13338991Y-12521460D02*
X13348515Y-12511936D01*
X13348515Y-12511936D02*
X13348515Y-12530984D01*
X13548515Y-12530984D02*
X13434229Y-12530984D01*
X13491372Y-12530984D02*
X13491372Y-12330984D01*
X13491372Y-12330984D02*
X13472325Y-12359555D01*
X13472325Y-12359555D02*
X13453277Y-12378603D01*
X13453277Y-12378603D02*
X13434229Y-12388127D01*
X13672325Y-12330984D02*
X13691372Y-12330984D01*
X13691372Y-12330984D02*
X13710420Y-12340508D01*
X13710420Y-12340508D02*
X13719944Y-12350031D01*
X13719944Y-12350031D02*
X13729467Y-12369079D01*
X13729467Y-12369079D02*
X13738991Y-12407174D01*
X13738991Y-12407174D02*
X13738991Y-12454793D01*
X13738991Y-12454793D02*
X13729467Y-12492888D01*
X13729467Y-12492888D02*
X13719944Y-12511936D01*
X13719944Y-12511936D02*
X13710420Y-12521460D01*
X13710420Y-12521460D02*
X13691372Y-12530984D01*
X13691372Y-12530984D02*
X13672325Y-12530984D01*
X13672325Y-12530984D02*
X13653277Y-12521460D01*
X13653277Y-12521460D02*
X13643753Y-12511936D01*
X13643753Y-12511936D02*
X13634229Y-12492888D01*
X13634229Y-12492888D02*
X13624706Y-12454793D01*
X13624706Y-12454793D02*
X13624706Y-12407174D01*
X13624706Y-12407174D02*
X13634229Y-12369079D01*
X13634229Y-12369079D02*
X13643753Y-12350031D01*
X13643753Y-12350031D02*
X13653277Y-12340508D01*
X13653277Y-12340508D02*
X13672325Y-12330984D01*
X13910420Y-12330984D02*
X13872325Y-12330984D01*
X13872325Y-12330984D02*
X13853277Y-12340508D01*
X13853277Y-12340508D02*
X13843753Y-12350031D01*
X13843753Y-12350031D02*
X13824706Y-12378603D01*
X13824706Y-12378603D02*
X13815182Y-12416698D01*
X13815182Y-12416698D02*
X13815182Y-12492888D01*
X13815182Y-12492888D02*
X13824706Y-12511936D01*
X13824706Y-12511936D02*
X13834229Y-12521460D01*
X13834229Y-12521460D02*
X13853277Y-12530984D01*
X13853277Y-12530984D02*
X13891372Y-12530984D01*
X13891372Y-12530984D02*
X13910420Y-12521460D01*
X13910420Y-12521460D02*
X13919944Y-12511936D01*
X13919944Y-12511936D02*
X13929467Y-12492888D01*
X13929467Y-12492888D02*
X13929467Y-12445269D01*
X13929467Y-12445269D02*
X13919944Y-12426222D01*
X13919944Y-12426222D02*
X13910420Y-12416698D01*
X13910420Y-12416698D02*
X13891372Y-12407174D01*
X13891372Y-12407174D02*
X13853277Y-12407174D01*
X13853277Y-12407174D02*
X13834229Y-12416698D01*
X13834229Y-12416698D02*
X13824706Y-12426222D01*
X13824706Y-12426222D02*
X13815182Y-12445269D01*
X13996134Y-12330984D02*
X14119944Y-12330984D01*
X14119944Y-12330984D02*
X14053277Y-12407174D01*
X14053277Y-12407174D02*
X14081848Y-12407174D01*
X14081848Y-12407174D02*
X14100896Y-12416698D01*
X14100896Y-12416698D02*
X14110420Y-12426222D01*
X14110420Y-12426222D02*
X14119944Y-12445269D01*
X14119944Y-12445269D02*
X14119944Y-12492888D01*
X14119944Y-12492888D02*
X14110420Y-12511936D01*
X14110420Y-12511936D02*
X14100896Y-12521460D01*
X14100896Y-12521460D02*
X14081848Y-12530984D01*
X14081848Y-12530984D02*
X14024706Y-12530984D01*
X14024706Y-12530984D02*
X14005658Y-12521460D01*
X14005658Y-12521460D02*
X13996134Y-12511936D01*
X14196134Y-12330984D02*
X14196134Y-12369079D01*
X14272325Y-12330984D02*
X14272325Y-12369079D01*
X14567563Y-12607174D02*
X14558039Y-12597650D01*
X14558039Y-12597650D02*
X14538991Y-12569079D01*
X14538991Y-12569079D02*
X14529468Y-12550031D01*
X14529468Y-12550031D02*
X14519944Y-12521460D01*
X14519944Y-12521460D02*
X14510420Y-12473841D01*
X14510420Y-12473841D02*
X14510420Y-12435746D01*
X14510420Y-12435746D02*
X14519944Y-12388127D01*
X14519944Y-12388127D02*
X14529468Y-12359555D01*
X14529468Y-12359555D02*
X14538991Y-12340508D01*
X14538991Y-12340508D02*
X14558039Y-12311936D01*
X14558039Y-12311936D02*
X14567563Y-12302412D01*
X14634229Y-12350031D02*
X14643753Y-12340508D01*
X14643753Y-12340508D02*
X14662801Y-12330984D01*
X14662801Y-12330984D02*
X14710420Y-12330984D01*
X14710420Y-12330984D02*
X14729468Y-12340508D01*
X14729468Y-12340508D02*
X14738991Y-12350031D01*
X14738991Y-12350031D02*
X14748515Y-12369079D01*
X14748515Y-12369079D02*
X14748515Y-12388127D01*
X14748515Y-12388127D02*
X14738991Y-12416698D01*
X14738991Y-12416698D02*
X14624706Y-12530984D01*
X14624706Y-12530984D02*
X14748515Y-12530984D01*
X14986610Y-12530984D02*
X14986610Y-12330984D01*
X15072325Y-12530984D02*
X15072325Y-12426222D01*
X15072325Y-12426222D02*
X15062801Y-12407174D01*
X15062801Y-12407174D02*
X15043753Y-12397650D01*
X15043753Y-12397650D02*
X15015182Y-12397650D01*
X15015182Y-12397650D02*
X14996134Y-12407174D01*
X14996134Y-12407174D02*
X14986610Y-12416698D01*
X15196134Y-12530984D02*
X15177087Y-12521460D01*
X15177087Y-12521460D02*
X15167563Y-12511936D01*
X15167563Y-12511936D02*
X15158039Y-12492888D01*
X15158039Y-12492888D02*
X15158039Y-12435746D01*
X15158039Y-12435746D02*
X15167563Y-12416698D01*
X15167563Y-12416698D02*
X15177087Y-12407174D01*
X15177087Y-12407174D02*
X15196134Y-12397650D01*
X15196134Y-12397650D02*
X15224706Y-12397650D01*
X15224706Y-12397650D02*
X15243753Y-12407174D01*
X15243753Y-12407174D02*
X15253277Y-12416698D01*
X15253277Y-12416698D02*
X15262801Y-12435746D01*
X15262801Y-12435746D02*
X15262801Y-12492888D01*
X15262801Y-12492888D02*
X15253277Y-12511936D01*
X15253277Y-12511936D02*
X15243753Y-12521460D01*
X15243753Y-12521460D02*
X15224706Y-12530984D01*
X15224706Y-12530984D02*
X15196134Y-12530984D01*
X15377087Y-12530984D02*
X15358039Y-12521460D01*
X15358039Y-12521460D02*
X15348515Y-12502412D01*
X15348515Y-12502412D02*
X15348515Y-12330984D01*
X15529468Y-12521460D02*
X15510420Y-12530984D01*
X15510420Y-12530984D02*
X15472325Y-12530984D01*
X15472325Y-12530984D02*
X15453277Y-12521460D01*
X15453277Y-12521460D02*
X15443753Y-12502412D01*
X15443753Y-12502412D02*
X15443753Y-12426222D01*
X15443753Y-12426222D02*
X15453277Y-12407174D01*
X15453277Y-12407174D02*
X15472325Y-12397650D01*
X15472325Y-12397650D02*
X15510420Y-12397650D01*
X15510420Y-12397650D02*
X15529468Y-12407174D01*
X15529468Y-12407174D02*
X15538991Y-12426222D01*
X15538991Y-12426222D02*
X15538991Y-12445269D01*
X15538991Y-12445269D02*
X15443753Y-12464317D01*
X15615182Y-12521460D02*
X15634230Y-12530984D01*
X15634230Y-12530984D02*
X15672325Y-12530984D01*
X15672325Y-12530984D02*
X15691372Y-12521460D01*
X15691372Y-12521460D02*
X15700896Y-12502412D01*
X15700896Y-12502412D02*
X15700896Y-12492888D01*
X15700896Y-12492888D02*
X15691372Y-12473841D01*
X15691372Y-12473841D02*
X15672325Y-12464317D01*
X15672325Y-12464317D02*
X15643753Y-12464317D01*
X15643753Y-12464317D02*
X15624706Y-12454793D01*
X15624706Y-12454793D02*
X15615182Y-12435746D01*
X15615182Y-12435746D02*
X15615182Y-12426222D01*
X15615182Y-12426222D02*
X15624706Y-12407174D01*
X15624706Y-12407174D02*
X15643753Y-12397650D01*
X15643753Y-12397650D02*
X15672325Y-12397650D01*
X15672325Y-12397650D02*
X15691372Y-12407174D01*
X15767563Y-12607174D02*
X15777087Y-12597650D01*
X15777087Y-12597650D02*
X15796134Y-12569079D01*
X15796134Y-12569079D02*
X15805658Y-12550031D01*
X15805658Y-12550031D02*
X15815182Y-12521460D01*
X15815182Y-12521460D02*
X15824706Y-12473841D01*
X15824706Y-12473841D02*
X15824706Y-12435746D01*
X15824706Y-12435746D02*
X15815182Y-12388127D01*
X15815182Y-12388127D02*
X15805658Y-12359555D01*
X15805658Y-12359555D02*
X15796134Y-12340508D01*
X15796134Y-12340508D02*
X15777087Y-12311936D01*
X15777087Y-12311936D02*
X15767563Y-12302412D01*
X10892500Y-12859500D02*
X10992500Y-12759500D01*
X10892500Y-12659500D01*
X10792500Y-12759500D01*
X10892500Y-12859500D01*
X11234229Y-12650984D02*
X11358039Y-12650984D01*
X11358039Y-12650984D02*
X11291372Y-12727174D01*
X11291372Y-12727174D02*
X11319943Y-12727174D01*
X11319943Y-12727174D02*
X11338991Y-12736698D01*
X11338991Y-12736698D02*
X11348515Y-12746222D01*
X11348515Y-12746222D02*
X11358039Y-12765269D01*
X11358039Y-12765269D02*
X11358039Y-12812888D01*
X11358039Y-12812888D02*
X11348515Y-12831936D01*
X11348515Y-12831936D02*
X11338991Y-12841460D01*
X11338991Y-12841460D02*
X11319943Y-12850984D01*
X11319943Y-12850984D02*
X11262801Y-12850984D01*
X11262801Y-12850984D02*
X11243753Y-12841460D01*
X11243753Y-12841460D02*
X11234229Y-12831936D01*
X11443753Y-12831936D02*
X11453277Y-12841460D01*
X11453277Y-12841460D02*
X11443753Y-12850984D01*
X11443753Y-12850984D02*
X11434229Y-12841460D01*
X11434229Y-12841460D02*
X11443753Y-12831936D01*
X11443753Y-12831936D02*
X11443753Y-12850984D01*
X11634229Y-12650984D02*
X11538991Y-12650984D01*
X11538991Y-12650984D02*
X11529467Y-12746222D01*
X11529467Y-12746222D02*
X11538991Y-12736698D01*
X11538991Y-12736698D02*
X11558039Y-12727174D01*
X11558039Y-12727174D02*
X11605658Y-12727174D01*
X11605658Y-12727174D02*
X11624705Y-12736698D01*
X11624705Y-12736698D02*
X11634229Y-12746222D01*
X11634229Y-12746222D02*
X11643753Y-12765269D01*
X11643753Y-12765269D02*
X11643753Y-12812888D01*
X11643753Y-12812888D02*
X11634229Y-12831936D01*
X11634229Y-12831936D02*
X11624705Y-12841460D01*
X11624705Y-12841460D02*
X11605658Y-12850984D01*
X11605658Y-12850984D02*
X11558039Y-12850984D01*
X11558039Y-12850984D02*
X11538991Y-12841460D01*
X11538991Y-12841460D02*
X11529467Y-12831936D01*
X11767562Y-12650984D02*
X11786610Y-12650984D01*
X11786610Y-12650984D02*
X11805658Y-12660508D01*
X11805658Y-12660508D02*
X11815182Y-12670031D01*
X11815182Y-12670031D02*
X11824705Y-12689079D01*
X11824705Y-12689079D02*
X11834229Y-12727174D01*
X11834229Y-12727174D02*
X11834229Y-12774793D01*
X11834229Y-12774793D02*
X11824705Y-12812888D01*
X11824705Y-12812888D02*
X11815182Y-12831936D01*
X11815182Y-12831936D02*
X11805658Y-12841460D01*
X11805658Y-12841460D02*
X11786610Y-12850984D01*
X11786610Y-12850984D02*
X11767562Y-12850984D01*
X11767562Y-12850984D02*
X11748515Y-12841460D01*
X11748515Y-12841460D02*
X11738991Y-12831936D01*
X11738991Y-12831936D02*
X11729467Y-12812888D01*
X11729467Y-12812888D02*
X11719943Y-12774793D01*
X11719943Y-12774793D02*
X11719943Y-12727174D01*
X11719943Y-12727174D02*
X11729467Y-12689079D01*
X11729467Y-12689079D02*
X11738991Y-12670031D01*
X11738991Y-12670031D02*
X11748515Y-12660508D01*
X11748515Y-12660508D02*
X11767562Y-12650984D01*
X11958039Y-12650984D02*
X11977086Y-12650984D01*
X11977086Y-12650984D02*
X11996134Y-12660508D01*
X11996134Y-12660508D02*
X12005658Y-12670031D01*
X12005658Y-12670031D02*
X12015182Y-12689079D01*
X12015182Y-12689079D02*
X12024705Y-12727174D01*
X12024705Y-12727174D02*
X12024705Y-12774793D01*
X12024705Y-12774793D02*
X12015182Y-12812888D01*
X12015182Y-12812888D02*
X12005658Y-12831936D01*
X12005658Y-12831936D02*
X11996134Y-12841460D01*
X11996134Y-12841460D02*
X11977086Y-12850984D01*
X11977086Y-12850984D02*
X11958039Y-12850984D01*
X11958039Y-12850984D02*
X11938991Y-12841460D01*
X11938991Y-12841460D02*
X11929467Y-12831936D01*
X11929467Y-12831936D02*
X11919943Y-12812888D01*
X11919943Y-12812888D02*
X11910420Y-12774793D01*
X11910420Y-12774793D02*
X11910420Y-12727174D01*
X11910420Y-12727174D02*
X11919943Y-12689079D01*
X11919943Y-12689079D02*
X11929467Y-12670031D01*
X11929467Y-12670031D02*
X11938991Y-12660508D01*
X11938991Y-12660508D02*
X11958039Y-12650984D01*
X12110420Y-12850984D02*
X12110420Y-12717650D01*
X12110420Y-12736698D02*
X12119943Y-12727174D01*
X12119943Y-12727174D02*
X12138991Y-12717650D01*
X12138991Y-12717650D02*
X12167563Y-12717650D01*
X12167563Y-12717650D02*
X12186610Y-12727174D01*
X12186610Y-12727174D02*
X12196134Y-12746222D01*
X12196134Y-12746222D02*
X12196134Y-12850984D01*
X12196134Y-12746222D02*
X12205658Y-12727174D01*
X12205658Y-12727174D02*
X12224705Y-12717650D01*
X12224705Y-12717650D02*
X12253277Y-12717650D01*
X12253277Y-12717650D02*
X12272324Y-12727174D01*
X12272324Y-12727174D02*
X12281848Y-12746222D01*
X12281848Y-12746222D02*
X12281848Y-12850984D01*
X12377086Y-12850984D02*
X12377086Y-12717650D01*
X12377086Y-12736698D02*
X12386610Y-12727174D01*
X12386610Y-12727174D02*
X12405658Y-12717650D01*
X12405658Y-12717650D02*
X12434229Y-12717650D01*
X12434229Y-12717650D02*
X12453277Y-12727174D01*
X12453277Y-12727174D02*
X12462801Y-12746222D01*
X12462801Y-12746222D02*
X12462801Y-12850984D01*
X12462801Y-12746222D02*
X12472324Y-12727174D01*
X12472324Y-12727174D02*
X12491372Y-12717650D01*
X12491372Y-12717650D02*
X12519943Y-12717650D01*
X12519943Y-12717650D02*
X12538991Y-12727174D01*
X12538991Y-12727174D02*
X12548515Y-12746222D01*
X12548515Y-12746222D02*
X12548515Y-12850984D01*
X12938991Y-12641460D02*
X12767563Y-12898603D01*
X13196134Y-12650984D02*
X13215182Y-12650984D01*
X13215182Y-12650984D02*
X13234229Y-12660508D01*
X13234229Y-12660508D02*
X13243753Y-12670031D01*
X13243753Y-12670031D02*
X13253277Y-12689079D01*
X13253277Y-12689079D02*
X13262801Y-12727174D01*
X13262801Y-12727174D02*
X13262801Y-12774793D01*
X13262801Y-12774793D02*
X13253277Y-12812888D01*
X13253277Y-12812888D02*
X13243753Y-12831936D01*
X13243753Y-12831936D02*
X13234229Y-12841460D01*
X13234229Y-12841460D02*
X13215182Y-12850984D01*
X13215182Y-12850984D02*
X13196134Y-12850984D01*
X13196134Y-12850984D02*
X13177086Y-12841460D01*
X13177086Y-12841460D02*
X13167563Y-12831936D01*
X13167563Y-12831936D02*
X13158039Y-12812888D01*
X13158039Y-12812888D02*
X13148515Y-12774793D01*
X13148515Y-12774793D02*
X13148515Y-12727174D01*
X13148515Y-12727174D02*
X13158039Y-12689079D01*
X13158039Y-12689079D02*
X13167563Y-12670031D01*
X13167563Y-12670031D02*
X13177086Y-12660508D01*
X13177086Y-12660508D02*
X13196134Y-12650984D01*
X13348515Y-12831936D02*
X13358039Y-12841460D01*
X13358039Y-12841460D02*
X13348515Y-12850984D01*
X13348515Y-12850984D02*
X13338991Y-12841460D01*
X13338991Y-12841460D02*
X13348515Y-12831936D01*
X13348515Y-12831936D02*
X13348515Y-12850984D01*
X13548515Y-12850984D02*
X13434229Y-12850984D01*
X13491372Y-12850984D02*
X13491372Y-12650984D01*
X13491372Y-12650984D02*
X13472325Y-12679555D01*
X13472325Y-12679555D02*
X13453277Y-12698603D01*
X13453277Y-12698603D02*
X13434229Y-12708127D01*
X13615182Y-12650984D02*
X13738991Y-12650984D01*
X13738991Y-12650984D02*
X13672325Y-12727174D01*
X13672325Y-12727174D02*
X13700896Y-12727174D01*
X13700896Y-12727174D02*
X13719944Y-12736698D01*
X13719944Y-12736698D02*
X13729467Y-12746222D01*
X13729467Y-12746222D02*
X13738991Y-12765269D01*
X13738991Y-12765269D02*
X13738991Y-12812888D01*
X13738991Y-12812888D02*
X13729467Y-12831936D01*
X13729467Y-12831936D02*
X13719944Y-12841460D01*
X13719944Y-12841460D02*
X13700896Y-12850984D01*
X13700896Y-12850984D02*
X13643753Y-12850984D01*
X13643753Y-12850984D02*
X13624706Y-12841460D01*
X13624706Y-12841460D02*
X13615182Y-12831936D01*
X13805658Y-12650984D02*
X13938991Y-12650984D01*
X13938991Y-12650984D02*
X13853277Y-12850984D01*
X14043753Y-12736698D02*
X14024706Y-12727174D01*
X14024706Y-12727174D02*
X14015182Y-12717650D01*
X14015182Y-12717650D02*
X14005658Y-12698603D01*
X14005658Y-12698603D02*
X14005658Y-12689079D01*
X14005658Y-12689079D02*
X14015182Y-12670031D01*
X14015182Y-12670031D02*
X14024706Y-12660508D01*
X14024706Y-12660508D02*
X14043753Y-12650984D01*
X14043753Y-12650984D02*
X14081848Y-12650984D01*
X14081848Y-12650984D02*
X14100896Y-12660508D01*
X14100896Y-12660508D02*
X14110420Y-12670031D01*
X14110420Y-12670031D02*
X14119944Y-12689079D01*
X14119944Y-12689079D02*
X14119944Y-12698603D01*
X14119944Y-12698603D02*
X14110420Y-12717650D01*
X14110420Y-12717650D02*
X14100896Y-12727174D01*
X14100896Y-12727174D02*
X14081848Y-12736698D01*
X14081848Y-12736698D02*
X14043753Y-12736698D01*
X14043753Y-12736698D02*
X14024706Y-12746222D01*
X14024706Y-12746222D02*
X14015182Y-12755746D01*
X14015182Y-12755746D02*
X14005658Y-12774793D01*
X14005658Y-12774793D02*
X14005658Y-12812888D01*
X14005658Y-12812888D02*
X14015182Y-12831936D01*
X14015182Y-12831936D02*
X14024706Y-12841460D01*
X14024706Y-12841460D02*
X14043753Y-12850984D01*
X14043753Y-12850984D02*
X14081848Y-12850984D01*
X14081848Y-12850984D02*
X14100896Y-12841460D01*
X14100896Y-12841460D02*
X14110420Y-12831936D01*
X14110420Y-12831936D02*
X14119944Y-12812888D01*
X14119944Y-12812888D02*
X14119944Y-12774793D01*
X14119944Y-12774793D02*
X14110420Y-12755746D01*
X14110420Y-12755746D02*
X14100896Y-12746222D01*
X14100896Y-12746222D02*
X14081848Y-12736698D01*
X14196134Y-12650984D02*
X14196134Y-12689079D01*
X14272325Y-12650984D02*
X14272325Y-12689079D01*
X14567563Y-12927174D02*
X14558039Y-12917650D01*
X14558039Y-12917650D02*
X14538991Y-12889079D01*
X14538991Y-12889079D02*
X14529468Y-12870031D01*
X14529468Y-12870031D02*
X14519944Y-12841460D01*
X14519944Y-12841460D02*
X14510420Y-12793841D01*
X14510420Y-12793841D02*
X14510420Y-12755746D01*
X14510420Y-12755746D02*
X14519944Y-12708127D01*
X14519944Y-12708127D02*
X14529468Y-12679555D01*
X14529468Y-12679555D02*
X14538991Y-12660508D01*
X14538991Y-12660508D02*
X14558039Y-12631936D01*
X14558039Y-12631936D02*
X14567563Y-12622412D01*
X14672325Y-12736698D02*
X14653277Y-12727174D01*
X14653277Y-12727174D02*
X14643753Y-12717650D01*
X14643753Y-12717650D02*
X14634229Y-12698603D01*
X14634229Y-12698603D02*
X14634229Y-12689079D01*
X14634229Y-12689079D02*
X14643753Y-12670031D01*
X14643753Y-12670031D02*
X14653277Y-12660508D01*
X14653277Y-12660508D02*
X14672325Y-12650984D01*
X14672325Y-12650984D02*
X14710420Y-12650984D01*
X14710420Y-12650984D02*
X14729468Y-12660508D01*
X14729468Y-12660508D02*
X14738991Y-12670031D01*
X14738991Y-12670031D02*
X14748515Y-12689079D01*
X14748515Y-12689079D02*
X14748515Y-12698603D01*
X14748515Y-12698603D02*
X14738991Y-12717650D01*
X14738991Y-12717650D02*
X14729468Y-12727174D01*
X14729468Y-12727174D02*
X14710420Y-12736698D01*
X14710420Y-12736698D02*
X14672325Y-12736698D01*
X14672325Y-12736698D02*
X14653277Y-12746222D01*
X14653277Y-12746222D02*
X14643753Y-12755746D01*
X14643753Y-12755746D02*
X14634229Y-12774793D01*
X14634229Y-12774793D02*
X14634229Y-12812888D01*
X14634229Y-12812888D02*
X14643753Y-12831936D01*
X14643753Y-12831936D02*
X14653277Y-12841460D01*
X14653277Y-12841460D02*
X14672325Y-12850984D01*
X14672325Y-12850984D02*
X14710420Y-12850984D01*
X14710420Y-12850984D02*
X14729468Y-12841460D01*
X14729468Y-12841460D02*
X14738991Y-12831936D01*
X14738991Y-12831936D02*
X14748515Y-12812888D01*
X14748515Y-12812888D02*
X14748515Y-12774793D01*
X14748515Y-12774793D02*
X14738991Y-12755746D01*
X14738991Y-12755746D02*
X14729468Y-12746222D01*
X14729468Y-12746222D02*
X14710420Y-12736698D01*
X14986610Y-12850984D02*
X14986610Y-12650984D01*
X15072325Y-12850984D02*
X15072325Y-12746222D01*
X15072325Y-12746222D02*
X15062801Y-12727174D01*
X15062801Y-12727174D02*
X15043753Y-12717650D01*
X15043753Y-12717650D02*
X15015182Y-12717650D01*
X15015182Y-12717650D02*
X14996134Y-12727174D01*
X14996134Y-12727174D02*
X14986610Y-12736698D01*
X15196134Y-12850984D02*
X15177087Y-12841460D01*
X15177087Y-12841460D02*
X15167563Y-12831936D01*
X15167563Y-12831936D02*
X15158039Y-12812888D01*
X15158039Y-12812888D02*
X15158039Y-12755746D01*
X15158039Y-12755746D02*
X15167563Y-12736698D01*
X15167563Y-12736698D02*
X15177087Y-12727174D01*
X15177087Y-12727174D02*
X15196134Y-12717650D01*
X15196134Y-12717650D02*
X15224706Y-12717650D01*
X15224706Y-12717650D02*
X15243753Y-12727174D01*
X15243753Y-12727174D02*
X15253277Y-12736698D01*
X15253277Y-12736698D02*
X15262801Y-12755746D01*
X15262801Y-12755746D02*
X15262801Y-12812888D01*
X15262801Y-12812888D02*
X15253277Y-12831936D01*
X15253277Y-12831936D02*
X15243753Y-12841460D01*
X15243753Y-12841460D02*
X15224706Y-12850984D01*
X15224706Y-12850984D02*
X15196134Y-12850984D01*
X15377087Y-12850984D02*
X15358039Y-12841460D01*
X15358039Y-12841460D02*
X15348515Y-12822412D01*
X15348515Y-12822412D02*
X15348515Y-12650984D01*
X15529468Y-12841460D02*
X15510420Y-12850984D01*
X15510420Y-12850984D02*
X15472325Y-12850984D01*
X15472325Y-12850984D02*
X15453277Y-12841460D01*
X15453277Y-12841460D02*
X15443753Y-12822412D01*
X15443753Y-12822412D02*
X15443753Y-12746222D01*
X15443753Y-12746222D02*
X15453277Y-12727174D01*
X15453277Y-12727174D02*
X15472325Y-12717650D01*
X15472325Y-12717650D02*
X15510420Y-12717650D01*
X15510420Y-12717650D02*
X15529468Y-12727174D01*
X15529468Y-12727174D02*
X15538991Y-12746222D01*
X15538991Y-12746222D02*
X15538991Y-12765269D01*
X15538991Y-12765269D02*
X15443753Y-12784317D01*
X15615182Y-12841460D02*
X15634230Y-12850984D01*
X15634230Y-12850984D02*
X15672325Y-12850984D01*
X15672325Y-12850984D02*
X15691372Y-12841460D01*
X15691372Y-12841460D02*
X15700896Y-12822412D01*
X15700896Y-12822412D02*
X15700896Y-12812888D01*
X15700896Y-12812888D02*
X15691372Y-12793841D01*
X15691372Y-12793841D02*
X15672325Y-12784317D01*
X15672325Y-12784317D02*
X15643753Y-12784317D01*
X15643753Y-12784317D02*
X15624706Y-12774793D01*
X15624706Y-12774793D02*
X15615182Y-12755746D01*
X15615182Y-12755746D02*
X15615182Y-12746222D01*
X15615182Y-12746222D02*
X15624706Y-12727174D01*
X15624706Y-12727174D02*
X15643753Y-12717650D01*
X15643753Y-12717650D02*
X15672325Y-12717650D01*
X15672325Y-12717650D02*
X15691372Y-12727174D01*
X15767563Y-12927174D02*
X15777087Y-12917650D01*
X15777087Y-12917650D02*
X15796134Y-12889079D01*
X15796134Y-12889079D02*
X15805658Y-12870031D01*
X15805658Y-12870031D02*
X15815182Y-12841460D01*
X15815182Y-12841460D02*
X15824706Y-12793841D01*
X15824706Y-12793841D02*
X15824706Y-12755746D01*
X15824706Y-12755746D02*
X15815182Y-12708127D01*
X15815182Y-12708127D02*
X15805658Y-12679555D01*
X15805658Y-12679555D02*
X15796134Y-12660508D01*
X15796134Y-12660508D02*
X15777087Y-12631936D01*
X15777087Y-12631936D02*
X15767563Y-12622412D01*
X10792500Y-12979500D02*
X10992500Y-13179500D01*
X10992500Y-12979500D02*
X10792500Y-13179500D01*
X10992500Y-13079500D02*
G75*
G03*
X10992500Y-13079500I-100000J0D01*
G01*
X11234229Y-12970984D02*
X11358039Y-12970984D01*
X11358039Y-12970984D02*
X11291372Y-13047174D01*
X11291372Y-13047174D02*
X11319943Y-13047174D01*
X11319943Y-13047174D02*
X11338991Y-13056698D01*
X11338991Y-13056698D02*
X11348515Y-13066222D01*
X11348515Y-13066222D02*
X11358039Y-13085269D01*
X11358039Y-13085269D02*
X11358039Y-13132888D01*
X11358039Y-13132888D02*
X11348515Y-13151936D01*
X11348515Y-13151936D02*
X11338991Y-13161460D01*
X11338991Y-13161460D02*
X11319943Y-13170984D01*
X11319943Y-13170984D02*
X11262801Y-13170984D01*
X11262801Y-13170984D02*
X11243753Y-13161460D01*
X11243753Y-13161460D02*
X11234229Y-13151936D01*
X11443753Y-13151936D02*
X11453277Y-13161460D01*
X11453277Y-13161460D02*
X11443753Y-13170984D01*
X11443753Y-13170984D02*
X11434229Y-13161460D01*
X11434229Y-13161460D02*
X11443753Y-13151936D01*
X11443753Y-13151936D02*
X11443753Y-13170984D01*
X11634229Y-12970984D02*
X11538991Y-12970984D01*
X11538991Y-12970984D02*
X11529467Y-13066222D01*
X11529467Y-13066222D02*
X11538991Y-13056698D01*
X11538991Y-13056698D02*
X11558039Y-13047174D01*
X11558039Y-13047174D02*
X11605658Y-13047174D01*
X11605658Y-13047174D02*
X11624705Y-13056698D01*
X11624705Y-13056698D02*
X11634229Y-13066222D01*
X11634229Y-13066222D02*
X11643753Y-13085269D01*
X11643753Y-13085269D02*
X11643753Y-13132888D01*
X11643753Y-13132888D02*
X11634229Y-13151936D01*
X11634229Y-13151936D02*
X11624705Y-13161460D01*
X11624705Y-13161460D02*
X11605658Y-13170984D01*
X11605658Y-13170984D02*
X11558039Y-13170984D01*
X11558039Y-13170984D02*
X11538991Y-13161460D01*
X11538991Y-13161460D02*
X11529467Y-13151936D01*
X11767562Y-12970984D02*
X11786610Y-12970984D01*
X11786610Y-12970984D02*
X11805658Y-12980508D01*
X11805658Y-12980508D02*
X11815182Y-12990031D01*
X11815182Y-12990031D02*
X11824705Y-13009079D01*
X11824705Y-13009079D02*
X11834229Y-13047174D01*
X11834229Y-13047174D02*
X11834229Y-13094793D01*
X11834229Y-13094793D02*
X11824705Y-13132888D01*
X11824705Y-13132888D02*
X11815182Y-13151936D01*
X11815182Y-13151936D02*
X11805658Y-13161460D01*
X11805658Y-13161460D02*
X11786610Y-13170984D01*
X11786610Y-13170984D02*
X11767562Y-13170984D01*
X11767562Y-13170984D02*
X11748515Y-13161460D01*
X11748515Y-13161460D02*
X11738991Y-13151936D01*
X11738991Y-13151936D02*
X11729467Y-13132888D01*
X11729467Y-13132888D02*
X11719943Y-13094793D01*
X11719943Y-13094793D02*
X11719943Y-13047174D01*
X11719943Y-13047174D02*
X11729467Y-13009079D01*
X11729467Y-13009079D02*
X11738991Y-12990031D01*
X11738991Y-12990031D02*
X11748515Y-12980508D01*
X11748515Y-12980508D02*
X11767562Y-12970984D01*
X11958039Y-12970984D02*
X11977086Y-12970984D01*
X11977086Y-12970984D02*
X11996134Y-12980508D01*
X11996134Y-12980508D02*
X12005658Y-12990031D01*
X12005658Y-12990031D02*
X12015182Y-13009079D01*
X12015182Y-13009079D02*
X12024705Y-13047174D01*
X12024705Y-13047174D02*
X12024705Y-13094793D01*
X12024705Y-13094793D02*
X12015182Y-13132888D01*
X12015182Y-13132888D02*
X12005658Y-13151936D01*
X12005658Y-13151936D02*
X11996134Y-13161460D01*
X11996134Y-13161460D02*
X11977086Y-13170984D01*
X11977086Y-13170984D02*
X11958039Y-13170984D01*
X11958039Y-13170984D02*
X11938991Y-13161460D01*
X11938991Y-13161460D02*
X11929467Y-13151936D01*
X11929467Y-13151936D02*
X11919943Y-13132888D01*
X11919943Y-13132888D02*
X11910420Y-13094793D01*
X11910420Y-13094793D02*
X11910420Y-13047174D01*
X11910420Y-13047174D02*
X11919943Y-13009079D01*
X11919943Y-13009079D02*
X11929467Y-12990031D01*
X11929467Y-12990031D02*
X11938991Y-12980508D01*
X11938991Y-12980508D02*
X11958039Y-12970984D01*
X12110420Y-13170984D02*
X12110420Y-13037650D01*
X12110420Y-13056698D02*
X12119943Y-13047174D01*
X12119943Y-13047174D02*
X12138991Y-13037650D01*
X12138991Y-13037650D02*
X12167563Y-13037650D01*
X12167563Y-13037650D02*
X12186610Y-13047174D01*
X12186610Y-13047174D02*
X12196134Y-13066222D01*
X12196134Y-13066222D02*
X12196134Y-13170984D01*
X12196134Y-13066222D02*
X12205658Y-13047174D01*
X12205658Y-13047174D02*
X12224705Y-13037650D01*
X12224705Y-13037650D02*
X12253277Y-13037650D01*
X12253277Y-13037650D02*
X12272324Y-13047174D01*
X12272324Y-13047174D02*
X12281848Y-13066222D01*
X12281848Y-13066222D02*
X12281848Y-13170984D01*
X12377086Y-13170984D02*
X12377086Y-13037650D01*
X12377086Y-13056698D02*
X12386610Y-13047174D01*
X12386610Y-13047174D02*
X12405658Y-13037650D01*
X12405658Y-13037650D02*
X12434229Y-13037650D01*
X12434229Y-13037650D02*
X12453277Y-13047174D01*
X12453277Y-13047174D02*
X12462801Y-13066222D01*
X12462801Y-13066222D02*
X12462801Y-13170984D01*
X12462801Y-13066222D02*
X12472324Y-13047174D01*
X12472324Y-13047174D02*
X12491372Y-13037650D01*
X12491372Y-13037650D02*
X12519943Y-13037650D01*
X12519943Y-13037650D02*
X12538991Y-13047174D01*
X12538991Y-13047174D02*
X12548515Y-13066222D01*
X12548515Y-13066222D02*
X12548515Y-13170984D01*
X12938991Y-12961460D02*
X12767563Y-13218603D01*
X13196134Y-12970984D02*
X13215182Y-12970984D01*
X13215182Y-12970984D02*
X13234229Y-12980508D01*
X13234229Y-12980508D02*
X13243753Y-12990031D01*
X13243753Y-12990031D02*
X13253277Y-13009079D01*
X13253277Y-13009079D02*
X13262801Y-13047174D01*
X13262801Y-13047174D02*
X13262801Y-13094793D01*
X13262801Y-13094793D02*
X13253277Y-13132888D01*
X13253277Y-13132888D02*
X13243753Y-13151936D01*
X13243753Y-13151936D02*
X13234229Y-13161460D01*
X13234229Y-13161460D02*
X13215182Y-13170984D01*
X13215182Y-13170984D02*
X13196134Y-13170984D01*
X13196134Y-13170984D02*
X13177086Y-13161460D01*
X13177086Y-13161460D02*
X13167563Y-13151936D01*
X13167563Y-13151936D02*
X13158039Y-13132888D01*
X13158039Y-13132888D02*
X13148515Y-13094793D01*
X13148515Y-13094793D02*
X13148515Y-13047174D01*
X13148515Y-13047174D02*
X13158039Y-13009079D01*
X13158039Y-13009079D02*
X13167563Y-12990031D01*
X13167563Y-12990031D02*
X13177086Y-12980508D01*
X13177086Y-12980508D02*
X13196134Y-12970984D01*
X13348515Y-13151936D02*
X13358039Y-13161460D01*
X13358039Y-13161460D02*
X13348515Y-13170984D01*
X13348515Y-13170984D02*
X13338991Y-13161460D01*
X13338991Y-13161460D02*
X13348515Y-13151936D01*
X13348515Y-13151936D02*
X13348515Y-13170984D01*
X13548515Y-13170984D02*
X13434229Y-13170984D01*
X13491372Y-13170984D02*
X13491372Y-12970984D01*
X13491372Y-12970984D02*
X13472325Y-12999555D01*
X13472325Y-12999555D02*
X13453277Y-13018603D01*
X13453277Y-13018603D02*
X13434229Y-13028127D01*
X13615182Y-12970984D02*
X13738991Y-12970984D01*
X13738991Y-12970984D02*
X13672325Y-13047174D01*
X13672325Y-13047174D02*
X13700896Y-13047174D01*
X13700896Y-13047174D02*
X13719944Y-13056698D01*
X13719944Y-13056698D02*
X13729467Y-13066222D01*
X13729467Y-13066222D02*
X13738991Y-13085269D01*
X13738991Y-13085269D02*
X13738991Y-13132888D01*
X13738991Y-13132888D02*
X13729467Y-13151936D01*
X13729467Y-13151936D02*
X13719944Y-13161460D01*
X13719944Y-13161460D02*
X13700896Y-13170984D01*
X13700896Y-13170984D02*
X13643753Y-13170984D01*
X13643753Y-13170984D02*
X13624706Y-13161460D01*
X13624706Y-13161460D02*
X13615182Y-13151936D01*
X13805658Y-12970984D02*
X13938991Y-12970984D01*
X13938991Y-12970984D02*
X13853277Y-13170984D01*
X14043753Y-13056698D02*
X14024706Y-13047174D01*
X14024706Y-13047174D02*
X14015182Y-13037650D01*
X14015182Y-13037650D02*
X14005658Y-13018603D01*
X14005658Y-13018603D02*
X14005658Y-13009079D01*
X14005658Y-13009079D02*
X14015182Y-12990031D01*
X14015182Y-12990031D02*
X14024706Y-12980508D01*
X14024706Y-12980508D02*
X14043753Y-12970984D01*
X14043753Y-12970984D02*
X14081848Y-12970984D01*
X14081848Y-12970984D02*
X14100896Y-12980508D01*
X14100896Y-12980508D02*
X14110420Y-12990031D01*
X14110420Y-12990031D02*
X14119944Y-13009079D01*
X14119944Y-13009079D02*
X14119944Y-13018603D01*
X14119944Y-13018603D02*
X14110420Y-13037650D01*
X14110420Y-13037650D02*
X14100896Y-13047174D01*
X14100896Y-13047174D02*
X14081848Y-13056698D01*
X14081848Y-13056698D02*
X14043753Y-13056698D01*
X14043753Y-13056698D02*
X14024706Y-13066222D01*
X14024706Y-13066222D02*
X14015182Y-13075746D01*
X14015182Y-13075746D02*
X14005658Y-13094793D01*
X14005658Y-13094793D02*
X14005658Y-13132888D01*
X14005658Y-13132888D02*
X14015182Y-13151936D01*
X14015182Y-13151936D02*
X14024706Y-13161460D01*
X14024706Y-13161460D02*
X14043753Y-13170984D01*
X14043753Y-13170984D02*
X14081848Y-13170984D01*
X14081848Y-13170984D02*
X14100896Y-13161460D01*
X14100896Y-13161460D02*
X14110420Y-13151936D01*
X14110420Y-13151936D02*
X14119944Y-13132888D01*
X14119944Y-13132888D02*
X14119944Y-13094793D01*
X14119944Y-13094793D02*
X14110420Y-13075746D01*
X14110420Y-13075746D02*
X14100896Y-13066222D01*
X14100896Y-13066222D02*
X14081848Y-13056698D01*
X14196134Y-12970984D02*
X14196134Y-13009079D01*
X14272325Y-12970984D02*
X14272325Y-13009079D01*
X14567563Y-13247174D02*
X14558039Y-13237650D01*
X14558039Y-13237650D02*
X14538991Y-13209079D01*
X14538991Y-13209079D02*
X14529468Y-13190031D01*
X14529468Y-13190031D02*
X14519944Y-13161460D01*
X14519944Y-13161460D02*
X14510420Y-13113841D01*
X14510420Y-13113841D02*
X14510420Y-13075746D01*
X14510420Y-13075746D02*
X14519944Y-13028127D01*
X14519944Y-13028127D02*
X14529468Y-12999555D01*
X14529468Y-12999555D02*
X14538991Y-12980508D01*
X14538991Y-12980508D02*
X14558039Y-12951936D01*
X14558039Y-12951936D02*
X14567563Y-12942412D01*
X14729468Y-13037650D02*
X14729468Y-13170984D01*
X14681848Y-12961460D02*
X14634229Y-13104317D01*
X14634229Y-13104317D02*
X14758039Y-13104317D01*
X14986610Y-13170984D02*
X14986610Y-12970984D01*
X15072325Y-13170984D02*
X15072325Y-13066222D01*
X15072325Y-13066222D02*
X15062801Y-13047174D01*
X15062801Y-13047174D02*
X15043753Y-13037650D01*
X15043753Y-13037650D02*
X15015182Y-13037650D01*
X15015182Y-13037650D02*
X14996134Y-13047174D01*
X14996134Y-13047174D02*
X14986610Y-13056698D01*
X15196134Y-13170984D02*
X15177087Y-13161460D01*
X15177087Y-13161460D02*
X15167563Y-13151936D01*
X15167563Y-13151936D02*
X15158039Y-13132888D01*
X15158039Y-13132888D02*
X15158039Y-13075746D01*
X15158039Y-13075746D02*
X15167563Y-13056698D01*
X15167563Y-13056698D02*
X15177087Y-13047174D01*
X15177087Y-13047174D02*
X15196134Y-13037650D01*
X15196134Y-13037650D02*
X15224706Y-13037650D01*
X15224706Y-13037650D02*
X15243753Y-13047174D01*
X15243753Y-13047174D02*
X15253277Y-13056698D01*
X15253277Y-13056698D02*
X15262801Y-13075746D01*
X15262801Y-13075746D02*
X15262801Y-13132888D01*
X15262801Y-13132888D02*
X15253277Y-13151936D01*
X15253277Y-13151936D02*
X15243753Y-13161460D01*
X15243753Y-13161460D02*
X15224706Y-13170984D01*
X15224706Y-13170984D02*
X15196134Y-13170984D01*
X15377087Y-13170984D02*
X15358039Y-13161460D01*
X15358039Y-13161460D02*
X15348515Y-13142412D01*
X15348515Y-13142412D02*
X15348515Y-12970984D01*
X15529468Y-13161460D02*
X15510420Y-13170984D01*
X15510420Y-13170984D02*
X15472325Y-13170984D01*
X15472325Y-13170984D02*
X15453277Y-13161460D01*
X15453277Y-13161460D02*
X15443753Y-13142412D01*
X15443753Y-13142412D02*
X15443753Y-13066222D01*
X15443753Y-13066222D02*
X15453277Y-13047174D01*
X15453277Y-13047174D02*
X15472325Y-13037650D01*
X15472325Y-13037650D02*
X15510420Y-13037650D01*
X15510420Y-13037650D02*
X15529468Y-13047174D01*
X15529468Y-13047174D02*
X15538991Y-13066222D01*
X15538991Y-13066222D02*
X15538991Y-13085269D01*
X15538991Y-13085269D02*
X15443753Y-13104317D01*
X15615182Y-13161460D02*
X15634230Y-13170984D01*
X15634230Y-13170984D02*
X15672325Y-13170984D01*
X15672325Y-13170984D02*
X15691372Y-13161460D01*
X15691372Y-13161460D02*
X15700896Y-13142412D01*
X15700896Y-13142412D02*
X15700896Y-13132888D01*
X15700896Y-13132888D02*
X15691372Y-13113841D01*
X15691372Y-13113841D02*
X15672325Y-13104317D01*
X15672325Y-13104317D02*
X15643753Y-13104317D01*
X15643753Y-13104317D02*
X15624706Y-13094793D01*
X15624706Y-13094793D02*
X15615182Y-13075746D01*
X15615182Y-13075746D02*
X15615182Y-13066222D01*
X15615182Y-13066222D02*
X15624706Y-13047174D01*
X15624706Y-13047174D02*
X15643753Y-13037650D01*
X15643753Y-13037650D02*
X15672325Y-13037650D01*
X15672325Y-13037650D02*
X15691372Y-13047174D01*
X15767563Y-13247174D02*
X15777087Y-13237650D01*
X15777087Y-13237650D02*
X15796134Y-13209079D01*
X15796134Y-13209079D02*
X15805658Y-13190031D01*
X15805658Y-13190031D02*
X15815182Y-13161460D01*
X15815182Y-13161460D02*
X15824706Y-13113841D01*
X15824706Y-13113841D02*
X15824706Y-13075746D01*
X15824706Y-13075746D02*
X15815182Y-13028127D01*
X15815182Y-13028127D02*
X15805658Y-12999555D01*
X15805658Y-12999555D02*
X15796134Y-12980508D01*
X15796134Y-12980508D02*
X15777087Y-12951936D01*
X15777087Y-12951936D02*
X15767563Y-12942412D01*
M02*
