%TF.GenerationSoftware,KiCad,Pcbnew,7.0.7*%
%TF.CreationDate,2024-01-25T14:39:41+01:00*%
%TF.ProjectId,rotor,726f746f-722e-46b6-9963-61645f706362,rev?*%
%TF.SameCoordinates,Original*%
%TF.FileFunction,Drillmap*%
%TF.FilePolarity,Positive*%
%FSLAX45Y45*%
G04 Gerber Fmt 4.5, Leading zero omitted, Abs format (unit mm)*
G04 Created by KiCad (PCBNEW 7.0.7) date 2024-01-25 14:39:41*
%MOMM*%
%LPD*%
G01*
G04 APERTURE LIST*
%ADD10C,0.150000*%
%ADD11C,0.200000*%
%ADD12C,0.320000*%
G04 APERTURE END LIST*
D10*
X11000000Y2500000D02*
X21000000Y2500000D01*
X21000000Y-11000000D01*
X11000000Y-11000000D01*
X11000000Y2500000D01*
D11*
D12*
X11237000Y-9586000D02*
X11557000Y-9906000D01*
X11557000Y-9586000D02*
X11237000Y-9906000D01*
X11364000Y-4760000D02*
X11684000Y-5080000D01*
X11684000Y-4760000D02*
X11364000Y-5080000D01*
X16444000Y-6284000D02*
X16764000Y-6604000D01*
X16764000Y-6284000D02*
X16444000Y-6604000D01*
X16444000Y-9078000D02*
X16764000Y-9398000D01*
X16764000Y-9078000D02*
X16444000Y-9398000D01*
X18857000Y-4760000D02*
X19177000Y-5080000D01*
X19177000Y-4760000D02*
X18857000Y-5080000D01*
X19492000Y-9586000D02*
X19812000Y-9906000D01*
X19812000Y-9586000D02*
X19492000Y-9906000D01*
D11*
X11253277Y-11318984D02*
X11253277Y-11118984D01*
X11253277Y-11118984D02*
X11300896Y-11118984D01*
X11300896Y-11118984D02*
X11329467Y-11128508D01*
X11329467Y-11128508D02*
X11348515Y-11147555D01*
X11348515Y-11147555D02*
X11358039Y-11166603D01*
X11358039Y-11166603D02*
X11367562Y-11204698D01*
X11367562Y-11204698D02*
X11367562Y-11233269D01*
X11367562Y-11233269D02*
X11358039Y-11271365D01*
X11358039Y-11271365D02*
X11348515Y-11290412D01*
X11348515Y-11290412D02*
X11329467Y-11309460D01*
X11329467Y-11309460D02*
X11300896Y-11318984D01*
X11300896Y-11318984D02*
X11253277Y-11318984D01*
X11453277Y-11318984D02*
X11453277Y-11185650D01*
X11453277Y-11223746D02*
X11462801Y-11204698D01*
X11462801Y-11204698D02*
X11472324Y-11195174D01*
X11472324Y-11195174D02*
X11491372Y-11185650D01*
X11491372Y-11185650D02*
X11510420Y-11185650D01*
X11577086Y-11318984D02*
X11577086Y-11185650D01*
X11577086Y-11118984D02*
X11567562Y-11128508D01*
X11567562Y-11128508D02*
X11577086Y-11138031D01*
X11577086Y-11138031D02*
X11586610Y-11128508D01*
X11586610Y-11128508D02*
X11577086Y-11118984D01*
X11577086Y-11118984D02*
X11577086Y-11138031D01*
X11700896Y-11318984D02*
X11681848Y-11309460D01*
X11681848Y-11309460D02*
X11672324Y-11290412D01*
X11672324Y-11290412D02*
X11672324Y-11118984D01*
X11805658Y-11318984D02*
X11786610Y-11309460D01*
X11786610Y-11309460D02*
X11777086Y-11290412D01*
X11777086Y-11290412D02*
X11777086Y-11118984D01*
X12034229Y-11318984D02*
X12034229Y-11118984D01*
X12034229Y-11118984D02*
X12100896Y-11261841D01*
X12100896Y-11261841D02*
X12167562Y-11118984D01*
X12167562Y-11118984D02*
X12167562Y-11318984D01*
X12348515Y-11318984D02*
X12348515Y-11214222D01*
X12348515Y-11214222D02*
X12338991Y-11195174D01*
X12338991Y-11195174D02*
X12319943Y-11185650D01*
X12319943Y-11185650D02*
X12281848Y-11185650D01*
X12281848Y-11185650D02*
X12262801Y-11195174D01*
X12348515Y-11309460D02*
X12329467Y-11318984D01*
X12329467Y-11318984D02*
X12281848Y-11318984D01*
X12281848Y-11318984D02*
X12262801Y-11309460D01*
X12262801Y-11309460D02*
X12253277Y-11290412D01*
X12253277Y-11290412D02*
X12253277Y-11271365D01*
X12253277Y-11271365D02*
X12262801Y-11252317D01*
X12262801Y-11252317D02*
X12281848Y-11242793D01*
X12281848Y-11242793D02*
X12329467Y-11242793D01*
X12329467Y-11242793D02*
X12348515Y-11233269D01*
X12443753Y-11185650D02*
X12443753Y-11385650D01*
X12443753Y-11195174D02*
X12462801Y-11185650D01*
X12462801Y-11185650D02*
X12500896Y-11185650D01*
X12500896Y-11185650D02*
X12519943Y-11195174D01*
X12519943Y-11195174D02*
X12529467Y-11204698D01*
X12529467Y-11204698D02*
X12538991Y-11223746D01*
X12538991Y-11223746D02*
X12538991Y-11280888D01*
X12538991Y-11280888D02*
X12529467Y-11299936D01*
X12529467Y-11299936D02*
X12519943Y-11309460D01*
X12519943Y-11309460D02*
X12500896Y-11318984D01*
X12500896Y-11318984D02*
X12462801Y-11318984D01*
X12462801Y-11318984D02*
X12443753Y-11309460D01*
X12624705Y-11299936D02*
X12634229Y-11309460D01*
X12634229Y-11309460D02*
X12624705Y-11318984D01*
X12624705Y-11318984D02*
X12615182Y-11309460D01*
X12615182Y-11309460D02*
X12624705Y-11299936D01*
X12624705Y-11299936D02*
X12624705Y-11318984D01*
X12624705Y-11195174D02*
X12634229Y-11204698D01*
X12634229Y-11204698D02*
X12624705Y-11214222D01*
X12624705Y-11214222D02*
X12615182Y-11204698D01*
X12615182Y-11204698D02*
X12624705Y-11195174D01*
X12624705Y-11195174D02*
X12624705Y-11214222D01*
X10792500Y-11547500D02*
X10992500Y-11747500D01*
X10992500Y-11547500D02*
X10792500Y-11747500D01*
X11234229Y-11538984D02*
X11358039Y-11538984D01*
X11358039Y-11538984D02*
X11291372Y-11615174D01*
X11291372Y-11615174D02*
X11319943Y-11615174D01*
X11319943Y-11615174D02*
X11338991Y-11624698D01*
X11338991Y-11624698D02*
X11348515Y-11634222D01*
X11348515Y-11634222D02*
X11358039Y-11653269D01*
X11358039Y-11653269D02*
X11358039Y-11700888D01*
X11358039Y-11700888D02*
X11348515Y-11719936D01*
X11348515Y-11719936D02*
X11338991Y-11729460D01*
X11338991Y-11729460D02*
X11319943Y-11738984D01*
X11319943Y-11738984D02*
X11262801Y-11738984D01*
X11262801Y-11738984D02*
X11243753Y-11729460D01*
X11243753Y-11729460D02*
X11234229Y-11719936D01*
X11443753Y-11719936D02*
X11453277Y-11729460D01*
X11453277Y-11729460D02*
X11443753Y-11738984D01*
X11443753Y-11738984D02*
X11434229Y-11729460D01*
X11434229Y-11729460D02*
X11443753Y-11719936D01*
X11443753Y-11719936D02*
X11443753Y-11738984D01*
X11529467Y-11558031D02*
X11538991Y-11548508D01*
X11538991Y-11548508D02*
X11558039Y-11538984D01*
X11558039Y-11538984D02*
X11605658Y-11538984D01*
X11605658Y-11538984D02*
X11624705Y-11548508D01*
X11624705Y-11548508D02*
X11634229Y-11558031D01*
X11634229Y-11558031D02*
X11643753Y-11577079D01*
X11643753Y-11577079D02*
X11643753Y-11596127D01*
X11643753Y-11596127D02*
X11634229Y-11624698D01*
X11634229Y-11624698D02*
X11519943Y-11738984D01*
X11519943Y-11738984D02*
X11643753Y-11738984D01*
X11767562Y-11538984D02*
X11786610Y-11538984D01*
X11786610Y-11538984D02*
X11805658Y-11548508D01*
X11805658Y-11548508D02*
X11815182Y-11558031D01*
X11815182Y-11558031D02*
X11824705Y-11577079D01*
X11824705Y-11577079D02*
X11834229Y-11615174D01*
X11834229Y-11615174D02*
X11834229Y-11662793D01*
X11834229Y-11662793D02*
X11824705Y-11700888D01*
X11824705Y-11700888D02*
X11815182Y-11719936D01*
X11815182Y-11719936D02*
X11805658Y-11729460D01*
X11805658Y-11729460D02*
X11786610Y-11738984D01*
X11786610Y-11738984D02*
X11767562Y-11738984D01*
X11767562Y-11738984D02*
X11748515Y-11729460D01*
X11748515Y-11729460D02*
X11738991Y-11719936D01*
X11738991Y-11719936D02*
X11729467Y-11700888D01*
X11729467Y-11700888D02*
X11719943Y-11662793D01*
X11719943Y-11662793D02*
X11719943Y-11615174D01*
X11719943Y-11615174D02*
X11729467Y-11577079D01*
X11729467Y-11577079D02*
X11738991Y-11558031D01*
X11738991Y-11558031D02*
X11748515Y-11548508D01*
X11748515Y-11548508D02*
X11767562Y-11538984D01*
X11958039Y-11538984D02*
X11977086Y-11538984D01*
X11977086Y-11538984D02*
X11996134Y-11548508D01*
X11996134Y-11548508D02*
X12005658Y-11558031D01*
X12005658Y-11558031D02*
X12015182Y-11577079D01*
X12015182Y-11577079D02*
X12024705Y-11615174D01*
X12024705Y-11615174D02*
X12024705Y-11662793D01*
X12024705Y-11662793D02*
X12015182Y-11700888D01*
X12015182Y-11700888D02*
X12005658Y-11719936D01*
X12005658Y-11719936D02*
X11996134Y-11729460D01*
X11996134Y-11729460D02*
X11977086Y-11738984D01*
X11977086Y-11738984D02*
X11958039Y-11738984D01*
X11958039Y-11738984D02*
X11938991Y-11729460D01*
X11938991Y-11729460D02*
X11929467Y-11719936D01*
X11929467Y-11719936D02*
X11919943Y-11700888D01*
X11919943Y-11700888D02*
X11910420Y-11662793D01*
X11910420Y-11662793D02*
X11910420Y-11615174D01*
X11910420Y-11615174D02*
X11919943Y-11577079D01*
X11919943Y-11577079D02*
X11929467Y-11558031D01*
X11929467Y-11558031D02*
X11938991Y-11548508D01*
X11938991Y-11548508D02*
X11958039Y-11538984D01*
X12110420Y-11738984D02*
X12110420Y-11605650D01*
X12110420Y-11624698D02*
X12119943Y-11615174D01*
X12119943Y-11615174D02*
X12138991Y-11605650D01*
X12138991Y-11605650D02*
X12167563Y-11605650D01*
X12167563Y-11605650D02*
X12186610Y-11615174D01*
X12186610Y-11615174D02*
X12196134Y-11634222D01*
X12196134Y-11634222D02*
X12196134Y-11738984D01*
X12196134Y-11634222D02*
X12205658Y-11615174D01*
X12205658Y-11615174D02*
X12224705Y-11605650D01*
X12224705Y-11605650D02*
X12253277Y-11605650D01*
X12253277Y-11605650D02*
X12272324Y-11615174D01*
X12272324Y-11615174D02*
X12281848Y-11634222D01*
X12281848Y-11634222D02*
X12281848Y-11738984D01*
X12377086Y-11738984D02*
X12377086Y-11605650D01*
X12377086Y-11624698D02*
X12386610Y-11615174D01*
X12386610Y-11615174D02*
X12405658Y-11605650D01*
X12405658Y-11605650D02*
X12434229Y-11605650D01*
X12434229Y-11605650D02*
X12453277Y-11615174D01*
X12453277Y-11615174D02*
X12462801Y-11634222D01*
X12462801Y-11634222D02*
X12462801Y-11738984D01*
X12462801Y-11634222D02*
X12472324Y-11615174D01*
X12472324Y-11615174D02*
X12491372Y-11605650D01*
X12491372Y-11605650D02*
X12519943Y-11605650D01*
X12519943Y-11605650D02*
X12538991Y-11615174D01*
X12538991Y-11615174D02*
X12548515Y-11634222D01*
X12548515Y-11634222D02*
X12548515Y-11738984D01*
X12938991Y-11529460D02*
X12767563Y-11786603D01*
X13196134Y-11538984D02*
X13215182Y-11538984D01*
X13215182Y-11538984D02*
X13234229Y-11548508D01*
X13234229Y-11548508D02*
X13243753Y-11558031D01*
X13243753Y-11558031D02*
X13253277Y-11577079D01*
X13253277Y-11577079D02*
X13262801Y-11615174D01*
X13262801Y-11615174D02*
X13262801Y-11662793D01*
X13262801Y-11662793D02*
X13253277Y-11700888D01*
X13253277Y-11700888D02*
X13243753Y-11719936D01*
X13243753Y-11719936D02*
X13234229Y-11729460D01*
X13234229Y-11729460D02*
X13215182Y-11738984D01*
X13215182Y-11738984D02*
X13196134Y-11738984D01*
X13196134Y-11738984D02*
X13177086Y-11729460D01*
X13177086Y-11729460D02*
X13167563Y-11719936D01*
X13167563Y-11719936D02*
X13158039Y-11700888D01*
X13158039Y-11700888D02*
X13148515Y-11662793D01*
X13148515Y-11662793D02*
X13148515Y-11615174D01*
X13148515Y-11615174D02*
X13158039Y-11577079D01*
X13158039Y-11577079D02*
X13167563Y-11558031D01*
X13167563Y-11558031D02*
X13177086Y-11548508D01*
X13177086Y-11548508D02*
X13196134Y-11538984D01*
X13348515Y-11719936D02*
X13358039Y-11729460D01*
X13358039Y-11729460D02*
X13348515Y-11738984D01*
X13348515Y-11738984D02*
X13338991Y-11729460D01*
X13338991Y-11729460D02*
X13348515Y-11719936D01*
X13348515Y-11719936D02*
X13348515Y-11738984D01*
X13548515Y-11738984D02*
X13434229Y-11738984D01*
X13491372Y-11738984D02*
X13491372Y-11538984D01*
X13491372Y-11538984D02*
X13472325Y-11567555D01*
X13472325Y-11567555D02*
X13453277Y-11586603D01*
X13453277Y-11586603D02*
X13434229Y-11596127D01*
X13624706Y-11558031D02*
X13634229Y-11548508D01*
X13634229Y-11548508D02*
X13653277Y-11538984D01*
X13653277Y-11538984D02*
X13700896Y-11538984D01*
X13700896Y-11538984D02*
X13719944Y-11548508D01*
X13719944Y-11548508D02*
X13729467Y-11558031D01*
X13729467Y-11558031D02*
X13738991Y-11577079D01*
X13738991Y-11577079D02*
X13738991Y-11596127D01*
X13738991Y-11596127D02*
X13729467Y-11624698D01*
X13729467Y-11624698D02*
X13615182Y-11738984D01*
X13615182Y-11738984D02*
X13738991Y-11738984D01*
X13910420Y-11538984D02*
X13872325Y-11538984D01*
X13872325Y-11538984D02*
X13853277Y-11548508D01*
X13853277Y-11548508D02*
X13843753Y-11558031D01*
X13843753Y-11558031D02*
X13824706Y-11586603D01*
X13824706Y-11586603D02*
X13815182Y-11624698D01*
X13815182Y-11624698D02*
X13815182Y-11700888D01*
X13815182Y-11700888D02*
X13824706Y-11719936D01*
X13824706Y-11719936D02*
X13834229Y-11729460D01*
X13834229Y-11729460D02*
X13853277Y-11738984D01*
X13853277Y-11738984D02*
X13891372Y-11738984D01*
X13891372Y-11738984D02*
X13910420Y-11729460D01*
X13910420Y-11729460D02*
X13919944Y-11719936D01*
X13919944Y-11719936D02*
X13929467Y-11700888D01*
X13929467Y-11700888D02*
X13929467Y-11653269D01*
X13929467Y-11653269D02*
X13919944Y-11634222D01*
X13919944Y-11634222D02*
X13910420Y-11624698D01*
X13910420Y-11624698D02*
X13891372Y-11615174D01*
X13891372Y-11615174D02*
X13853277Y-11615174D01*
X13853277Y-11615174D02*
X13834229Y-11624698D01*
X13834229Y-11624698D02*
X13824706Y-11634222D01*
X13824706Y-11634222D02*
X13815182Y-11653269D01*
X14053277Y-11538984D02*
X14072325Y-11538984D01*
X14072325Y-11538984D02*
X14091372Y-11548508D01*
X14091372Y-11548508D02*
X14100896Y-11558031D01*
X14100896Y-11558031D02*
X14110420Y-11577079D01*
X14110420Y-11577079D02*
X14119944Y-11615174D01*
X14119944Y-11615174D02*
X14119944Y-11662793D01*
X14119944Y-11662793D02*
X14110420Y-11700888D01*
X14110420Y-11700888D02*
X14100896Y-11719936D01*
X14100896Y-11719936D02*
X14091372Y-11729460D01*
X14091372Y-11729460D02*
X14072325Y-11738984D01*
X14072325Y-11738984D02*
X14053277Y-11738984D01*
X14053277Y-11738984D02*
X14034229Y-11729460D01*
X14034229Y-11729460D02*
X14024706Y-11719936D01*
X14024706Y-11719936D02*
X14015182Y-11700888D01*
X14015182Y-11700888D02*
X14005658Y-11662793D01*
X14005658Y-11662793D02*
X14005658Y-11615174D01*
X14005658Y-11615174D02*
X14015182Y-11577079D01*
X14015182Y-11577079D02*
X14024706Y-11558031D01*
X14024706Y-11558031D02*
X14034229Y-11548508D01*
X14034229Y-11548508D02*
X14053277Y-11538984D01*
X14196134Y-11538984D02*
X14196134Y-11577079D01*
X14272325Y-11538984D02*
X14272325Y-11577079D01*
X14567563Y-11815174D02*
X14558039Y-11805650D01*
X14558039Y-11805650D02*
X14538991Y-11777079D01*
X14538991Y-11777079D02*
X14529468Y-11758031D01*
X14529468Y-11758031D02*
X14519944Y-11729460D01*
X14519944Y-11729460D02*
X14510420Y-11681841D01*
X14510420Y-11681841D02*
X14510420Y-11643746D01*
X14510420Y-11643746D02*
X14519944Y-11596127D01*
X14519944Y-11596127D02*
X14529468Y-11567555D01*
X14529468Y-11567555D02*
X14538991Y-11548508D01*
X14538991Y-11548508D02*
X14558039Y-11519936D01*
X14558039Y-11519936D02*
X14567563Y-11510412D01*
X14729468Y-11538984D02*
X14691372Y-11538984D01*
X14691372Y-11538984D02*
X14672325Y-11548508D01*
X14672325Y-11548508D02*
X14662801Y-11558031D01*
X14662801Y-11558031D02*
X14643753Y-11586603D01*
X14643753Y-11586603D02*
X14634229Y-11624698D01*
X14634229Y-11624698D02*
X14634229Y-11700888D01*
X14634229Y-11700888D02*
X14643753Y-11719936D01*
X14643753Y-11719936D02*
X14653277Y-11729460D01*
X14653277Y-11729460D02*
X14672325Y-11738984D01*
X14672325Y-11738984D02*
X14710420Y-11738984D01*
X14710420Y-11738984D02*
X14729468Y-11729460D01*
X14729468Y-11729460D02*
X14738991Y-11719936D01*
X14738991Y-11719936D02*
X14748515Y-11700888D01*
X14748515Y-11700888D02*
X14748515Y-11653269D01*
X14748515Y-11653269D02*
X14738991Y-11634222D01*
X14738991Y-11634222D02*
X14729468Y-11624698D01*
X14729468Y-11624698D02*
X14710420Y-11615174D01*
X14710420Y-11615174D02*
X14672325Y-11615174D01*
X14672325Y-11615174D02*
X14653277Y-11624698D01*
X14653277Y-11624698D02*
X14643753Y-11634222D01*
X14643753Y-11634222D02*
X14634229Y-11653269D01*
X14986610Y-11738984D02*
X14986610Y-11538984D01*
X15072325Y-11738984D02*
X15072325Y-11634222D01*
X15072325Y-11634222D02*
X15062801Y-11615174D01*
X15062801Y-11615174D02*
X15043753Y-11605650D01*
X15043753Y-11605650D02*
X15015182Y-11605650D01*
X15015182Y-11605650D02*
X14996134Y-11615174D01*
X14996134Y-11615174D02*
X14986610Y-11624698D01*
X15196134Y-11738984D02*
X15177087Y-11729460D01*
X15177087Y-11729460D02*
X15167563Y-11719936D01*
X15167563Y-11719936D02*
X15158039Y-11700888D01*
X15158039Y-11700888D02*
X15158039Y-11643746D01*
X15158039Y-11643746D02*
X15167563Y-11624698D01*
X15167563Y-11624698D02*
X15177087Y-11615174D01*
X15177087Y-11615174D02*
X15196134Y-11605650D01*
X15196134Y-11605650D02*
X15224706Y-11605650D01*
X15224706Y-11605650D02*
X15243753Y-11615174D01*
X15243753Y-11615174D02*
X15253277Y-11624698D01*
X15253277Y-11624698D02*
X15262801Y-11643746D01*
X15262801Y-11643746D02*
X15262801Y-11700888D01*
X15262801Y-11700888D02*
X15253277Y-11719936D01*
X15253277Y-11719936D02*
X15243753Y-11729460D01*
X15243753Y-11729460D02*
X15224706Y-11738984D01*
X15224706Y-11738984D02*
X15196134Y-11738984D01*
X15377087Y-11738984D02*
X15358039Y-11729460D01*
X15358039Y-11729460D02*
X15348515Y-11710412D01*
X15348515Y-11710412D02*
X15348515Y-11538984D01*
X15529468Y-11729460D02*
X15510420Y-11738984D01*
X15510420Y-11738984D02*
X15472325Y-11738984D01*
X15472325Y-11738984D02*
X15453277Y-11729460D01*
X15453277Y-11729460D02*
X15443753Y-11710412D01*
X15443753Y-11710412D02*
X15443753Y-11634222D01*
X15443753Y-11634222D02*
X15453277Y-11615174D01*
X15453277Y-11615174D02*
X15472325Y-11605650D01*
X15472325Y-11605650D02*
X15510420Y-11605650D01*
X15510420Y-11605650D02*
X15529468Y-11615174D01*
X15529468Y-11615174D02*
X15538991Y-11634222D01*
X15538991Y-11634222D02*
X15538991Y-11653269D01*
X15538991Y-11653269D02*
X15443753Y-11672317D01*
X15615182Y-11729460D02*
X15634230Y-11738984D01*
X15634230Y-11738984D02*
X15672325Y-11738984D01*
X15672325Y-11738984D02*
X15691372Y-11729460D01*
X15691372Y-11729460D02*
X15700896Y-11710412D01*
X15700896Y-11710412D02*
X15700896Y-11700888D01*
X15700896Y-11700888D02*
X15691372Y-11681841D01*
X15691372Y-11681841D02*
X15672325Y-11672317D01*
X15672325Y-11672317D02*
X15643753Y-11672317D01*
X15643753Y-11672317D02*
X15624706Y-11662793D01*
X15624706Y-11662793D02*
X15615182Y-11643746D01*
X15615182Y-11643746D02*
X15615182Y-11634222D01*
X15615182Y-11634222D02*
X15624706Y-11615174D01*
X15624706Y-11615174D02*
X15643753Y-11605650D01*
X15643753Y-11605650D02*
X15672325Y-11605650D01*
X15672325Y-11605650D02*
X15691372Y-11615174D01*
X15767563Y-11815174D02*
X15777087Y-11805650D01*
X15777087Y-11805650D02*
X15796134Y-11777079D01*
X15796134Y-11777079D02*
X15805658Y-11758031D01*
X15805658Y-11758031D02*
X15815182Y-11729460D01*
X15815182Y-11729460D02*
X15824706Y-11681841D01*
X15824706Y-11681841D02*
X15824706Y-11643746D01*
X15824706Y-11643746D02*
X15815182Y-11596127D01*
X15815182Y-11596127D02*
X15805658Y-11567555D01*
X15805658Y-11567555D02*
X15796134Y-11548508D01*
X15796134Y-11548508D02*
X15777087Y-11519936D01*
X15777087Y-11519936D02*
X15767563Y-11510412D01*
X16129468Y-11815174D02*
X16119944Y-11805650D01*
X16119944Y-11805650D02*
X16100896Y-11777079D01*
X16100896Y-11777079D02*
X16091372Y-11758031D01*
X16091372Y-11758031D02*
X16081849Y-11729460D01*
X16081849Y-11729460D02*
X16072325Y-11681841D01*
X16072325Y-11681841D02*
X16072325Y-11643746D01*
X16072325Y-11643746D02*
X16081849Y-11596127D01*
X16081849Y-11596127D02*
X16091372Y-11567555D01*
X16091372Y-11567555D02*
X16100896Y-11548508D01*
X16100896Y-11548508D02*
X16119944Y-11519936D01*
X16119944Y-11519936D02*
X16129468Y-11510412D01*
X16205658Y-11605650D02*
X16205658Y-11738984D01*
X16205658Y-11624698D02*
X16215182Y-11615174D01*
X16215182Y-11615174D02*
X16234230Y-11605650D01*
X16234230Y-11605650D02*
X16262801Y-11605650D01*
X16262801Y-11605650D02*
X16281849Y-11615174D01*
X16281849Y-11615174D02*
X16291372Y-11634222D01*
X16291372Y-11634222D02*
X16291372Y-11738984D01*
X16415182Y-11738984D02*
X16396134Y-11729460D01*
X16396134Y-11729460D02*
X16386611Y-11719936D01*
X16386611Y-11719936D02*
X16377087Y-11700888D01*
X16377087Y-11700888D02*
X16377087Y-11643746D01*
X16377087Y-11643746D02*
X16386611Y-11624698D01*
X16386611Y-11624698D02*
X16396134Y-11615174D01*
X16396134Y-11615174D02*
X16415182Y-11605650D01*
X16415182Y-11605650D02*
X16443753Y-11605650D01*
X16443753Y-11605650D02*
X16462801Y-11615174D01*
X16462801Y-11615174D02*
X16472325Y-11624698D01*
X16472325Y-11624698D02*
X16481849Y-11643746D01*
X16481849Y-11643746D02*
X16481849Y-11700888D01*
X16481849Y-11700888D02*
X16472325Y-11719936D01*
X16472325Y-11719936D02*
X16462801Y-11729460D01*
X16462801Y-11729460D02*
X16443753Y-11738984D01*
X16443753Y-11738984D02*
X16415182Y-11738984D01*
X16538992Y-11605650D02*
X16615182Y-11605650D01*
X16567563Y-11538984D02*
X16567563Y-11710412D01*
X16567563Y-11710412D02*
X16577087Y-11729460D01*
X16577087Y-11729460D02*
X16596134Y-11738984D01*
X16596134Y-11738984D02*
X16615182Y-11738984D01*
X16834230Y-11605650D02*
X16834230Y-11805650D01*
X16834230Y-11615174D02*
X16853277Y-11605650D01*
X16853277Y-11605650D02*
X16891373Y-11605650D01*
X16891373Y-11605650D02*
X16910420Y-11615174D01*
X16910420Y-11615174D02*
X16919944Y-11624698D01*
X16919944Y-11624698D02*
X16929468Y-11643746D01*
X16929468Y-11643746D02*
X16929468Y-11700888D01*
X16929468Y-11700888D02*
X16919944Y-11719936D01*
X16919944Y-11719936D02*
X16910420Y-11729460D01*
X16910420Y-11729460D02*
X16891373Y-11738984D01*
X16891373Y-11738984D02*
X16853277Y-11738984D01*
X16853277Y-11738984D02*
X16834230Y-11729460D01*
X17043754Y-11738984D02*
X17024706Y-11729460D01*
X17024706Y-11729460D02*
X17015182Y-11710412D01*
X17015182Y-11710412D02*
X17015182Y-11538984D01*
X17205658Y-11738984D02*
X17205658Y-11634222D01*
X17205658Y-11634222D02*
X17196135Y-11615174D01*
X17196135Y-11615174D02*
X17177087Y-11605650D01*
X17177087Y-11605650D02*
X17138992Y-11605650D01*
X17138992Y-11605650D02*
X17119944Y-11615174D01*
X17205658Y-11729460D02*
X17186611Y-11738984D01*
X17186611Y-11738984D02*
X17138992Y-11738984D01*
X17138992Y-11738984D02*
X17119944Y-11729460D01*
X17119944Y-11729460D02*
X17110420Y-11710412D01*
X17110420Y-11710412D02*
X17110420Y-11691365D01*
X17110420Y-11691365D02*
X17119944Y-11672317D01*
X17119944Y-11672317D02*
X17138992Y-11662793D01*
X17138992Y-11662793D02*
X17186611Y-11662793D01*
X17186611Y-11662793D02*
X17205658Y-11653269D01*
X17272325Y-11605650D02*
X17348515Y-11605650D01*
X17300896Y-11538984D02*
X17300896Y-11710412D01*
X17300896Y-11710412D02*
X17310420Y-11729460D01*
X17310420Y-11729460D02*
X17329468Y-11738984D01*
X17329468Y-11738984D02*
X17348515Y-11738984D01*
X17491373Y-11729460D02*
X17472325Y-11738984D01*
X17472325Y-11738984D02*
X17434230Y-11738984D01*
X17434230Y-11738984D02*
X17415182Y-11729460D01*
X17415182Y-11729460D02*
X17405658Y-11710412D01*
X17405658Y-11710412D02*
X17405658Y-11634222D01*
X17405658Y-11634222D02*
X17415182Y-11615174D01*
X17415182Y-11615174D02*
X17434230Y-11605650D01*
X17434230Y-11605650D02*
X17472325Y-11605650D01*
X17472325Y-11605650D02*
X17491373Y-11615174D01*
X17491373Y-11615174D02*
X17500896Y-11634222D01*
X17500896Y-11634222D02*
X17500896Y-11653269D01*
X17500896Y-11653269D02*
X17405658Y-11672317D01*
X17672325Y-11738984D02*
X17672325Y-11538984D01*
X17672325Y-11729460D02*
X17653277Y-11738984D01*
X17653277Y-11738984D02*
X17615182Y-11738984D01*
X17615182Y-11738984D02*
X17596135Y-11729460D01*
X17596135Y-11729460D02*
X17586611Y-11719936D01*
X17586611Y-11719936D02*
X17577087Y-11700888D01*
X17577087Y-11700888D02*
X17577087Y-11643746D01*
X17577087Y-11643746D02*
X17586611Y-11624698D01*
X17586611Y-11624698D02*
X17596135Y-11615174D01*
X17596135Y-11615174D02*
X17615182Y-11605650D01*
X17615182Y-11605650D02*
X17653277Y-11605650D01*
X17653277Y-11605650D02*
X17672325Y-11615174D01*
X17748516Y-11815174D02*
X17758039Y-11805650D01*
X17758039Y-11805650D02*
X17777087Y-11777079D01*
X17777087Y-11777079D02*
X17786611Y-11758031D01*
X17786611Y-11758031D02*
X17796135Y-11729460D01*
X17796135Y-11729460D02*
X17805658Y-11681841D01*
X17805658Y-11681841D02*
X17805658Y-11643746D01*
X17805658Y-11643746D02*
X17796135Y-11596127D01*
X17796135Y-11596127D02*
X17786611Y-11567555D01*
X17786611Y-11567555D02*
X17777087Y-11548508D01*
X17777087Y-11548508D02*
X17758039Y-11519936D01*
X17758039Y-11519936D02*
X17748516Y-11510412D01*
M02*
