M48
; DRILL file {KiCad 7.0.7} date Sat Jan 13 15:05:11 2024
; FORMAT={-:-/ absolute / metric / decimal}
; #@! TF.CreationDate,2024-01-13T15:05:11+01:00
; #@! TF.GenerationSoftware,Kicad,Pcbnew,7.0.7
; #@! TF.FileFunction,Plated,1,2,PTH
FMAT,2
METRIC
; #@! TA.AperFunction,Plated,PTH,ViaDrill
T1C0.400
; #@! TA.AperFunction,Plated,PTH,ComponentDrill
T2C1.000
; #@! TA.AperFunction,Plated,PTH,ComponentDrill
T3C1.190
; #@! TA.AperFunction,Plated,PTH,ComponentDrill
T4C2.700
; #@! TA.AperFunction,Plated,PTH,ViaDrill
T5C3.500
; #@! TA.AperFunction,Plated,PTH,ComponentDrill
T6C3.500
%
G90
G05
T1
X127.0Y-31.0
X131.0Y-31.0
X135.0Y-31.0
X137.5Y-57.5
X137.5Y-60.0
X137.5Y-62.5
X137.5Y-65.0
X137.5Y-67.5
X139.0Y-31.0
X140.0Y-57.5
X140.0Y-60.0
X140.0Y-62.5
X140.0Y-65.0
X140.0Y-67.5
X142.5Y-57.5
X142.5Y-60.0
X142.5Y-62.5
X142.5Y-65.0
X142.5Y-67.5
X145.0Y-57.5
X145.0Y-60.0
X145.0Y-62.5
X145.0Y-65.0
X145.0Y-67.5
X156.9Y-53.2
X159.1Y-53.2
X162.0Y-53.2
X166.0Y-43.0
X166.0Y-46.9
X166.1Y-49.5
T2
X118.796Y-49.2
X118.84Y-44.0
X121.336Y-49.2
X121.38Y-44.0
X123.876Y-49.2
X123.92Y-44.0
X124.0Y-35.05
X126.416Y-49.2
X126.46Y-44.0
X126.54Y-35.05
X127.93Y-103.0
X127.94Y-97.46
X128.956Y-49.2
X129.0Y-44.0
X129.08Y-35.05
X130.47Y-103.0
X130.48Y-97.46
X131.496Y-49.2
X131.54Y-44.0
X131.62Y-35.05
X133.01Y-103.0
X133.02Y-97.46
X134.036Y-49.2
X134.08Y-44.0
X134.16Y-35.05
X135.55Y-103.0
X135.56Y-97.46
X136.576Y-49.2
X136.62Y-44.0
X136.7Y-35.05
X138.09Y-103.0
X138.1Y-97.46
X139.116Y-49.2
X139.16Y-44.0
X140.63Y-103.0
X140.64Y-97.46
X141.656Y-49.2
X141.7Y-44.0
X143.17Y-103.0
X143.18Y-97.46
X145.7Y-44.0
X145.71Y-103.0
X145.72Y-49.2
X145.72Y-97.46
X148.24Y-44.0
X148.26Y-49.2
X150.76Y-103.0
X150.78Y-44.0
X150.8Y-49.2
X150.8Y-97.45
X153.3Y-103.0
X153.32Y-44.0
X153.34Y-49.2
X153.34Y-97.45
X155.84Y-103.0
X155.86Y-44.0
X155.88Y-49.2
X155.88Y-97.45
X158.38Y-103.0
X158.4Y-44.0
X158.42Y-49.2
X158.42Y-97.45
X160.92Y-103.0
X160.94Y-44.0
X160.96Y-49.2
X160.96Y-97.45
X163.46Y-103.0
X163.48Y-44.0
X163.5Y-49.2
X163.5Y-97.45
X166.0Y-103.0
X166.04Y-97.45
X167.3Y-35.0
X168.54Y-103.0
X168.58Y-49.2
X168.58Y-97.45
X168.62Y-44.0
X169.84Y-35.0
X171.12Y-49.2
X171.16Y-44.0
X172.38Y-35.0
X173.64Y-103.0
X173.66Y-49.2
X173.66Y-97.46
X173.7Y-44.0
X174.92Y-35.0
X176.18Y-103.0
X176.2Y-49.2
X176.2Y-97.46
X176.24Y-44.0
X177.46Y-35.0
X178.72Y-103.0
X178.74Y-49.2
X178.74Y-97.46
X178.78Y-44.0
X180.0Y-35.0
X181.26Y-103.0
X181.28Y-49.2
X181.28Y-97.46
X181.32Y-44.0
X183.8Y-103.0
X183.82Y-49.2
X183.82Y-97.46
X183.86Y-44.0
X186.34Y-103.0
X186.36Y-49.2
X186.36Y-97.46
X186.4Y-44.0
X187.0Y-53.95
X187.0Y-56.49
X187.0Y-59.03
X187.0Y-61.57
X187.0Y-64.11
X187.0Y-66.65
X187.0Y-69.19
X187.0Y-71.73
X187.0Y-74.27
X187.0Y-76.81
X187.0Y-79.35
X187.0Y-81.89
X187.0Y-84.43
X187.0Y-86.97
X187.0Y-89.51
X187.0Y-92.05
X188.88Y-103.0
X188.9Y-97.46
X191.42Y-103.0
X191.44Y-97.46
X193.99Y-49.2
X193.99Y-51.74
X193.99Y-54.28
X193.99Y-56.82
X193.99Y-59.36
X193.99Y-61.9
X193.99Y-64.44
X193.99Y-66.98
X193.99Y-69.52
X193.99Y-72.06
X193.99Y-74.6
X193.99Y-77.14
X193.99Y-79.68
X193.99Y-82.22
X193.99Y-84.76
X193.99Y-87.3
X193.99Y-89.84
X193.99Y-92.38
X196.53Y-49.2
X196.53Y-51.74
X196.53Y-54.28
X196.53Y-56.82
X196.53Y-59.36
X196.53Y-61.9
X196.53Y-64.44
X196.53Y-66.98
X196.53Y-69.52
X196.53Y-72.06
X196.53Y-74.6
X196.53Y-77.14
X196.53Y-79.68
X196.53Y-82.22
X196.53Y-84.76
X196.53Y-87.3
X196.53Y-89.84
X196.53Y-92.38
X204.0Y-54.14
X204.0Y-56.68
X204.0Y-59.22
X204.0Y-61.76
X204.0Y-64.3
X204.0Y-66.84
X204.0Y-69.38
X204.0Y-71.92
X204.0Y-74.46
X204.0Y-77.0
X204.0Y-79.54
X204.0Y-82.08
X204.0Y-84.62
X204.0Y-87.16
X204.0Y-89.7
X204.0Y-92.24
T3
X113.2Y-75.3
X113.2Y-77.84
X113.2Y-80.38
X113.2Y-82.92
X121.5Y-85.0
X124.04Y-85.0
X124.71Y-76.75
X127.25Y-76.75
X130.26Y-85.14
X132.8Y-85.14
X134.21Y-77.0
X136.75Y-77.0
X141.19Y-76.73
X143.73Y-76.73
X146.27Y-76.73
X148.81Y-76.73
X152.96Y-76.73
X155.5Y-76.73
X159.71Y-76.75
X162.25Y-76.75
X163.46Y-86.0
X166.0Y-86.0
X166.21Y-76.75
X168.54Y-86.0
X168.75Y-76.75
X171.08Y-86.0
X172.96Y-76.5
X175.5Y-76.5
X179.71Y-76.5
X179.71Y-86.0
X182.25Y-76.5
X182.25Y-86.0
X197.5Y-12.0
X197.5Y-14.54
X197.5Y-17.08
X197.5Y-19.62
X197.5Y-22.16
X197.5Y-24.7
X197.5Y-39.5
X197.5Y-42.04
X206.0Y8.4
X206.0Y5.86
X206.0Y3.32
X206.0Y0.78
X206.0Y-1.76
X206.0Y-4.3
X206.0Y-6.84
X206.0Y-9.38
X206.0Y-11.92
X206.0Y-14.46
X206.0Y-17.0
X206.0Y-19.54
X206.0Y-22.08
X206.0Y-24.62
X206.0Y-27.16
X206.0Y-29.7
X206.0Y-34.46
X206.0Y-37.0
X206.0Y-39.54
X206.0Y-42.08
T4
X118.25Y-61.0
X118.25Y-66.0
T5
X118.0Y11.0
X118.0Y10.95
X118.0Y-37.0
X118.0Y-37.05
X186.0Y11.0
X186.0Y10.95
X186.0Y-37.0
X186.0Y-37.05
T6
X115.0Y20.0
X115.0Y-105.0
X205.0Y20.0
X205.0Y-105.0
T0
M30
