%TF.GenerationSoftware,KiCad,Pcbnew,7.0.7*%
%TF.CreationDate,2024-01-13T15:05:05+01:00*%
%TF.ProjectId,rotor,726f746f-722e-46b6-9963-61645f706362,rev?*%
%TF.SameCoordinates,Original*%
%TF.FileFunction,Soldermask,Bot*%
%TF.FilePolarity,Negative*%
%FSLAX46Y46*%
G04 Gerber Fmt 4.6, Leading zero omitted, Abs format (unit mm)*
G04 Created by KiCad (PCBNEW 7.0.7) date 2024-01-13 15:05:05*
%MOMM*%
%LPD*%
G01*
G04 APERTURE LIST*
G04 Aperture macros list*
%AMRoundRect*
0 Rectangle with rounded corners*
0 $1 Rounding radius*
0 $2 $3 $4 $5 $6 $7 $8 $9 X,Y pos of 4 corners*
0 Add a 4 corners polygon primitive as box body*
4,1,4,$2,$3,$4,$5,$6,$7,$8,$9,$2,$3,0*
0 Add four circle primitives for the rounded corners*
1,1,$1+$1,$2,$3*
1,1,$1+$1,$4,$5*
1,1,$1+$1,$6,$7*
1,1,$1+$1,$8,$9*
0 Add four rect primitives between the rounded corners*
20,1,$1+$1,$2,$3,$4,$5,0*
20,1,$1+$1,$4,$5,$6,$7,0*
20,1,$1+$1,$6,$7,$8,$9,0*
20,1,$1+$1,$8,$9,$2,$3,0*%
G04 Aperture macros list end*
%ADD10RoundRect,0.250000X0.620000X0.845000X-0.620000X0.845000X-0.620000X-0.845000X0.620000X-0.845000X0*%
%ADD11O,1.740000X2.190000*%
%ADD12C,7.000000*%
%ADD13C,3.200000*%
%ADD14R,1.700000X1.700000*%
%ADD15O,1.700000X1.700000*%
%ADD16RoundRect,0.250000X-0.845000X0.620000X-0.845000X-0.620000X0.845000X-0.620000X0.845000X0.620000X0*%
%ADD17O,2.190000X1.740000*%
%ADD18RoundRect,0.250000X-0.620000X-0.845000X0.620000X-0.845000X0.620000X0.845000X-0.620000X0.845000X0*%
%ADD19R,3.800000X3.800000*%
%ADD20C,4.000000*%
%ADD21RoundRect,0.250000X0.845000X-0.620000X0.845000X0.620000X-0.845000X0.620000X-0.845000X-0.620000X0*%
%ADD22RoundRect,0.250000X-0.475000X0.337500X-0.475000X-0.337500X0.475000X-0.337500X0.475000X0.337500X0*%
G04 APERTURE END LIST*
D10*
%TO.C,J31*%
X155500000Y-76730000D03*
D11*
X152960000Y-76730000D03*
%TD*%
D12*
%TO.C,H2*%
X205000000Y-105000000D03*
%TD*%
D13*
%TO.C,MH6*%
X196520000Y-97460000D03*
%TD*%
D10*
%TO.C,J36*%
X162250000Y-76750000D03*
D11*
X159710000Y-76750000D03*
%TD*%
D14*
%TO.C,J10*%
X173640000Y-103000000D03*
D15*
X176180000Y-103000000D03*
X178720000Y-103000000D03*
X181260000Y-103000000D03*
X183800000Y-103000000D03*
X186340000Y-103000000D03*
X188880000Y-103000000D03*
X191420000Y-103000000D03*
%TD*%
D14*
%TO.C,J12*%
X118840000Y-44000000D03*
D15*
X121380000Y-44000000D03*
X123920000Y-44000000D03*
X126460000Y-44000000D03*
X129000000Y-44000000D03*
X131540000Y-44000000D03*
X134080000Y-44000000D03*
X136620000Y-44000000D03*
X139160000Y-44000000D03*
X141700000Y-44000000D03*
%TD*%
D14*
%TO.C,J14*%
X187000000Y-92050000D03*
D15*
X187000000Y-89510000D03*
X187000000Y-86970000D03*
X187000000Y-84430000D03*
X187000000Y-81890000D03*
X187000000Y-79350000D03*
X187000000Y-76810000D03*
X187000000Y-74270000D03*
X187000000Y-71730000D03*
X187000000Y-69190000D03*
X187000000Y-66650000D03*
X187000000Y-64110000D03*
X187000000Y-61570000D03*
X187000000Y-59030000D03*
X187000000Y-56490000D03*
X187000000Y-53950000D03*
%TD*%
D10*
%TO.C,J25*%
X136750000Y-77000000D03*
D11*
X134210000Y-77000000D03*
%TD*%
D12*
%TO.C,H1*%
X115000000Y-105000000D03*
%TD*%
D10*
%TO.C,J29*%
X168750000Y-76750000D03*
D11*
X166210000Y-76750000D03*
%TD*%
D16*
%TO.C,J32*%
X197500000Y-39500000D03*
D17*
X197500000Y-42040000D03*
%TD*%
D10*
%TO.C,J22*%
X124040000Y-85000000D03*
D11*
X121500000Y-85000000D03*
%TD*%
D14*
%TO.C,J13*%
X145700000Y-44000000D03*
D15*
X148240000Y-44000000D03*
X150780000Y-44000000D03*
X153320000Y-44000000D03*
X155860000Y-44000000D03*
X158400000Y-44000000D03*
X160940000Y-44000000D03*
X163480000Y-44000000D03*
%TD*%
D13*
%TO.C,MH1*%
X115240000Y-49200000D03*
%TD*%
D10*
%TO.C,J19*%
X175500000Y-76500000D03*
D11*
X172960000Y-76500000D03*
%TD*%
D12*
%TO.C,H3*%
X115000000Y20000000D03*
%TD*%
D10*
%TO.C,J17*%
X182250000Y-76500000D03*
D11*
X179710000Y-76500000D03*
%TD*%
D10*
%TO.C,J30*%
X148810000Y-76730000D03*
D11*
X146270000Y-76730000D03*
X143730000Y-76730000D03*
X141190000Y-76730000D03*
%TD*%
D18*
%TO.C,J35*%
X163460000Y-86000000D03*
D11*
X166000000Y-86000000D03*
X168540000Y-86000000D03*
X171080000Y-86000000D03*
%TD*%
D16*
%TO.C,J18*%
X197500000Y-12000000D03*
D17*
X197500000Y-14540000D03*
X197500000Y-17080000D03*
X197500000Y-19620000D03*
X197500000Y-22160000D03*
X197500000Y-24700000D03*
%TD*%
D19*
%TO.C,J37*%
X118250000Y-66000000D03*
D20*
X118250000Y-61000000D03*
%TD*%
D14*
%TO.C,J15*%
X204000000Y-92240000D03*
D15*
X204000000Y-89700000D03*
X204000000Y-87160000D03*
X204000000Y-84620000D03*
X204000000Y-82080000D03*
X204000000Y-79540000D03*
X204000000Y-77000000D03*
X204000000Y-74460000D03*
X204000000Y-71920000D03*
X204000000Y-69380000D03*
X204000000Y-66840000D03*
X204000000Y-64300000D03*
X204000000Y-61760000D03*
X204000000Y-59220000D03*
X204000000Y-56680000D03*
X204000000Y-54140000D03*
%TD*%
D21*
%TO.C,J21*%
X113200000Y-82920000D03*
D17*
X113200000Y-80380000D03*
X113200000Y-77840000D03*
X113200000Y-75300000D03*
%TD*%
D14*
%TO.C,J11*%
X168620000Y-44000000D03*
D15*
X171160000Y-44000000D03*
X173700000Y-44000000D03*
X176240000Y-44000000D03*
X178780000Y-44000000D03*
X181320000Y-44000000D03*
X183860000Y-44000000D03*
X186400000Y-44000000D03*
%TD*%
D10*
%TO.C,J23*%
X127250000Y-76750000D03*
D11*
X124710000Y-76750000D03*
%TD*%
D10*
%TO.C,J24*%
X132800000Y-85140000D03*
D11*
X130260000Y-85140000D03*
%TD*%
D16*
%TO.C,J20*%
X206000000Y8400000D03*
D17*
X206000000Y5860000D03*
X206000000Y3320000D03*
X206000000Y780000D03*
X206000000Y-1760000D03*
X206000000Y-4300000D03*
X206000000Y-6840000D03*
X206000000Y-9380000D03*
X206000000Y-11920000D03*
X206000000Y-14460000D03*
X206000000Y-17000000D03*
X206000000Y-19540000D03*
X206000000Y-22080000D03*
X206000000Y-24620000D03*
X206000000Y-27160000D03*
X206000000Y-29700000D03*
%TD*%
D13*
%TO.C,MH2*%
X113970000Y-97460000D03*
%TD*%
D14*
%TO.C,J26*%
X167300000Y-35000000D03*
D15*
X169840000Y-35000000D03*
X172380000Y-35000000D03*
X174920000Y-35000000D03*
X177460000Y-35000000D03*
X180000000Y-35000000D03*
%TD*%
D13*
%TO.C,MH3*%
X166040000Y-64440000D03*
%TD*%
D16*
%TO.C,J33*%
X206000000Y-34460000D03*
D17*
X206000000Y-37000000D03*
X206000000Y-39540000D03*
X206000000Y-42080000D03*
%TD*%
D13*
%TO.C,MH4*%
X166040000Y-92380000D03*
%TD*%
D12*
%TO.C,H4*%
X205000000Y20000000D03*
%TD*%
D10*
%TO.C,J34*%
X182250000Y-86000000D03*
D11*
X179710000Y-86000000D03*
%TD*%
D13*
%TO.C,MH5*%
X190170000Y-49200000D03*
%TD*%
D14*
%TO.C,J7*%
X196530000Y-92380000D03*
D15*
X193990000Y-92380000D03*
X196530000Y-89840000D03*
X193990000Y-89840000D03*
X196530000Y-87300000D03*
X193990000Y-87300000D03*
X196530000Y-84760000D03*
X193990000Y-84760000D03*
X196530000Y-82220000D03*
X193990000Y-82220000D03*
X196530000Y-79680000D03*
X193990000Y-79680000D03*
X196530000Y-77140000D03*
X193990000Y-77140000D03*
X196530000Y-74600000D03*
X193990000Y-74600000D03*
X196530000Y-72060000D03*
X193990000Y-72060000D03*
X196530000Y-69520000D03*
X193990000Y-69520000D03*
X196530000Y-66980000D03*
X193990000Y-66980000D03*
X196530000Y-64440000D03*
X193990000Y-64440000D03*
X196530000Y-61900000D03*
X193990000Y-61900000D03*
X196530000Y-59360000D03*
X193990000Y-59360000D03*
X196530000Y-56820000D03*
X193990000Y-56820000D03*
X196530000Y-54280000D03*
X193990000Y-54280000D03*
X196530000Y-51740000D03*
X193990000Y-51740000D03*
X196530000Y-49200000D03*
X193990000Y-49200000D03*
%TD*%
D14*
%TO.C,J1*%
X127940000Y-97460000D03*
D15*
X130480000Y-97460000D03*
X133020000Y-97460000D03*
X135560000Y-97460000D03*
X138100000Y-97460000D03*
X140640000Y-97460000D03*
X143180000Y-97460000D03*
X145720000Y-97460000D03*
%TD*%
D14*
%TO.C,J5*%
X173660000Y-97460000D03*
D15*
X176200000Y-97460000D03*
X178740000Y-97460000D03*
X181280000Y-97460000D03*
X183820000Y-97460000D03*
X186360000Y-97460000D03*
X188900000Y-97460000D03*
X191440000Y-97460000D03*
%TD*%
D14*
%TO.C,J2*%
X118796000Y-49200000D03*
D15*
X121336000Y-49200000D03*
X123876000Y-49200000D03*
X126416000Y-49200000D03*
X128956000Y-49200000D03*
X131496000Y-49200000D03*
X134036000Y-49200000D03*
X136576000Y-49200000D03*
X139116000Y-49200000D03*
X141656000Y-49200000D03*
%TD*%
D14*
%TO.C,J4*%
X145720000Y-49200000D03*
D15*
X148260000Y-49200000D03*
X150800000Y-49200000D03*
X153340000Y-49200000D03*
X155880000Y-49200000D03*
X158420000Y-49200000D03*
X160960000Y-49200000D03*
X163500000Y-49200000D03*
%TD*%
D14*
%TO.C,J6*%
X168580000Y-49200000D03*
D15*
X171120000Y-49200000D03*
X173660000Y-49200000D03*
X176200000Y-49200000D03*
X178740000Y-49200000D03*
X181280000Y-49200000D03*
X183820000Y-49200000D03*
X186360000Y-49200000D03*
%TD*%
D14*
%TO.C,J8*%
X150760000Y-103000000D03*
D15*
X153300000Y-103000000D03*
X155840000Y-103000000D03*
X158380000Y-103000000D03*
X160920000Y-103000000D03*
X163460000Y-103000000D03*
X166000000Y-103000000D03*
X168540000Y-103000000D03*
%TD*%
D22*
%TO.C,C1*%
X122990000Y-63750000D03*
X122990000Y-65825000D03*
%TD*%
D14*
%TO.C,J3*%
X150800000Y-97450000D03*
D15*
X153340000Y-97450000D03*
X155880000Y-97450000D03*
X158420000Y-97450000D03*
X160960000Y-97450000D03*
X163500000Y-97450000D03*
X166040000Y-97450000D03*
X168580000Y-97450000D03*
%TD*%
D14*
%TO.C,J9*%
X127930000Y-103000000D03*
D15*
X130470000Y-103000000D03*
X133010000Y-103000000D03*
X135550000Y-103000000D03*
X138090000Y-103000000D03*
X140630000Y-103000000D03*
X143170000Y-103000000D03*
X145710000Y-103000000D03*
%TD*%
D22*
%TO.C,C4*%
X126000000Y-63750000D03*
X126000000Y-65825000D03*
%TD*%
D14*
%TO.C,J16*%
X136700000Y-35050000D03*
D15*
X134160000Y-35050000D03*
X131620000Y-35050000D03*
X129080000Y-35050000D03*
X126540000Y-35050000D03*
X124000000Y-35050000D03*
%TD*%
G36*
X146943039Y-56019685D02*
G01*
X146988794Y-56072489D01*
X147000000Y-56124000D01*
X147000000Y-68876000D01*
X146980315Y-68943039D01*
X146927511Y-68988794D01*
X146876000Y-69000000D01*
X136124000Y-69000000D01*
X136056961Y-68980315D01*
X136011206Y-68927511D01*
X136000000Y-68876000D01*
X136000000Y-56124000D01*
X136019685Y-56056961D01*
X136072489Y-56011206D01*
X136124000Y-56000000D01*
X146876000Y-56000000D01*
X146943039Y-56019685D01*
G37*
M02*
